<?xml version="1.0" standalone="no"?>
<!DOCTYPE svg PUBLIC "-//W3C//DTD SVG 20010904//EN"
 "http://www.w3.org/TR/2001/REC-SVG-20010904/DTD/svg10.dtd">
<svg version="1.0" xmlns="http://www.w3.org/2000/svg"
 width="1024.000000pt" height="1024.000000pt" viewBox="0 0 1024.000000 1024.000000"
 preserveAspectRatio="xMidYMid meet">

<g transform="translate(0.000000,1024.000000) scale(0.100000,-0.100000)"
fill="#000000" stroke="none">
<path d="M4345 7159 c-22 -5 -78 -28 -125 -51 -84 -41 -90 -46 -644 -597 -343
-342 -573 -578 -597 -614 -82 -125 -104 -276 -59 -406 44 -132 60 -149 889
-1008 153 -157 181 -182 215 -188 54 -11 88 4 108 45 16 31 18 68 18 316 l0
280 -310 320 c-340 349 -341 351 -304 424 11 21 197 218 424 448 438 444 438
444 527 427 31 -6 59 -28 155 -123 l117 -115 137 129 c74 71 161 152 192 180
l57 51 -100 108 c-272 295 -315 331 -444 369 -60 17 -190 20 -256 5z"/>
<path d="M5923 7160 c-61 -11 -139 -41 -202 -77 -45 -26 -1030 -992 -1119
-1097 -52 -61 -116 -191 -131 -264 -24 -117 -9 -221 50 -342 24 -48 61 -94
138 -173 l106 -108 194 195 195 195 -42 45 c-35 38 -42 52 -42 86 0 23 5 51
11 63 12 23 105 120 556 579 234 238 289 288 317 294 75 14 93 0 423 -329
l311 -310 264 7 c144 4 279 12 300 17 47 12 75 37 84 73 7 29 -13 50 -509 543
-285 281 -536 524 -560 538 -99 58 -237 84 -344 65z"/>
<path d="M5492 5953 l-180 -188 29 -32 c34 -39 54 -101 45 -140 -4 -19 -101
-121 -321 -338 l-315 -311 0 -298 0 -298 29 -29 c37 -36 67 -37 117 -1 21 16
253 245 514 510 452 458 477 485 518 564 49 96 67 177 58 266 -7 71 -40 168
-79 233 -26 45 -212 249 -227 249 -4 0 -89 -84 -188 -187z"/>
<path d="M6365 5010 c-310 -310 -311 -310 -353 -310 -63 0 -95 21 -218 142
l-111 109 -179 -186 c-99 -102 -179 -189 -179 -194 0 -4 76 -90 169 -191 182
-196 240 -242 354 -282 52 -18 88 -23 157 -22 104 0 175 22 265 80 67 43 1066
1049 1072 1080 7 32 -9 63 -37 74 -15 6 -154 10 -328 10 l-302 0 -310 -310z"/>
<path d="M810 3385 l0 -335 75 0 75 0 0 275 0 275 141 0 141 0 29 -29 c20 -21
29 -39 29 -63 0 -71 -54 -108 -158 -108 l-68 0 -22 -45 -22 -45 45 0 45 0 87
-130 86 -130 89 0 88 0 -80 120 c-45 67 -83 126 -86 133 -3 8 10 18 30 25 46
17 103 82 112 127 21 113 -18 198 -110 241 -49 23 -59 24 -288 24 l-238 0 0
-335z"/>
<path d="M4320 3385 l0 -335 85 0 85 0 0 233 1 232 152 -232 152 -233 113 0
112 0 -2 333 -3 332 -82 3 -83 3 -2 -252 -3 -251 -156 248 -156 249 -107 3
-106 3 0 -336z"/>
<path d="M5100 3660 l0 -59 123 -3 122 -3 3 -272 2 -273 75 0 75 0 2 273 3
272 123 3 122 3 0 59 0 60 -325 0 -325 0 0 -60z"/>
<path d="M5840 3385 l0 -335 80 0 80 0 0 335 0 335 -80 0 -80 0 0 -335z"/>
<path d="M6100 3385 l0 -335 85 0 85 0 0 233 1 232 152 -232 152 -233 113 0
112 0 -2 333 -3 332 -82 3 -83 3 -2 -252 -3 -251 -156 249 -156 248 -107 3
-106 3 0 -336z"/>
<path d="M7129 3710 c-65 -11 -118 -41 -168 -95 -66 -71 -86 -124 -86 -225 0
-77 3 -92 33 -153 40 -81 88 -132 151 -161 41 -18 69 -21 239 -24 l193 -4 -3
59 -3 58 -176 5 c-159 4 -179 7 -199 25 -26 22 -50 74 -50 105 0 19 6 20 215
20 l215 0 0 60 0 60 -216 0 -216 0 5 30 c9 42 35 78 71 98 24 13 66 18 191 22
l160 5 3 63 3 62 -158 -1 c-87 -1 -179 -5 -204 -9z"/>
<path d="M7570 3385 l0 -335 85 0 85 0 0 233 0 232 153 -232 152 -233 113 0
112 0 -2 333 -3 332 -82 3 -83 3 -2 -252 -3 -252 -156 249 -156 249 -107 3
-106 3 0 -336z"/>
<path d="M8360 3698 c0 -13 3 -40 6 -60 l7 -38 118 0 119 0 0 -275 0 -275 75
0 75 0 2 273 3 272 123 3 122 3 0 59 0 60 -325 0 -325 0 0 -22z"/>
<path d="M313 3700 c-43 -17 -77 -82 -189 -355 -63 -154 -114 -283 -114 -287
0 -5 37 -8 83 -8 l82 0 89 236 c50 129 93 237 96 239 3 2 26 -42 52 -98 l46
-102 -58 -3 -58 -3 -21 -55 c-11 -31 -21 -58 -21 -60 0 -2 47 -4 104 -4 l104
0 24 -72 25 -73 81 -3 81 -3 -65 158 c-36 87 -88 212 -115 278 -27 66 -58 135
-69 153 -36 59 -101 84 -157 62z"/>
<path d="M1701 3693 c-62 -22 -134 -96 -150 -154 -9 -31 -12 -91 -10 -180 4
-126 6 -137 32 -182 59 -99 136 -127 359 -127 l158 0 0 55 0 55 -142 0 c-229
1 -258 26 -258 218 0 119 16 156 80 190 40 20 59 22 182 22 l138 0 0 60 0 60
-172 -1 c-130 0 -184 -4 -217 -16z"/>
<path d="M2485 3700 c-48 -19 -76 -72 -189 -349 -64 -156 -116 -287 -116 -292
0 -5 37 -9 83 -9 l82 0 89 235 c49 129 92 235 96 235 4 0 28 -44 52 -97 l46
-98 -59 -3 -58 -3 -20 -55 c-12 -30 -21 -57 -21 -59 0 -3 46 -5 103 -5 l102 0
26 -72 26 -73 82 -3 c46 -2 80 1 78 5 -3 4 -55 129 -116 277 -62 149 -121 285
-133 304 -37 59 -99 85 -153 62z"/>
<path d="M3039 3678 c-45 -23 -73 -46 -94 -76 -30 -43 -30 -45 -33 -200 -2
-93 1 -172 7 -193 7 -21 31 -55 60 -82 70 -66 117 -77 318 -77 l164 0 -3 58
-3 57 -157 0 c-143 0 -159 2 -185 21 -46 34 -53 59 -53 191 0 118 1 123 27
154 43 51 76 59 233 59 l140 0 0 60 0 60 -178 0 -179 0 -64 -32z"/>
<path d="M3714 3699 c-56 -16 -127 -71 -151 -118 -21 -41 -23 -57 -23 -198 0
-177 8 -204 82 -267 59 -51 118 -66 263 -66 182 0 267 34 323 129 26 45 27 51
27 201 0 141 -2 159 -22 197 -28 52 -83 98 -142 118 -50 17 -302 20 -357 4z
m296 -121 c68 -47 75 -66 75 -203 0 -137 -7 -156 -75 -202 -28 -20 -46 -23
-119 -23 -99 0 -142 17 -178 70 -21 30 -23 45 -23 154 0 112 2 124 24 157 36
53 76 69 177 69 73 0 91 -3 119 -22z"/>
<path d="M9233 3689 c-40 -25 -59 -64 -191 -391 l-101 -248 87 0 87 0 64 173
c36 94 77 204 92 242 l27 70 46 -99 c25 -54 46 -102 46 -107 0 -4 -25 -9 -56
-11 l-56 -3 -19 -50 c-10 -27 -19 -53 -19 -57 0 -4 46 -9 103 -10 l102 -3 25
-72 25 -73 77 0 c43 0 78 4 78 9 0 19 -230 563 -250 591 -43 60 -110 76 -167
39z"/>
<path d="M9692 3453 c3 -281 5 -288 65 -345 54 -52 85 -58 293 -58 l190 0 0
45 0 45 -132 0 c-151 0 -187 11 -225 69 -22 33 -23 41 -23 267 l0 234 -86 0
-85 0 3 -257z"/>
</g>
</svg>
