<?xml version="1.0" standalone="no"?>
<!DOCTYPE svg PUBLIC "-//W3C//DTD SVG 20010904//EN"
 "http://www.w3.org/TR/2001/REC-SVG-20010904/DTD/svg10.dtd">
<svg version="1.0" xmlns="http://www.w3.org/2000/svg"
 width="4500.000000pt" height="4500.000000pt" viewBox="0 0 4500.000000 4500.000000"
 preserveAspectRatio="xMidYMid meet">

<g transform="translate(0.000000,4500.000000) scale(0.100000,-0.100000)"
fill="#000000" stroke="none">
<path d="M7036 30248 c-2 -7 -9 -71 -16 -143 -38 -433 -138 -934 -262 -1315
-260 -798 -660 -1394 -1403 -2090 -110 -103 -362 -332 -560 -510 -379 -340
-916 -868 -1121 -1100 -394 -445 -695 -855 -997 -1355 -168 -278 -343 -647
-352 -741 -3 -33 -2 -34 36 -34 l39 0 0 -100 c0 -93 1 -100 20 -100 18 0 20
-7 20 -80 0 -73 2 -80 20 -80 18 0 20 -7 20 -80 0 -73 2 -80 20 -80 18 0 20
-7 20 -80 l0 -80 40 0 40 0 0 -80 c0 -73 2 -80 20 -80 18 0 20 -7 20 -80 l0
-80 40 0 40 0 0 -80 c0 -73 2 -80 20 -80 18 0 20 -7 20 -80 l0 -80 36 0 c52 0
64 -18 64 -94 0 -37 4 -66 10 -66 6 0 10 -33 10 -80 0 -73 2 -80 20 -80 18 0
20 -7 20 -80 l0 -80 36 0 c52 0 64 -18 64 -94 0 -37 4 -66 10 -66 6 0 10 -33
10 -80 l0 -80 40 0 40 0 0 -80 c0 -73 2 -80 20 -80 18 0 20 -7 20 -80 l0 -80
40 0 40 0 0 -80 c0 -73 2 -80 20 -80 18 0 20 -7 20 -80 0 -73 2 -80 20 -80 18
0 20 -7 20 -80 l0 -80 40 0 40 0 0 -80 c0 -73 2 -80 20 -80 18 0 20 -7 20 -80
0 -73 2 -80 20 -80 18 0 20 -7 20 -80 l0 -80 40 0 40 0 0 -80 c0 -73 2 -80 20
-80 18 0 20 -7 20 -80 0 -73 2 -80 20 -80 18 0 20 -7 20 -80 l0 -80 40 0 40 0
0 -80 c0 -73 2 -80 20 -80 18 0 20 -7 20 -80 0 -73 2 -80 20 -80 18 0 20 -7
20 -80 l0 -80 40 0 40 0 0 -80 c0 -73 2 -80 20 -80 18 0 20 -7 20 -80 0 -73 2
-80 20 -80 18 0 20 -7 20 -80 l0 -80 40 0 40 0 0 -80 c0 -73 2 -80 20 -80 18
0 20 -7 20 -80 0 -73 2 -80 20 -80 18 0 20 -7 20 -80 l0 -80 40 0 40 0 0 -80
c0 -73 2 -80 20 -80 18 0 20 -7 20 -80 0 -73 2 -80 20 -80 18 0 20 -7 20 -80
l0 -80 40 0 40 0 0 -80 c0 -73 2 -80 20 -80 18 0 20 -7 20 -80 l0 -80 40 0 40
0 0 -80 c0 -73 2 -80 20 -80 18 0 20 -7 20 -80 l0 -80 36 0 c52 0 64 -18 64
-94 0 -37 4 -66 10 -66 6 0 10 -33 10 -80 l0 -80 40 0 40 0 0 -80 c0 -73 2
-80 20 -80 18 0 20 -7 20 -80 0 -73 2 -80 20 -80 18 0 20 -7 20 -80 l0 -80 40
0 40 0 0 -80 c0 -73 2 -80 20 -80 18 0 20 -7 20 -80 l0 -80 40 0 40 0 0 -80
c0 -73 2 -80 20 -80 13 0 20 -7 20 -18 0 -11 9 -27 20 -37 20 -18 20 -17 20
18 0 30 4 37 20 37 17 0 20 -7 20 -40 0 -33 -3 -38 -17 -33 -55 20 164 -131
347 -239 l115 -69 21 188 c107 938 310 1780 601 2483 79 191 246 533 341 698
65 114 69 122 49 126 -12 2 -76 12 -142 21 -319 43 -621 137 -950 294 -593
284 -1110 755 -1445 1317 -343 574 -496 1161 -477 1824 9 297 35 490 102 745
220 844 782 1596 1530 2047 431 260 862 408 1365 470 160 20 643 16 800 -5
461 -64 893 -209 1256 -422 208 -122 324 -293 355 -524 46 -345 -196 -684
-542 -757 -165 -35 -332 -4 -506 96 -220 124 -468 206 -733 241 -129 17 -401
14 -532 -5 -848 -123 -1521 -773 -1679 -1621 -26 -139 -36 -428 -20 -574 26
-237 82 -433 186 -646 199 -409 507 -721 916 -927 280 -140 539 -201 859 -201
264 0 439 28 679 108 568 189 1080 630 1548 1330 241 361 394 709 533 1215
312 1137 342 2617 79 3935 -382 1913 -1315 3308 -2606 3898 -114 52 -112 52
-117 35z m-4636 -7178 c0 -5 -4 -10 -9 -10 -6 0 -13 5 -16 10 -3 6 1 10 9 10
9 0 16 -4 16 -10z"/>
<path d="M23690 21215 l0 -3435 770 0 770 0 0 3435 0 3435 -770 0 -770 0 0
-3435z"/>
<path d="M10643 23113 c14 -89 19 -528 8 -718 -44 -756 -216 -1315 -566 -1840
-126 -189 -202 -282 -380 -464 -231 -236 -369 -346 -794 -631 -133 -90 -245
-171 -248 -179 -2 -9 -9 -25 -15 -36 -8 -14 -8 -20 1 -23 6 -2 11 -10 11 -19
0 -19 24 -43 44 -43 12 0 16 -10 16 -40 0 -33 -3 -40 -20 -40 -13 0 -20 -7
-20 -20 0 -11 -4 -20 -10 -20 -5 0 -10 -13 -10 -30 0 -16 5 -30 10 -30 7 0 10
-253 10 -801 -1 -440 0 -802 2 -804 1 -2 62 31 133 72 168 97 551 284 730 358
188 77 397 179 527 258 636 387 1076 1000 1262 1757 73 294 99 517 100 855 0
251 -7 356 -40 590 -73 519 -266 1081 -523 1530 -69 120 -220 355 -228 355 -3
0 -3 -17 0 -37z m-1966 -3879 c-3 -3 -12 -4 -19 -1 -8 3 -5 6 6 6 11 1 17 -2
13 -5z"/>
<path d="M19980 22879 c-845 -80 -1451 -426 -1845 -1054 -171 -273 -295 -629
-349 -1005 -54 -372 -46 -885 19 -1239 141 -768 576 -1374 1208 -1684 352
-172 713 -252 1197 -264 570 -14 1015 72 1410 273 641 324 1060 928 1195 1717
45 267 61 706 35 992 -60 671 -289 1204 -689 1606 -359 360 -809 567 -1401
645 -146 19 -633 27 -780 13z m613 -1133 c114 -34 191 -73 266 -136 210 -175
341 -471 398 -900 22 -169 26 -731 5 -905 -44 -375 -162 -665 -341 -840 -104
-102 -251 -175 -431 -212 -105 -22 -335 -13 -445 16 -316 85 -512 306 -629
712 -72 252 -103 668 -76 1044 31 436 129 755 298 965 103 129 212 205 359
250 114 34 158 39 338 36 149 -3 181 -7 258 -30z"/>
<path d="M33575 22869 c-197 -12 -478 -45 -683 -80 -191 -33 -566 -109 -677
-137 l-70 -18 -3 -597 -2 -597 71 0 c65 0 88 6 233 64 466 185 892 286 1211
286 258 0 553 -39 724 -96 144 -48 215 -88 292 -164 103 -102 153 -223 166
-402 l6 -86 -64 -6 c-35 -3 -149 -13 -254 -21 -436 -35 -909 -90 -1135 -131
-850 -156 -1376 -510 -1568 -1054 -59 -169 -92 -389 -92 -619 0 -464 140 -822
440 -1122 326 -326 679 -454 1210 -436 303 11 463 45 720 154 209 89 342 174
560 356 l165 138 3 -261 2 -260 771 0 770 0 -4 1793 c-3 1975 0 1858 -66 2111
-161 617 -642 986 -1466 1125 -359 61 -848 84 -1260 60z m1255 -3278 l0 -519
-52 -44 c-202 -172 -419 -271 -655 -300 -71 -8 -126 -9 -221 0 -424 38 -589
188 -608 552 -17 315 116 526 400 634 214 82 355 111 776 155 272 29 336 36
353 40 4 0 7 -232 7 -518z"/>
<path d="M15435 22864 c-16 -2 -77 -9 -135 -15 -340 -36 -728 -140 -995 -268
-479 -229 -826 -575 -1061 -1056 -40 -82 -87 -190 -104 -240 -211 -604 -211
-1467 0 -2070 38 -110 145 -333 207 -435 185 -301 431 -543 743 -730 460 -277
1090 -415 1805 -397 306 8 467 32 770 112 181 48 274 81 510 181 l205 87 0
663 0 664 -101 0 -101 0 -117 -111 c-241 -227 -467 -354 -766 -432 -149 -39
-260 -51 -455 -51 -376 0 -646 98 -878 318 -105 99 -165 182 -232 321 -110
224 -150 417 -157 757 -8 327 17 531 93 758 71 212 169 377 312 523 169 173
380 273 647 308 127 16 392 6 520 -21 341 -72 688 -260 987 -537 l48 -44 97 3
98 3 3 661 2 661 -109 51 c-373 175 -763 283 -1175 327 -130 13 -566 19 -661
9z"/>
<path d="M27850 22855 c-423 -64 -818 -261 -1101 -546 -311 -314 -542 -782
-634 -1280 -78 -423 -71 -1025 16 -1494 135 -729 461 -1217 989 -1481 267
-134 569 -197 935 -197 197 0 305 12 469 54 262 67 553 212 776 387 l65 51 3
-122 c2 -67 -2 -174 -8 -237 -63 -638 -377 -887 -1165 -925 -332 -16 -707 52
-1175 213 -229 79 -251 85 -342 89 l-98 4 0 -624 0 -623 143 -32 c297 -65 618
-117 927 -149 244 -25 964 -25 1175 0 629 76 1051 236 1402 531 334 280 573
763 652 1316 40 282 42 424 39 2730 l-3 2215 -746 3 -747 2 -21 -77 c-11 -43
-23 -93 -27 -110 -4 -18 -8 -33 -10 -33 -2 0 -27 15 -56 34 -204 130 -513 246
-778 292 -134 23 -550 28 -680 9z m1245 -1178 c61 -14 146 -38 190 -54 l80
-28 3 -1126 2 -1127 -57 -38 c-145 -96 -322 -172 -494 -210 -95 -22 -363 -25
-469 -5 -227 41 -399 152 -518 333 -140 216 -186 436 -186 898 -1 255 2 299
23 415 99 557 376 871 846 959 128 24 437 15 580 -17z"/>
<path d="M39145 22859 c-467 -46 -879 -176 -1207 -380 -376 -233 -635 -590
-715 -987 -24 -116 -24 -425 0 -562 69 -401 248 -678 582 -902 258 -173 557
-280 1074 -384 428 -86 672 -152 801 -219 51 -27 110 -85 138 -139 24 -45 27
-62 27 -151 0 -92 -2 -104 -30 -154 -53 -95 -140 -153 -315 -209 -146 -46
-279 -64 -480 -64 -420 0 -775 94 -1241 327 -113 57 -233 135 -383 248 -88 66
-90 67 -153 67 l-63 0 2 -657 3 -658 124 -53 c325 -139 737 -248 1146 -303
152 -21 210 -23 555 -24 395 0 483 6 720 46 508 86 975 310 1270 609 190 192
329 447 391 719 26 113 36 378 19 521 -25 223 -97 427 -207 592 -72 108 -213
244 -345 331 -263 176 -603 298 -1059 382 -358 65 -687 154 -819 220 -87 44
-136 89 -170 158 -40 82 -48 163 -25 243 14 50 27 69 83 124 146 142 375 211
707 211 257 0 496 -42 750 -131 181 -64 499 -232 693 -366 58 -41 68 -44 128
-44 l64 0 -2 627 -3 627 -99 44 c-194 85 -549 191 -796 237 -245 46 -378 57
-730 60 -190 2 -385 -1 -435 -6z"/>
<path d="M42439 22847 c-68 -29 -107 -55 -148 -102 -99 -114 -123 -293 -57
-429 33 -68 120 -149 193 -184 50 -22 72 -26 153 -27 88 0 101 3 162 33 119
58 197 158 219 282 29 166 -51 329 -203 410 -58 31 -72 35 -163 37 -87 3 -107
1 -156 -20z m280 -92 c130 -71 192 -225 146 -364 -22 -69 -99 -152 -166 -180
-67 -29 -170 -30 -233 -3 -254 113 -241 471 21 568 61 23 168 13 232 -21z"/>
<path d="M42432 22498 l3 -193 42 -3 42 -3 3 73 c4 99 18 100 94 3 l59 -75 59
0 c67 0 69 -8 -21 97 -29 33 -53 63 -53 66 0 3 16 21 35 40 29 29 35 42 35 79
0 48 -23 82 -67 99 -13 5 -71 9 -129 9 l-104 0 2 -192z m179 112 c24 -13 25
-52 1 -73 -10 -9 -33 -18 -52 -19 l-35 -3 -3 53 -3 52 36 0 c20 0 45 -5 56
-10z"/>
</g>
</svg>
