<?xml version="1.0" standalone="no"?>
<!DOCTYPE svg PUBLIC "-//W3C//DTD SVG 20010904//EN"
 "http://www.w3.org/TR/2001/REC-SVG-20010904/DTD/svg10.dtd">
<svg version="1.0" xmlns="http://www.w3.org/2000/svg"
 width="474.000000pt" height="474.000000pt" viewBox="0 0 474.000000 474.000000"
 preserveAspectRatio="xMidYMid meet">

<g transform="translate(0.000000,474.000000) scale(0.100000,-0.100000)"
fill="#000000" stroke="none">
<path d="M2300 4516 c5 -5 7 -42 3 -85 -5 -67 -3 -79 16 -102 33 -43 116 -45
143 -5 16 24 7 24 -17 1 -28 -29 -42 -31 -73 -9 -20 14 -22 24 -22 104 0 72 3
91 16 98 12 7 3 9 -30 8 -29 0 -42 -4 -36 -10z"/>
<path d="M2457 4522 c7 -5 13 -38 15 -82 l3 -75 5 81 c5 75 4 80 -15 82 -12 1
-15 -2 -8 -6z"/>
<path d="M2100 4503 c43 -15 54 -81 18 -106 l-23 -15 45 -46 c35 -36 50 -44
68 -40 22 6 22 7 -10 43 -17 20 -38 39 -47 42 -12 5 -10 10 12 29 49 43 24
101 -44 99 -19 0 -27 -3 -19 -6z"/>
<path d="M2582 4413 c-9 -67 -18 -102 -30 -110 -14 -11 -13 -13 10 -13 15 0
33 -2 41 -5 9 -4 14 1 14 12 -1 81 0 83 46 83 83 0 120 66 58 103 -16 9 -35
17 -43 17 -8 -1 -7 -4 5 -11 20 -12 23 -69 5 -87 -7 -7 -23 -12 -36 -12 -23 0
-24 2 -19 44 4 24 8 50 9 58 2 7 -7 14 -22 16 -25 3 -26 1 -38 -95z"/>
<path d="M2009 4486 c12 -16 34 -172 28 -197 -5 -18 -2 -20 16 -15 12 3 31 6
42 6 15 0 17 3 7 9 -12 7 -29 101 -35 188 -2 18 -8 22 -34 21 -22 -1 -30 -5
-24 -12z"/>
<path d="M1860 4453 c-14 -7 -19 -13 -11 -13 8 0 23 -8 33 -17 19 -17 19 -16
12 12 -4 17 -7 30 -8 31 -1 0 -12 -5 -26 -13z"/>
<path d="M1750 4420 c-34 -37 -44 -81 -26 -124 20 -49 61 -76 110 -75 28 1 33
3 16 6 -35 7 -50 22 -71 68 -27 58 -25 120 3 139 12 9 17 16 9 16 -7 0 -25
-13 -41 -30z"/>
<path d="M2820 4422 c-35 -35 -47 -91 -30 -133 13 -30 54 -69 74 -69 6 0 0 7
-12 16 -17 12 -22 25 -22 62 0 53 29 125 57 141 16 9 15 10 -10 11 -18 0 -39
-10 -57 -28z m-2 -67 c-3 -3 -9 2 -12 12 -6 14 -5 15 5 6 7 -7 10 -15 7 -18z"/>
<path d="M2959 4421 c26 -47 -3 -165 -46 -190 -17 -10 -17 -10 0 -11 50 -1
107 58 107 110 0 32 -30 89 -52 101 -17 9 -18 8 -9 -10z"/>
<path d="M1898 4338 c-36 -9 -36 -10 -17 -29 21 -21 26 -69 7 -69 -6 0 -9 -3
-6 -6 4 -3 18 2 32 11 22 15 26 24 24 61 -2 24 -3 43 -3 43 0 -1 -17 -5 -37
-11z"/>
<path d="M1520 4256 c-123 -56 -182 -91 -173 -101 5 -4 3 -5 -4 -1 -12 7 -157
-85 -263 -166 -70 -54 -279 -264 -331 -334 -24 -31 -38 -58 -33 -65 4 -7 3 -9
-4 -5 -14 8 -95 -110 -86 -126 4 -6 3 -8 -3 -5 -12 7 -75 -101 -131 -223 -73
-160 -122 -322 -158 -525 -23 -126 -26 -518 -5 -635 34 -193 80 -350 153 -521
40 -95 54 -118 73 -121 22 -5 21 -1 -22 91 -238 509 -252 1117 -37 1634 14 32
22 63 18 69 -4 6 -3 8 3 5 13 -8 46 61 37 76 -4 7 -3 9 1 4 5 -4 26 26 48 65
22 40 46 81 54 90 8 9 12 22 7 29 -4 7 -3 10 3 6 15 -9 44 38 37 60 -4 13 -3
14 4 5 7 -10 13 -7 27 15 23 35 171 207 219 252 19 19 32 39 29 44 -3 6 -2 7
4 4 5 -3 45 24 89 59 118 98 275 199 406 263 65 32 115 60 112 64 -3 3 3 3 15
0 16 -4 21 -1 21 16 0 11 -3 21 -7 21 -5 0 -51 -20 -103 -44z m-750 -619 c0
-2 -10 -12 -22 -23 l-23 -19 19 23 c18 21 26 27 26 19z"/>
<path d="M3110 4283 c0 -13 22 -27 73 -48 39 -16 78 -29 84 -29 7 1 10 -2 7
-7 -3 -5 1 -9 9 -9 7 0 61 -30 118 -66 57 -37 110 -67 117 -67 6 0 12 -4 12
-9 0 -4 19 -20 42 -35 81 -54 251 -213 345 -325 45 -54 70 -75 81 -71 12 3 13
2 5 -4 -10 -7 6 -37 60 -119 75 -114 138 -235 192 -367 17 -42 33 -75 36 -73
2 2 5 -5 6 -17 0 -12 17 -80 36 -152 120 -446 75 -948 -122 -1361 -47 -98 -48
-101 -24 -96 16 3 22 9 19 19 -3 8 -2 12 3 9 20 -13 129 274 171 449 68 285
68 649 -1 945 -29 127 -71 250 -82 243 -6 -3 -7 -1 -4 4 25 41 -183 418 -321
583 -84 100 -165 180 -175 173 -6 -3 -7 -1 -4 4 7 12 -75 87 -191 175 -71 54
-101 71 -87 48 3 -6 -1 -7 -10 -3 -11 4 -13 8 -5 13 8 5 7 10 -4 19 -8 7 -21
9 -27 5 -7 -4 -9 -3 -6 3 3 5 -20 24 -51 42 -76 44 -276 141 -291 141 -6 0
-11 -8 -11 -17z m803 -566 c-3 -4 -6 -7 -7 -5 -1 2 -8 12 -16 22 -14 18 -14
18 7 6 12 -8 19 -18 16 -23z"/>
<path d="M2106 4195 c-107 -15 -250 -50 -362 -89 -98 -34 -105 -37 -98 -47 3
-5 -1 -6 -8 -4 -15 6 -150 -57 -219 -101 -24 -16 -57 -36 -74 -45 -16 -10 -29
-22 -27 -29 1 -6 -1 -9 -6 -6 -13 8 -35 -11 -39 -34 -2 -14 1 -19 9 -14 7 4 8
3 4 -5 -10 -15 -29 -3 -22 15 3 8 2 14 -3 14 -13 0 -32 -26 -24 -34 4 -4 1 -5
-7 -2 -32 12 -351 -308 -334 -335 4 -7 3 -9 -4 -6 -9 7 -82 -81 -82 -99 0 -4
-6 -15 -14 -23 -54 -61 -166 -303 -217 -466 -139 -451 -90 -975 132 -1405 83
-162 295 -440 322 -423 6 3 7 1 3 -5 -3 -6 8 -24 26 -41 26 -24 35 -28 48 -18
13 10 13 10 2 -5 -11 -14 -4 -24 60 -77 249 -210 557 -350 908 -413 113 -20
479 -17 600 5 199 36 436 118 569 196 29 17 54 31 56 31 17 0 104 64 98 72 -3
7 -1 8 6 4 14 -9 43 12 35 25 -3 5 1 7 8 4 7 -2 29 9 48 26 19 17 29 27 21 23
-9 -5 -12 -3 -7 5 4 6 11 9 16 6 4 -3 23 7 42 22 39 33 48 44 42 55 -3 4 1 5
8 3 25 -10 210 197 295 329 25 39 53 82 62 96 47 70 92 172 86 193 -4 15 -3
18 3 9 9 -13 15 -1 66 135 27 72 74 274 85 363 6 46 11 161 11 255 0 258 -35
444 -125 671 -52 128 -114 254 -141 285 -8 8 -14 19 -14 23 0 18 -83 125 -93
119 -5 -3 -7 -1 -4 5 25 40 -404 451 -445 426 -6 -4 -8 -3 -4 4 4 6 -23 28
-66 53 -210 123 -408 198 -648 244 -119 23 -453 29 -584 10z m-621 -335 c-3
-5 -12 -10 -18 -10 -7 0 -6 4 3 10 19 12 23 12 15 0z m-239 -78 c-4 -3 -14 2
-24 12 -16 18 -16 18 6 6 13 -6 21 -14 18 -18z m1307 11 c-7 -2 -19 -2 -25 0
-7 3 -2 5 12 5 14 0 19 -2 13 -5z m-1228 -43 c-3 -5 -12 -10 -18 -10 -7 0 -6
4 3 10 19 12 23 12 15 0z m1300 -16 c224 -43 449 -146 625 -289 510 -412 671
-1105 394 -1704 -84 -182 -262 -398 -433 -526 -166 -125 -395 -224 -604 -262
-123 -22 -349 -21 -482 2 -522 90 -963 484 -1110 990 -48 165 -58 253 -52 445
6 200 23 288 86 455 178 473 618 828 1106 894 44 6 94 13 110 15 55 8 278 -5
360 -20z m122 20 c-3 -3 -12 -4 -19 -1 -8 3 -5 6 6 6 11 1 17 -2 13 -5z
m-1557 -19 c0 -2 -6 -5 -13 -8 -8 -3 -14 1 -14 8 0 7 6 11 14 8 7 -3 13 -6 13
-8z m1597 9 c-3 -3 -12 -4 -19 -1 -8 3 -5 6 6 6 11 1 17 -2 13 -5z m-1784
-299 c-3 -9 -8 -14 -10 -11 -3 3 -2 9 2 15 9 16 15 13 8 -4z m2871 -51 c3 -8
2 -12 -4 -9 -6 3 -10 10 -10 16 0 14 7 11 14 -7z m-2570 -2043 c-2 -3 -12 3
-22 13 -16 17 -16 18 5 5 12 -7 20 -15 17 -18z m2496 -35 c0 -2 -8 -10 -17
-17 -16 -13 -17 -12 -4 4 13 16 21 21 21 13z m-2800 -180 c0 -2 -8 -10 -17
-17 -16 -13 -17 -12 -4 4 13 16 21 21 21 13z m2090 -60 c0 -2 -7 -7 -16 -10
-8 -3 -12 -2 -9 4 6 10 25 14 25 6z m150 -356 c-8 -5 -19 -10 -25 -10 -5 0 -3
5 5 10 8 5 20 10 25 10 6 0 3 -5 -5 -10z m-903 -26 c-3 -3 -12 -4 -19 -1 -8 3
-5 6 6 6 11 1 17 -2 13 -5z m-530 -10 c-3 -3 -12 -4 -19 -1 -8 3 -5 6 6 6 11
1 17 -2 13 -5z m736 -91 c-7 -2 -21 -2 -30 0 -10 3 -4 5 12 5 17 0 24 -2 18
-5z"/>
<path d="M2233 3653 l-53 -4 0 -1299 c0 -714 4 -1301 8 -1304 17 -10 213 -18
287 -11 l78 7 -7 1301 c-4 716 -9 1304 -12 1306 -6 6 -239 9 -301 4z"/>
<path d="M2690 2342 l0 -1281 31 11 c19 6 26 13 20 18 -7 4 1 7 16 7 34 0 249
106 246 121 -2 6 3 9 10 6 34 -13 336 239 324 270 -4 9 -1 13 6 11 7 -3 27 13
45 36 25 30 31 43 23 53 -8 9 -7 13 4 13 8 0 12 -5 9 -11 -3 -6 4 0 15 14 20
24 25 36 22 53 -1 5 3 6 8 3 17 -11 110 199 141 317 53 206 63 381 34 575 -35
235 -128 445 -276 623 -39 47 -53 58 -60 48 -7 -10 -8 -9 -4 6 3 15 -13 35
-71 85 -99 86 -194 152 -211 145 -7 -2 -10 0 -7 5 7 12 -244 136 -294 146
l-31 7 0 -1281z m245 1168 c3 -6 -1 -7 -9 -4 -18 7 -21 14 -7 14 6 0 13 -4 16
-10z m193 -627 c93 -142 138 -252 163 -398 14 -82 6 -245 -15 -324 -8 -30 -13
-58 -10 -63 3 -4 0 -8 -5 -8 -6 0 -11 -6 -11 -14 0 -8 -28 -70 -62 -138 -77
-150 -75 -146 -55 -129 25 20 21 7 -5 -15 -14 -13 -19 -14 -14 -4 4 8 -3 3
-16 -12 -13 -16 -27 -28 -30 -28 -4 0 -7 272 -8 605 0 352 3 605 8 605 5 0 32
-35 60 -77z"/>
<path d="M1920 3576 c-156 -67 -284 -141 -274 -157 3 -5 -1 -6 -9 -3 -8 3 -20
-2 -27 -11 -11 -13 -10 -15 6 -9 20 8 19 6 -10 -16 -13 -10 -17 -10 -12 -2 13
22 -6 12 -55 -29 -27 -22 -47 -45 -43 -50 3 -5 -1 -7 -8 -5 -14 5 -133 -122
-133 -141 0 -6 -4 -15 -9 -20 -5 -5 -6 -3 -2 5 4 6 5 12 1 12 -10 0 -96 -139
-139 -228 -60 -120 -71 -158 -54 -180 12 -15 11 -16 -4 -4 -14 12 -18 6 -31
-55 -32 -140 -37 -191 -37 -345 l0 -158 305 0 305 0 0 -243 c0 -134 -3 -247
-7 -251 -13 -13 -113 109 -153 187 -22 43 -40 85 -40 93 0 12 -31 14 -180 14
-153 0 -180 -2 -180 -15 0 -24 62 -155 70 -150 5 3 6 -4 3 -14 -6 -24 46 -123
60 -114 6 3 7 1 3 -6 -10 -15 53 -113 67 -104 6 3 7 1 3 -6 -10 -15 75 -122
92 -116 7 3 10 0 7 -5 -8 -13 6 -29 96 -105 121 -103 333 -222 441 -248 14 -4
33 -10 42 -13 15 -6 16 60 16 720 l0 726 -305 0 c-254 0 -305 2 -305 14 0 30
52 193 84 260 35 77 92 157 138 195 23 20 26 26 16 40 -11 14 -11 14 3 4 9 -7
19 -10 22 -6 4 3 7 -53 7 -125 l0 -132 168 0 167 0 0 415 c0 363 -2 415 -15
414 -8 0 -49 -15 -90 -33z m87 -1 c0 -8 -4 -12 -9 -9 -5 3 -6 10 -3 15 9 13
12 11 12 -6z m-379 -559 c-10 -7 -14 -17 -10 -21 4 -5 1 -5 -7 0 -12 7 -11 10
4 22 24 17 36 17 13 -1z m217 -1846 c3 -5 1 -10 -4 -10 -6 0 -11 5 -11 10 0 6
2 10 4 10 3 0 8 -4 11 -10z"/>
<path d="M637 1348 c-12 -9 -16 -23 -13 -47 2 -23 -2 -39 -15 -52 -19 -19 -6
-27 17 -11 15 9 21 53 11 70 -5 7 -4 12 2 12 6 0 11 6 11 14 0 8 6 17 13 19 6
3 7 6 1 6 -5 1 -18 -5 -27 -11z"/>
<path d="M550 1299 c0 -5 5 -7 10 -4 6 3 10 8 10 11 0 2 -4 4 -10 4 -5 0 -10
-5 -10 -11z"/>
<path d="M4051 1278 c6 -11 13 -18 15 -15 3 2 29 -1 59 -8 45 -11 55 -11 59 1
6 15 -2 17 -91 32 -50 9 -52 8 -42 -10z"/>
<path d="M672 1230 c-22 -9 -42 -47 -42 -78 1 -10 9 -3 20 18 11 19 19 31 20
27 0 -5 10 -1 22 7 12 9 32 16 43 16 16 0 17 2 5 10 -18 12 -38 12 -68 0z"/>
<path d="M752 1148 c-28 -33 -67 -45 -96 -29 -17 10 -17 9 3 -9 13 -11 34 -20
47 -20 32 0 77 41 72 66 -3 19 -5 19 -26 -8z"/>
<path d="M4044 1151 c5 -8 -11 -11 -52 -11 -37 0 -64 -5 -70 -13 -9 -11 5 -12
76 -9 48 2 88 5 90 7 1 1 -9 10 -24 20 -15 9 -23 12 -20 6z"/>
<path d="M794 1091 c3 -5 -2 -8 -12 -7 -9 0 -16 -5 -14 -12 1 -8 -2 -11 -8 -7
-15 9 -32 -43 -20 -63 9 -16 9 -15 10 1 0 26 54 77 80 77 12 0 18 5 15 10 -3
6 -17 10 -31 10 -14 0 -23 -4 -20 -9z"/>
<path d="M4020 1039 c0 -5 5 -7 10 -4 6 3 10 8 10 11 0 2 -4 4 -10 4 -5 0 -10
-5 -10 -11z"/>
<path d="M880 1024 c0 -8 5 -12 10 -9 6 4 8 11 5 16 -9 14 -15 11 -15 -7z"/>
<path d="M3857 1023 c11 -27 118 -59 127 -37 6 15 -47 30 -65 18 -7 -4 -9 -3
-6 3 3 5 -9 15 -28 20 -28 9 -33 8 -28 -4z"/>
<path d="M930 978 c0 -6 -3 -8 -7 -4 -10 10 -92 -75 -86 -90 3 -10 9 -9 23 4
11 8 16 20 13 25 -3 6 -1 7 4 4 6 -4 17 1 24 10 12 14 12 16 0 8 -9 -5 -12 -4
-7 3 4 6 13 9 20 6 7 -3 16 2 20 11 3 10 11 13 18 9 9 -5 9 -3 -1 9 -16 20
-21 21 -21 5z"/>
<path d="M3785 960 c-3 -5 1 -10 10 -10 9 0 13 5 10 10 -3 6 -8 10 -10 10 -2
0 -7 -4 -10 -10z"/>
<path d="M979 917 c-1 -7 0 -16 1 -22 1 -5 -2 -7 -6 -2 -4 4 -25 -9 -46 -30
-28 -27 -35 -40 -27 -49 8 -10 16 -7 33 13 13 15 28 23 35 19 6 -4 9 -12 6
-17 -10 -15 2 -10 16 8 8 10 9 14 2 10 -22 -14 -25 14 -4 37 25 27 26 32 6 40
-8 3 -16 0 -16 -7z"/>
<path d="M3720 885 c0 -51 51 -92 95 -75 29 11 34 20 7 13 -21 -5 -82 41 -82
63 0 8 -4 14 -10 14 -5 0 -10 -7 -10 -15z"/>
<path d="M1041 854 c0 -11 3 -14 6 -6 3 7 2 16 -1 19 -3 4 -6 -2 -5 -13z"/>
<path d="M3645 840 c-7 -11 0 -22 52 -82 23 -27 34 -33 41 -25 7 8 -5 28 -38
65 -30 33 -51 49 -55 42z"/>
<path d="M1054 779 c-37 -47 -46 -66 -34 -71 12 -6 81 82 74 93 -4 8 -3 9 4 5
7 -4 12 -3 12 3 0 26 -20 15 -56 -30z"/>
<path d="M3590 791 c0 -6 4 -13 10 -16 6 -3 7 1 4 9 -7 18 -14 21 -14 7z"/>
<path d="M942 774 c9 -9 21 -15 27 -13 6 2 -2 10 -17 17 -25 11 -25 11 -10 -4z"/>
<path d="M1140 772 c0 -34 -17 -61 -53 -82 l-32 -20 32 0 c52 0 91 67 63 110
-8 12 -10 10 -10 -8z"/>
<path d="M3510 735 c-14 -17 13 -28 30 -12 7 7 10 7 7 1 -4 -6 19 -16 58 -25
56 -13 63 -13 55 0 -4 8 -14 16 -21 17 -8 2 -37 9 -66 17 -42 12 -54 13 -63 2z"/>
<path d="M1240 687 c-15 -12 -19 -26 -22 -82 -1 -16 -6 -33 -11 -36 -5 -3 -2
-9 6 -12 12 -5 19 9 32 65 9 39 14 72 13 73 -2 2 -10 -2 -18 -8z"/>
<path d="M3445 690 c-10 -15 58 -120 75 -117 17 3 16 7 -20 64 -15 23 -31 39
-35 35 -5 -4 -5 1 -2 11 7 18 -8 24 -18 7z"/>
<path d="M3373 643 c-7 -2 -13 -9 -13 -15 0 -6 7 -7 16 -4 8 3 13 2 9 -3 -8
-14 6 -42 18 -34 5 3 7 2 4 -4 -9 -14 15 -63 30 -63 18 0 24 16 10 28 -6 6
-21 31 -32 56 -11 25 -22 45 -25 45 -3 0 -11 -3 -17 -6z"/>
<path d="M1344 623 c4 -10 4 -14 0 -10 -8 7 -64 -74 -64 -92 0 -5 8 -12 17
-15 10 -4 15 -4 11 -1 -3 3 9 31 28 62 32 53 35 73 12 73 -5 0 -7 -8 -4 -17z"/>
<path d="M1402 594 c1 -10 -2 -30 -6 -43 -6 -18 -5 -22 5 -16 8 5 11 4 6 -1
-5 -5 -12 -9 -16 -9 -3 0 -17 -10 -31 -22 -34 -32 -1 -31 36 0 29 25 38 77 16
99 -8 8 -11 6 -10 -8z"/>
<path d="M3260 580 c-13 -8 -13 -10 -1 -10 8 0 26 -11 40 -24 15 -13 38 -31
53 -40 25 -17 26 -17 21 2 -2 11 -24 34 -48 51 -49 35 -45 34 -65 21z"/>
<path d="M3193 533 c9 -2 15 -8 12 -13 -3 -5 0 -12 6 -16 8 -5 9 -3 4 7 -5 8
-4 11 1 6 9 -9 10 -12 13 -72 2 -38 2 -39 17 -20 29 38 -8 117 -55 114 -13 -1
-13 -2 2 -6z"/>
<path d="M1517 475 c-32 -65 -32 -71 -10 -79 10 -4 14 -4 11 0 -4 3 6 33 22
65 34 67 35 69 17 69 -7 0 -25 -25 -40 -55z"/>
<path d="M3122 508 c-7 -7 -12 -27 -12 -44 0 -39 39 -75 79 -73 l26 1 -25 7
c-29 8 -63 66 -57 99 5 26 5 26 -11 10z"/>
<path d="M1616 493 c-11 -12 -6 -25 8 -20 9 4 12 0 10 -11 -2 -9 4 -44 15 -76
15 -48 20 -56 25 -39 8 25 -3 75 -14 68 -5 -3 -6 5 -2 17 3 13 1 19 -5 15 -6
-4 -8 3 -6 17 5 22 -17 42 -31 29z"/>
<path d="M3030 455 c7 -8 15 -13 19 -11 7 4 9 -6 12 -64 2 -23 5 -27 16 -19
32 27 0 109 -43 109 -13 0 -14 -3 -4 -15z"/>
<path d="M3310 460 c0 -5 5 -10 11 -10 5 0 7 5 4 10 -3 6 -8 10 -11 10 -2 0
-4 -4 -4 -10z"/>
<path d="M2958 454 c-10 -10 36 -134 50 -134 14 0 13 7 -16 93 -16 45 -22 53
-34 41z"/>
<path d="M1763 436 c-1 -6 -8 -36 -16 -66 -10 -40 -11 -57 -3 -62 6 -4 12 -1
14 9 2 8 12 39 22 68 17 50 17 53 1 58 -10 2 -18 -1 -18 -7z"/>
<path d="M1832 411 c16 -26 2 -87 -25 -106 -18 -13 -19 -15 -4 -15 22 0 67 43
67 64 0 23 -21 64 -36 70 -11 4 -11 1 -2 -13z"/>
<path d="M1916 385 c-3 -8 -8 -37 -12 -64 -6 -43 -4 -50 14 -60 29 -16 36 -14
18 5 -11 11 -14 24 -9 42 4 15 7 38 8 52 0 14 5 28 10 32 6 5 3 8 -6 8 -9 0
-19 -7 -23 -15z"/>
<path d="M2750 395 c0 -26 35 -135 42 -133 13 5 13 9 -2 78 -8 38 -18 60 -26
60 -8 0 -14 -2 -14 -5z"/>
<path d="M2064 348 c-5 -18 1 -29 31 -55 24 -21 35 -38 32 -48 -9 -21 0 -19
12 4 8 14 6 25 -10 46 -13 15 -27 24 -36 21 -8 -3 -11 -2 -8 3 3 5 1 12 -4 16
-6 3 -8 12 -4 20 3 8 3 15 0 15 -3 0 -9 -10 -13 -22z"/>
<path d="M2523 363 c-8 -3 -13 -22 -13 -46 0 -55 9 -84 27 -91 7 -3 12 -2 9 3
-3 4 -6 38 -7 74 -1 37 -2 67 -3 66 -1 0 -7 -3 -13 -6z"/>
<path d="M2636 353 c-4 -9 -2 -19 3 -22 5 -4 20 -25 33 -48 17 -29 28 -39 37
-34 10 6 4 22 -24 65 -21 31 -39 56 -40 56 -2 0 -6 -8 -9 -17z"/>
<path d="M2236 348 c-3 -7 -7 -39 -9 -70 -4 -43 -2 -58 7 -58 13 0 26 61 26
116 0 25 -18 33 -24 12z"/>
<path d="M2352 351 c-11 -6 -12 -24 -7 -75 4 -36 11 -66 16 -66 5 0 9 34 9 75
0 41 -1 75 -2 75 -2 0 -9 -4 -16 -9z"/>
<path d="M2406 352 c17 -11 22 -35 12 -54 -10 -20 2 -24 20 -6 18 18 14 46 -7
58 -22 11 -42 14 -25 2z"/>
<path d="M2866 295 c-3 -8 -1 -15 4 -15 6 0 10 7 10 15 0 8 -2 15 -4 15 -2 0
-6 -7 -10 -15z"/>
<path d="M2390 285 c0 -17 46 -65 63 -65 16 0 17 2 7 15 -17 20 -70 58 -70 50z"/>
</g>
</svg>
