<?xml version="1.0" standalone="no"?>
<!DOCTYPE svg PUBLIC "-//W3C//DTD SVG 20010904//EN"
 "http://www.w3.org/TR/2001/REC-SVG-20010904/DTD/svg10.dtd">
<svg version="1.0" xmlns="http://www.w3.org/2000/svg"
 width="1145.000000pt" height="1145.000000pt" viewBox="0 0 1145.000000 1145.000000"
 preserveAspectRatio="xMidYMid meet">

<g transform="translate(0.000000,1145.000000) scale(0.100000,-0.100000)"
fill="#000000" stroke="none">
<path d="M6102 10530 c-18 -11 -40 -35 -49 -54 -13 -29 -23 -36 -57 -41 -150
-23 -246 -109 -246 -221 0 -46 4 -55 33 -81 19 -16 58 -38 88 -47 62 -21 97
-43 157 -100 77 -73 99 -145 68 -220 -13 -32 -77 -86 -102 -86 -7 0 -15 24
-19 54 -7 59 -41 120 -88 156 l-27 22 22 30 22 31 -33 -6 c-59 -12 -109 24
-199 143 -29 37 -74 62 -127 69 l-40 6 4 103 c2 56 1 102 -2 102 -3 0 -13 -22
-22 -49 -8 -26 -31 -66 -49 -87 -37 -42 -103 -87 -93 -63 26 63 30 91 18 127
-14 45 -41 82 -48 65 -11 -29 -76 -120 -94 -131 -18 -11 -19 -9 -19 32 0 33
-6 52 -24 73 l-24 28 -11 -42 c-15 -54 -39 -82 -78 -89 -31 -6 -33 -5 -33 24
0 17 -5 43 -10 58 l-11 28 -23 -50 c-29 -62 -80 -107 -213 -187 -66 -40 -107
-71 -115 -89 -14 -31 -44 -39 -120 -31 -36 4 -83 -1 -133 -12 -42 -9 -79 -14
-82 -11 -15 15 55 90 138 147 52 37 89 82 77 94 -3 3 -22 -2 -42 -10 -21 -9
-43 -14 -48 -13 -6 2 8 10 31 16 22 7 59 30 81 51 35 33 40 43 40 82 0 34 -3
41 -11 29 -8 -11 -12 -12 -16 -2 -9 23 -18 12 -19 -25 0 -29 -8 -43 -34 -65
-19 -15 -39 -28 -45 -28 -5 0 -34 -11 -62 -25 -29 -13 -53 -21 -53 -16 0 15
71 90 91 96 28 9 69 46 69 62 0 37 -136 70 -239 58 -47 -6 -61 -13 -108 -58
-74 -70 -162 -188 -185 -250 -23 -60 -27 -174 -8 -232 18 -57 83 -140 133
-169 60 -36 149 -56 244 -56 75 0 83 -2 94 -22 6 -13 22 -35 35 -49 l24 -25
-24 -23 c-27 -25 -117 -51 -181 -51 -100 0 -234 -53 -312 -124 -57 -52 -83
-107 -104 -219 -24 -129 26 -265 140 -377 63 -63 86 -80 216 -160 72 -44 96
-78 102 -142 4 -44 2 -53 -23 -79 -15 -16 -37 -29 -48 -29 -41 0 -126 -76
-111 -99 3 -5 -4 -12 -14 -16 -26 -8 -73 -64 -67 -80 2 -7 -7 -18 -20 -24 -30
-13 -47 -56 -39 -97 4 -21 -4 -61 -24 -120 -16 -49 -39 -142 -50 -207 -23
-138 -44 -187 -84 -200 -61 -20 -109 51 -122 178 -17 171 -65 346 -132 480
-34 69 -52 94 -76 106 -66 32 -108 140 -127 319 -26 238 -32 289 -46 348 -8
35 -25 87 -38 115 -14 29 -28 69 -31 90 -7 35 -52 87 -76 87 -5 0 -9 9 -9 20
0 13 -12 28 -30 38 -16 9 -32 27 -35 40 -3 12 -17 27 -30 32 -14 5 -25 13 -25
18 0 13 -82 44 -91 34 -19 -19 -14 -165 6 -186 8 -8 15 -30 15 -49 0 -19 7
-40 15 -47 8 -7 15 -23 15 -35 0 -37 10 -55 42 -71 58 -30 76 -112 88 -389 13
-296 39 -399 134 -526 77 -102 106 -234 106 -489 1 -152 18 -267 49 -328 23
-46 132 -132 216 -171 59 -28 162 -38 222 -22 71 19 154 83 199 153 95 144
158 310 170 447 6 59 9 68 32 79 14 7 40 12 57 12 35 0 65 26 65 56 1 29 41
71 75 78 17 4 67 8 112 11 82 4 83 4 89 -21 4 -16 0 -40 -10 -61 -12 -25 -13
-33 -4 -30 7 3 37 13 67 22 49 16 59 16 110 2 131 -36 185 -54 189 -65 8 -24
23 -10 53 49 30 61 69 109 87 109 6 0 13 -15 16 -33 4 -19 26 -65 50 -103 57
-90 80 -168 73 -252 l-5 -64 33 6 32 6 -1 -62 c-1 -89 10 -129 51 -189 19 -29
44 -71 54 -93 23 -53 42 -162 32 -180 -22 -40 -174 -133 -269 -165 -53 -17
-86 -21 -182 -21 -13 0 -32 -5 -44 -11 -33 -18 -127 -111 -134 -133 -11 -34
-66 -82 -126 -109 -31 -14 -76 -43 -100 -65 -24 -22 -59 -47 -78 -57 -19 -10
-63 -45 -96 -79 -34 -33 -81 -77 -105 -97 -24 -20 -51 -49 -59 -64 -8 -16 -43
-56 -77 -90 -42 -42 -65 -74 -72 -101 -6 -23 -24 -52 -41 -67 -30 -27 -70 -95
-70 -120 0 -7 -20 -52 -45 -100 -25 -48 -45 -101 -45 -116 0 -16 -12 -54 -26
-86 -20 -43 -25 -67 -21 -98 3 -24 0 -54 -8 -74 -9 -21 -14 -84 -16 -185 -4
-241 -1 -305 16 -338 8 -16 15 -55 15 -87 0 -44 6 -68 25 -98 13 -22 25 -54
25 -71 0 -39 17 -91 42 -126 10 -14 18 -31 18 -37 0 -29 46 -129 70 -151 15
-14 35 -49 44 -78 13 -37 29 -62 56 -83 21 -17 41 -41 44 -54 8 -31 80 -122
103 -129 10 -4 36 -31 58 -62 22 -31 56 -64 76 -74 19 -10 52 -39 72 -64 21
-25 60 -56 90 -71 28 -14 75 -44 102 -66 28 -21 68 -45 90 -51 22 -6 56 -24
76 -40 45 -34 80 -48 123 -48 19 0 39 -7 46 -15 17 -20 114 -55 154 -55 18 0
61 -12 97 -26 50 -21 74 -25 112 -21 28 4 62 1 85 -7 52 -18 336 -20 371 -2
17 9 47 12 82 9 43 -4 67 0 104 16 26 11 57 21 69 21 39 0 140 30 167 50 15
10 52 25 83 34 31 8 69 23 83 33 39 27 44 30 103 56 30 13 69 37 85 53 17 16
53 42 80 58 28 15 73 50 100 78 28 27 70 64 95 82 25 17 54 47 65 65 11 19 45
58 76 88 34 32 66 74 78 102 11 26 28 54 36 61 30 25 73 95 86 140 7 25 20 54
30 65 28 33 59 102 59 133 0 16 12 51 27 78 20 35 27 64 29 109 1 34 8 73 15
86 43 80 17 640 -34 720 -8 13 -18 50 -22 81 -4 35 -16 71 -30 92 -13 20 -27
52 -31 73 -8 48 -36 102 -63 127 -12 11 -21 25 -21 33 0 25 -60 132 -80 143
-11 6 -34 38 -50 70 -21 41 -43 68 -71 87 -22 15 -49 44 -60 64 -10 21 -36 51
-56 66 -20 15 -64 55 -98 89 -33 33 -76 67 -95 74 -19 7 -56 33 -81 56 -26 24
-66 48 -90 55 -24 8 -53 22 -64 32 -25 24 -134 77 -158 77 -30 0 -97 39 -97
57 0 27 -47 98 -75 113 -15 8 -33 27 -41 42 -8 15 -26 35 -40 44 -22 15 -32
15 -78 5 -130 -29 -236 30 -236 131 0 34 2 37 33 40 28 3 32 6 29 28 -6 52 -2
217 6 265 l9 50 17 -40 c139 -317 153 -343 208 -371 20 -10 49 -15 87 -12 45
2 62 -1 75 -15 24 -24 59 -31 122 -23 38 4 69 1 103 -10 42 -13 52 -13 82 -1
32 13 37 12 79 -15 61 -39 131 -58 212 -58 74 0 134 19 145 45 9 24 -16 69
-84 155 -33 41 -231 299 -441 572 l-382 497 0 97 0 98 41 -39 c43 -41 89 -124
89 -160 0 -30 28 -65 45 -59 9 4 15 20 15 41 0 31 2 34 16 22 20 -17 43 -61
60 -119 8 -26 23 -55 35 -66 21 -19 21 -19 48 14 l27 32 23 -24 c12 -13 33
-59 47 -101 13 -42 29 -86 35 -96 15 -29 47 -23 68 11 l18 31 31 -48 c30 -47
51 -113 72 -224 6 -31 17 -65 25 -75 15 -18 16 -18 35 5 11 13 23 35 26 50 12
56 14 58 40 26 38 -47 55 -111 63 -238 7 -99 12 -122 29 -139 l20 -20 15 23
c8 13 20 58 26 100 14 102 27 135 46 119 8 -6 22 -33 32 -58 18 -47 20 -89 13
-277 -3 -106 9 -148 42 -143 27 4 40 37 62 158 24 131 67 175 86 88 20 -93 23
-155 11 -235 -14 -89 -5 -133 28 -133 37 0 58 40 99 185 23 80 53 166 66 192
64 124 76 153 92 228 13 60 17 129 18 273 l1 193 25 5 c64 13 97 26 125 48
l30 24 -36 15 c-56 23 -96 81 -130 187 -22 68 -31 113 -30 160 1 137 -21 481
-40 620 -34 258 -72 376 -148 461 -37 42 -38 45 -25 75 8 18 17 57 20 87 l6
54 -54 -5 c-62 -5 -120 16 -185 65 -58 44 -179 188 -229 273 -134 225 -286
376 -499 499 -153 88 -308 117 -383 71z m-1629 -129 c48 -19 32 -52 -28 -57
-22 -1 -47 -17 -87 -56 -64 -63 -135 -168 -114 -168 40 0 175 23 203 35 46 19
41 12 -16 -25 -51 -32 -121 -102 -121 -120 0 -5 -24 -21 -52 -36 -89 -44 -130
-97 -144 -184 l-7 -41 -24 23 c-83 77 -114 174 -93 289 9 56 22 86 62 145 59
89 166 200 199 207 37 8 191 0 222 -12z m-43 -74 c0 -2 -10 -12 -22 -23 l-23
-19 19 23 c18 21 26 27 26 19z m-83 -95 c-12 -29 -61 -92 -72 -92 -10 0 26 64
53 93 32 34 34 34 19 -1z m88 -61 c-11 -5 -36 -12 -55 -16 -33 -7 -34 -6 -15
9 11 8 36 15 55 15 28 0 31 -2 15 -8z m600 -53 c-13 -59 -46 -125 -77 -154
l-31 -29 33 43 c27 33 34 54 38 100 4 52 14 71 35 72 5 0 5 -15 2 -32z m-55
18 c0 -2 -12 -12 -27 -21 l-28 -18 19 21 c17 20 36 29 36 18z m6 -58 c-9 -53
-36 -98 -74 -120 -41 -24 -94 -23 -117 2 -23 26 -13 37 20 22 36 -17 90 -15
105 3 8 9 10 29 7 53 -6 33 -3 39 26 59 18 12 34 22 36 22 2 1 1 -18 -3 -41z
m-96 -63 c0 -19 -20 -29 -32 -17 -8 8 -7 16 2 26 14 17 30 12 30 -9z m-199
-45 c25 -16 66 -49 93 -74 51 -49 51 -49 149 -66 43 -8 67 -17 67 -26 0 -7 30
-30 66 -50 65 -36 66 -38 61 -71 -9 -55 -50 -100 -105 -117 -26 -7 -48 -13
-48 -12 -1 0 3 24 9 53 8 38 17 54 34 62 31 14 29 45 -4 69 -93 65 -355 49
-413 -25 -14 -19 -20 -41 -20 -81 l0 -54 -32 6 c-42 8 -85 55 -94 101 -12 63
13 123 78 188 54 55 60 58 95 52 35 -5 36 -4 11 6 -40 15 -38 63 3 68 3 1 26
-12 50 -29z m73 16 c-7 -19 52 -66 83 -66 33 0 27 -5 -13 -13 -25 -5 -39 1
-77 32 l-45 38 26 10 c15 6 28 11 29 12 1 1 0 -5 -3 -13z m-474 -22 c0 -3 -10
-28 -21 -55 -12 -27 -19 -52 -16 -55 3 -4 30 14 60 40 30 25 57 46 61 46 3 0
6 -21 6 -47 l1 -48 61 65 60 65 -5 -55 c-6 -57 -42 -138 -79 -177 -26 -27 -34
-23 -42 22 -4 19 -10 37 -15 39 -5 3 -30 -10 -57 -29 l-49 -35 -7 41 c-4 23
-9 44 -12 46 -3 3 -25 -9 -50 -26 -52 -36 -56 -37 -56 -13 0 41 51 121 97 151
45 30 63 37 63 25z m645 -213 c26 -5 30 -11 33 -45 4 -52 -6 -59 -61 -45 -33
9 -58 10 -90 3 l-44 -10 -12 40 c-6 23 -14 47 -17 54 -4 9 14 12 78 11 46 -1
97 -4 113 -8z m-199 -23 c7 -22 5 -23 -63 -79 -19 -16 -22 -15 -47 5 -35 28
-26 52 28 77 54 24 73 24 82 -3z m282 -10 c17 -17 15 -26 -8 -38 -18 -10 -20
-8 -20 20 0 32 8 38 28 18z m171 -73 c24 -46 24 -49 7 -59 -45 -27 -69 -52
-97 -100 -16 -29 -41 -59 -55 -67 -41 -21 -125 -119 -150 -174 -21 -44 -24
-66 -24 -175 -1 -144 -18 -258 -49 -318 -23 -46 -21 -62 10 -62 16 0 19 -7 19
-46 0 -25 11 -79 25 -119 23 -71 24 -76 9 -117 -9 -24 -16 -70 -16 -103 -1
-58 -1 -59 -14 -30 -7 17 -13 38 -14 48 0 21 -13 22 -30 2 -11 -13 -18 -9 -51
28 l-38 42 -1 95 c0 106 -24 189 -75 270 -39 62 -137 162 -220 225 -91 68
-101 81 -116 138 -11 40 -11 49 2 62 8 8 105 46 217 85 111 38 225 81 253 96
58 29 144 105 164 145 10 19 25 28 52 33 74 12 143 77 143 134 0 37 22 22 49
-33z m-259 -11 c5 -5 -11 -34 -41 -71 l-49 -63 -36 17 c-28 14 -34 22 -30 38
3 11 6 34 6 52 0 21 6 33 18 37 26 7 122 1 132 -10z m-300 -3 c0 -10 -30 -24
-37 -17 -3 3 -2 9 2 15 8 13 35 15 35 2z m81 -52 l19 -28 -45 -31 c-44 -30
-45 -32 -45 -87 l0 -56 -69 5 -69 5 -13 -46 c-7 -25 -13 -47 -14 -49 -1 -1
-32 9 -69 23 -36 14 -70 25 -75 25 -5 0 -15 -26 -23 -57 l-14 -58 -72 2 c-40
1 -72 -1 -72 -5 0 -4 7 -29 15 -56 8 -27 15 -55 15 -62 0 -7 -27 -25 -61 -40
l-60 -27 40 -41 41 -42 -27 -27 -28 -27 38 -31 c37 -30 37 -32 22 -56 -15 -22
-15 -27 -1 -48 20 -31 20 -35 -3 -35 -14 0 -21 8 -23 27 -2 21 -10 29 -37 37
l-33 10 6 56 7 57 -48 13 c-26 7 -51 16 -55 19 -4 3 8 30 26 59 l34 53 -34 86
c-19 48 -34 88 -34 89 0 2 20 5 45 8 25 3 65 8 88 11 l44 6 12 84 c7 47 14 85
16 85 1 0 33 -11 69 -25 37 -14 70 -25 75 -25 5 0 21 20 35 45 15 25 28 45 30
45 2 0 29 -11 60 -25 31 -14 59 -25 61 -25 3 0 5 20 5 45 l0 45 66 0 c64 0 66
1 59 23 -18 59 -17 62 17 79 36 17 46 14 79 -33z m84 -79 c18 -7 25 -15 21
-25 -10 -28 -80 -115 -92 -115 -27 0 -23 38 8 93 18 31 34 56 35 57 1 0 14 -5
28 -10z m-1725 -106 c12 -12 11 -14 -12 -14 -14 0 -31 -7 -38 -15 -16 -19 -33
-9 -21 13 4 9 6 23 3 31 -6 18 46 7 68 -15z m54 -40 c23 -22 20 -31 -11 -39
-16 -3 -43 -21 -61 -38 -27 -26 -34 -29 -42 -17 -5 8 -10 27 -10 42 0 53 87
90 124 52z m1568 1 c0 -5 -15 -16 -34 -23 l-33 -14 24 26 c24 26 42 30 43 11z
m-1528 -56 c32 -15 41 -38 18 -46 -61 -21 -103 -45 -117 -67 -10 -14 -22 -23
-27 -20 -14 9 0 75 20 98 13 14 61 42 79 46 1 0 13 -5 27 -11z m94 -95 c12
-14 22 -36 22 -48 0 -22 -3 -23 -45 -19 -39 5 -47 2 -75 -25 -16 -17 -30 -38
-30 -46 0 -22 -22 -20 -48 4 -49 46 -16 127 63 155 50 18 83 12 113 -21z
m1032 -53 c0 -18 -56 -68 -65 -59 -5 4 53 78 61 78 2 0 4 -9 4 -19z m26 -85
l22 -43 -38 -17 c-21 -9 -59 -35 -86 -59 l-47 -42 6 46 c9 66 25 96 71 129 22
17 42 30 45 30 4 -1 16 -20 27 -44z m77 -78 c18 -12 51 -37 74 -56 l43 -34
-78 -73 c-46 -43 -93 -99 -116 -138 -25 -43 -43 -64 -52 -60 -16 6 -71 145
-84 211 -7 41 -6 50 13 71 28 31 136 101 155 101 7 0 28 -10 45 -22z m214
-205 c17 -25 29 -12 -162 -180 l-81 -71 -32 38 c-18 21 -32 43 -32 48 0 26
109 168 163 214 l61 51 34 -39 c19 -22 41 -49 49 -61z m-387 -126 c0 -4 -11 0
-25 9 -14 9 -25 26 -25 38 0 19 2 18 25 -9 13 -16 24 -33 25 -38z m560 -384
c0 -21 6 -50 14 -64 13 -26 13 -27 -25 -38 -21 -6 -41 -15 -43 -20 -6 -10 42
-81 87 -128 17 -18 26 -33 20 -33 -6 0 -34 -15 -61 -34 -49 -33 -51 -33 -54
-12 -3 20 -10 21 -111 26 -90 4 -111 8 -122 23 -20 27 -8 47 29 47 50 0 145
26 166 45 11 10 20 28 20 39 0 19 -1 19 -13 -4 -16 -33 -47 -47 -135 -61 -80
-13 -91 -9 -119 44 -14 29 -14 31 16 60 28 29 35 31 107 32 91 0 101 9 136
117 l23 70 32 -36 c25 -27 33 -45 33 -73z m-502 50 c-12 -44 -5 -85 22 -123
11 -15 20 -37 20 -47 0 -11 9 -28 20 -38 17 -15 24 -16 45 -7 21 10 26 9 36
-10 9 -17 9 -23 -1 -26 -6 -2 -27 -17 -45 -33 -29 -26 -36 -28 -63 -18 -40 14
-61 49 -103 172 l-34 99 30 24 c28 23 61 42 77 43 3 1 2 -15 -4 -36z m-744
-90 c-4 -16 -13 -45 -20 -65 l-13 -38 68 -38 68 -37 -28 -75 c-33 -84 -36 -73
37 -126 l28 -20 -39 -69 -38 -68 29 -26 c16 -14 41 -35 56 -46 l26 -20 -25
-84 c-13 -46 -22 -85 -20 -88 3 -2 28 5 56 17 28 11 54 20 56 20 3 0 5 -16 5
-35 0 -19 4 -35 8 -35 5 0 26 25 47 55 21 31 46 60 57 66 18 9 18 8 -1 -41
-25 -64 -62 -127 -97 -165 -28 -29 -29 -29 -32 -9 l-3 22 -62 -19 c-34 -10
-65 -19 -69 -19 -4 0 -8 32 -10 72 l-3 71 -65 28 c-36 16 -68 30 -72 31 -4 2
9 47 29 102 l37 99 -47 39 -46 40 41 56 c23 31 45 62 50 69 7 9 -6 20 -46 40
-31 15 -56 31 -56 36 0 5 7 36 16 70 18 70 17 72 -63 82 -29 3 -53 10 -53 15
0 17 93 89 133 104 62 22 68 20 61 -11z m918 10 c27 -24 23 -36 -33 -88 -48
-45 -51 -46 -70 -29 -27 24 -24 35 24 86 47 52 53 55 79 31z m-258 -55 c38
-107 67 -158 99 -174 18 -9 33 -18 35 -19 2 -1 -7 -19 -19 -39 -22 -38 -24
-38 -87 -15 -16 6 -38 39 -72 111 -28 57 -50 112 -50 122 0 24 38 66 60 66 10
0 22 -18 34 -52z m-59 -139 c54 -112 58 -116 107 -131 26 -8 35 -15 28 -22 -5
-5 -10 -19 -10 -29 0 -17 -5 -19 -42 -14 -54 7 -84 31 -132 101 -57 85 -62
186 -9 186 7 0 33 -40 58 -91z m323 -10 c1 -8 -14 -27 -33 -42 -29 -23 -39
-26 -50 -17 -19 16 -4 44 33 64 31 17 46 16 50 -5z m-93 -69 c9 -15 -17 -70
-33 -70 -21 0 -25 29 -8 55 18 27 31 31 41 15z m65 -20 c12 -8 9 -10 -12 -10
-16 0 -28 5 -28 10 0 13 20 13 40 0z m-114 -60 c16 -16 -7 -80 -28 -80 -21 0
-25 39 -8 71 12 21 21 24 36 9z m84 -16 c0 -2 -14 -4 -31 -4 -16 0 -28 4 -25
9 5 8 56 3 56 -5z m-322 -311 c64 -36 119 -68 120 -69 2 -1 1 -12 -3 -23 -5
-16 -15 -21 -40 -21 -49 0 -151 34 -190 65 -29 22 -34 31 -29 53 10 47 15 62
20 62 3 0 57 -30 122 -67z m-3 -118 c32 -8 68 -15 78 -15 24 0 17 -22 -36
-110 l-40 -67 -52 12 c-57 13 -108 41 -143 78 l-22 23 31 76 32 75 46 -28 c25
-16 73 -35 106 -44z m-209 -110 c10 -24 91 -72 145 -85 l50 -12 -27 -30 c-16
-16 -52 -40 -80 -54 l-52 -25 -44 21 c-42 22 -108 77 -108 91 0 10 93 108 103
108 4 1 10 -6 13 -14z m-26 -198 c25 -18 24 -18 -35 -12 -70 7 -159 44 -175
74 -12 23 -14 22 55 37 38 9 41 7 85 -37 25 -25 56 -53 70 -62z m-230 73 c0
-5 -2 -10 -4 -10 -3 0 -8 5 -11 10 -3 6 -1 10 4 10 6 0 11 -4 11 -10z m2136
-90 c31 -1 49 -22 50 -60 1 -19 5 -52 9 -72 7 -34 5 -38 -18 -47 -14 -5 -28
-15 -32 -21 -5 -8 -11 -6 -19 5 -10 14 -12 11 -12 -19 l0 -35 28 30 c16 16 35
29 43 29 8 0 18 7 23 16 8 14 10 14 21 0 11 -13 11 -19 0 -32 -10 -13 -10 -17
2 -25 18 -12 56 -12 64 0 3 6 -7 9 -21 8 -15 -1 -29 4 -32 12 -4 11 3 12 34 6
22 -5 60 -11 86 -14 l46 -6 -28 -33 c-26 -32 -28 -32 -45 -15 -17 17 -17 18
11 30 29 12 10 19 -20 7 -21 -8 -20 -27 3 -48 21 -19 17 -56 -6 -56 -9 0 -13
6 -9 15 3 8 1 15 -4 15 -6 0 -10 -7 -10 -15 0 -9 -9 -15 -25 -15 -25 0 -25 0
-8 28 l17 27 -25 -22 c-18 -17 -28 -19 -42 -12 -10 6 -31 7 -48 4 -21 -5 -39
-1 -63 13 -27 16 -36 18 -40 7 -3 -8 -13 -11 -26 -8 -25 7 -40 -10 -40 -44 0
-13 -11 -30 -25 -39 -24 -16 -27 -15 -45 1 -26 24 -25 125 2 125 48 0 66 39
27 60 -17 10 -26 6 -59 -22 -88 -75 -102 -83 -114 -67 -12 16 -46 14 -46 -2 0
-5 -10 -13 -22 -18 -13 -5 -17 -10 -10 -15 6 -3 19 2 29 13 11 12 23 17 31 12
10 -6 10 -10 -1 -19 -22 -19 -229 -122 -244 -122 -9 0 -13 16 -13 54 l0 53 37
6 c20 4 41 3 46 0 15 -9 -30 -23 -51 -16 -10 3 -8 -2 7 -12 l24 -18 -29 -24
c-33 -26 -21 -32 15 -7 15 11 21 23 18 35 -3 12 0 19 9 19 7 0 18 9 24 20 6
11 18 20 27 20 15 0 14 -2 -2 -14 -18 -13 -18 -14 3 -25 11 -6 27 -11 34 -11
7 1 2 7 -11 14 -20 11 -21 14 -7 19 10 4 15 11 12 15 -6 10 88 52 149 67 29 7
41 16 43 31 2 14 15 23 47 32 28 7 45 18 45 27 0 8 -5 15 -10 15 -7 0 -7 6 -1
18 5 9 12 26 16 37 6 19 7 19 17 2 5 -10 7 -25 4 -33 -3 -9 -1 -12 4 -9 6 3
10 15 10 26 0 12 7 19 20 19 11 0 20 4 20 10 0 5 -6 7 -14 4 -22 -8 -47 9 -37
25 6 10 13 10 28 2 16 -8 24 -6 40 12 11 12 23 30 27 41 6 17 8 18 24 2 10 -9
27 -16 38 -16z m-109 -27 c-11 -10 -37 12 -37 31 1 21 1 21 21 -3 11 -13 18
-26 16 -28z m-97 -133 c-8 -5 -19 -10 -25 -10 -5 0 -3 5 5 10 8 5 20 10 25 10
6 0 3 -5 -5 -10z m40 -71 c0 -5 -15 -12 -32 -17 -34 -9 -34 -8 -39 -89 -1 -20
-8 -34 -18 -36 -11 -3 -9 -5 5 -6 19 -1 53 -28 43 -34 -2 -1 -12 -9 -22 -17
-17 -12 -21 -11 -37 10 -15 20 -21 23 -31 13 -11 -11 -10 -13 3 -13 9 0 18 -7
22 -15 9 -23 -81 -60 -116 -47 -16 6 -28 6 -28 1 0 -5 7 -9 16 -9 14 0 15 -2
3 -17 -8 -9 -27 -22 -44 -29 -26 -11 -32 -10 -50 9 -11 12 -36 35 -55 50 -34
27 -35 28 -15 43 11 8 31 13 45 11 14 -3 34 -1 45 3 18 8 18 9 -5 10 -22 1
-19 4 20 25 25 12 47 21 50 19 2 -3 -1 -9 -8 -13 -9 -5 -5 -11 13 -21 28 -15
32 -28 10 -36 -8 -4 -15 -11 -15 -17 0 -6 10 -2 22 10 20 21 21 23 5 41 -27
30 -20 48 28 77 41 23 47 25 66 12 13 -10 16 -17 10 -22 -6 -3 -11 -11 -11
-17 0 -7 6 -6 15 2 21 18 19 38 -6 45 -19 6 -16 11 33 55 39 35 56 45 66 38 6
-6 12 -14 12 -19z m-125 11 c-3 -5 -12 -10 -18 -10 -7 0 -6 4 3 10 19 12 23
12 15 0z m675 -10 l25 -20 -32 -25 c-20 -16 -37 -41 -43 -66 -10 -36 -14 -39
-44 -39 -19 0 -44 8 -56 18 -20 16 -21 21 -10 43 7 13 28 43 47 67 39 48 72
54 113 22z m-476 -89 c3 -4 -3 -16 -14 -26 -19 -17 -20 -17 -20 2 0 29 22 45
34 24z m-544 -60 c0 -55 -2 -61 -30 -81 -33 -24 -35 -22 -43 40 -3 19 -8 44
-12 55 -5 16 0 23 22 32 58 23 63 19 63 -46z m752 31 l47 -18 -35 -23 c-19
-13 -46 -37 -59 -53 -15 -18 -38 -31 -60 -35 l-35 -6 0 66 c0 52 4 68 18 76
26 16 72 13 124 -7z m133 -36 c32 -15 46 -16 68 -8 29 11 57 7 57 -9 0 -5 -4
-9 -9 -9 -5 0 -37 -21 -70 -46 -61 -46 -62 -46 -130 -42 -38 2 -76 10 -85 17
-15 13 -15 16 6 39 26 28 109 84 118 79 3 -2 23 -11 45 -21z m165 -6 c8 -5 11
-10 5 -10 -5 0 -17 5 -25 10 -8 5 -10 10 -5 10 6 0 17 -5 25 -10z m59 -57 c19
-39 37 -42 53 -9 10 24 12 24 35 9 l24 -16 -82 -44 c-76 -42 -86 -45 -132 -39
-48 7 -107 30 -107 42 0 9 49 47 94 72 56 31 95 26 115 -15z m-654 -12 c0 -31
-47 -49 -125 -50 l-55 0 75 39 c84 44 105 46 105 11z m-353 -50 c45 -42 51
-52 42 -68 -17 -27 -37 -27 -70 2 -16 14 -48 38 -72 52 -41 24 -42 26 -26 44
30 33 67 24 126 -30z m-158 13 c13 -12 14 -20 4 -37 -6 -12 -14 -35 -18 -52
-4 -23 -12 -31 -38 -36 -28 -6 -32 -4 -26 10 4 9 10 35 14 58 7 41 24 73 41
73 4 0 15 -7 23 -16z m803 -8 c27 -10 58 -14 85 -10 34 5 51 1 81 -16 22 -13
61 -24 99 -27 38 -4 74 -13 90 -25 32 -22 102 -48 131 -48 11 0 37 -15 57 -34
27 -24 55 -38 94 -46 40 -8 57 -17 61 -31 7 -22 70 -65 110 -75 15 -4 36 -22
49 -43 30 -47 53 -67 99 -86 21 -9 40 -23 43 -33 14 -44 32 -65 76 -94 33 -21
48 -38 48 -53 0 -27 51 -97 84 -115 17 -9 26 -22 26 -38 0 -36 29 -90 61 -113
23 -16 27 -25 23 -48 -6 -31 4 -57 44 -110 18 -24 26 -48 27 -80 0 -25 10 -64
20 -86 14 -27 19 -56 17 -90 -2 -39 3 -59 21 -89 23 -37 23 -41 10 -76 -13
-32 -13 -42 4 -91 15 -45 16 -59 6 -79 -15 -30 -17 -114 -3 -140 8 -14 5 -28
-11 -55 -18 -30 -21 -47 -16 -96 3 -32 1 -59 -4 -59 -16 0 -39 -58 -45 -117
-5 -38 -13 -64 -27 -77 -24 -23 -56 -93 -57 -123 0 -13 -19 -41 -43 -66 -29
-28 -48 -58 -56 -90 -11 -38 -20 -50 -49 -64 -32 -15 -84 -81 -98 -125 -3 -10
-14 -18 -24 -18 -24 0 -83 -51 -110 -96 -13 -19 -33 -37 -48 -41 -40 -9 -90
-46 -116 -84 -17 -25 -31 -34 -54 -35 -30 -2 -132 -68 -132 -86 0 -4 -15 -8
-34 -8 -40 0 -92 -20 -125 -49 -17 -15 -36 -20 -75 -19 -37 1 -62 -5 -91 -23
-31 -19 -54 -24 -115 -24 -49 -1 -86 -7 -106 -17 -27 -15 -35 -15 -71 -3 -34
12 -49 12 -102 -1 -55 -12 -64 -12 -77 1 -11 11 -37 15 -94 15 -62 0 -88 5
-122 22 -28 15 -60 22 -98 23 -46 0 -62 5 -88 26 -23 20 -48 29 -92 34 -39 5
-63 12 -67 22 -8 21 -98 63 -138 65 -19 1 -35 5 -35 9 0 24 -57 70 -106 86
-38 11 -54 22 -54 34 0 22 -56 71 -108 95 -23 10 -42 24 -42 29 0 25 -54 87
-90 105 -32 16 -40 26 -40 47 0 20 -15 41 -55 79 -30 29 -55 61 -55 71 0 21
-48 101 -73 122 -9 7 -17 24 -17 38 0 36 -28 95 -56 120 -21 18 -24 27 -19 56
7 34 -20 107 -44 121 -6 4 -5 17 1 34 8 21 6 40 -12 87 -15 42 -21 80 -20 127
1 43 -4 77 -14 96 -14 27 -14 34 -1 59 18 34 18 76 1 124 -11 32 -11 39 6 60
16 19 19 36 16 91 -2 46 1 69 9 72 17 7 46 112 40 144 -4 19 3 33 25 55 36 36
48 66 48 115 0 31 5 40 30 54 30 17 80 104 80 138 0 9 16 24 35 34 35 19 76
71 94 119 6 15 17 27 25 27 21 0 84 57 112 102 14 22 32 38 43 38 26 0 96 53
117 89 11 19 29 33 48 37 46 10 82 30 121 69 38 38 95 50 95 19 0 -20 54 -74
73 -74 10 0 16 15 20 47 5 46 29 78 52 69 5 -2 18 -7 27 -11 12 -5 28 4 51 27
57 55 93 70 182 73 44 1 90 6 103 10 22 7 22 6 22 -72 l0 -80 -39 -11 c-42
-13 -115 -84 -132 -130 -30 -78 0 -195 64 -248 l32 -26 -55 6 c-30 4 -69 14
-86 22 -24 11 -39 11 -63 3 -25 -9 -34 -8 -47 6 -12 12 -26 15 -48 11 -17 -3
-60 -6 -96 -6 -48 0 -73 -5 -94 -19 l-28 -19 33 -7 c72 -14 109 -26 109 -34 0
-5 -28 -3 -62 4 -34 8 -65 12 -69 9 -4 -2 -6 -34 -5 -71 l1 -67 64 -19 c69
-21 81 -17 81 31 0 13 6 22 15 22 11 0 15 -11 15 -43 0 -45 30 -91 45 -67 3 5
11 8 16 5 5 -4 9 15 9 43 0 45 2 50 20 45 16 -4 20 -14 20 -47 0 -22 4 -47 8
-53 5 -7 66 -28 138 -45 l129 -33 -7 -240 c-26 -924 -41 -1286 -58 -1330 -13
-33 -118 -92 -188 -105 -69 -12 -130 2 -185 44 -25 19 -51 28 -87 31 -61 5
-177 59 -235 109 l-40 35 42 1 c28 0 64 -11 110 -34 77 -38 150 -62 160 -53 3
4 -27 42 -68 84 -41 43 -87 92 -104 109 -37 39 -74 58 -145 74 -30 7 -91 25
-136 40 -72 25 -83 26 -107 13 -37 -19 -37 -58 1 -77 15 -8 56 -44 91 -81 63
-67 94 -92 200 -162 29 -19 83 -67 120 -106 162 -174 247 -233 471 -328 96
-41 174 -84 226 -126 23 -18 46 -33 52 -33 6 0 39 25 74 55 59 52 128 91 209
120 71 25 245 115 299 155 30 21 71 50 90 63 53 36 143 137 179 201 32 57 33
76 4 76 -9 0 -14 3 -11 6 3 3 25 0 48 -6 38 -10 44 -9 65 10 13 12 35 48 49
80 14 32 33 61 42 64 13 5 15 25 14 118 -1 62 0 122 2 133 6 40 -37 29 -124
-31 -211 -146 -322 -248 -316 -289 2 -14 18 -25 56 -39 28 -10 52 -22 52 -26
0 -4 -19 -28 -41 -54 -71 -81 -171 -117 -319 -117 -82 0 -86 1 -112 30 -34 38
-45 78 -57 216 -16 168 -61 1109 -61 1263 l0 53 55 -6 55 -7 0 51 c0 44 3 51
20 51 17 0 20 -7 20 -50 0 -55 15 -70 69 -70 30 0 31 1 31 45 0 62 25 62 32 1
7 -58 22 -71 83 -71 28 0 71 -3 97 -7 42 -7 51 -5 78 18 29 25 30 29 30 103
l0 76 -105 34 c-57 18 -103 38 -102 44 1 7 -23 14 -56 18 -37 4 -62 13 -70 23
-8 11 -30 19 -57 21 -25 1 -65 10 -90 18 -45 16 -56 19 -165 39 l-60 11 51 23
c93 41 154 145 139 240 -8 53 -56 127 -101 154 l-34 22 0 84 0 83 33 10 c35
11 42 10 104 -13z m580 13 c15 -6 43 -22 62 -36 l34 -26 -57 -17 c-31 -10 -68
-25 -82 -35 -21 -14 -33 -15 -75 -6 -52 12 -104 34 -114 51 -6 10 53 51 100
68 40 14 97 15 132 1z m-1513 -78 c25 -27 31 -26 33 5 0 14 7 31 13 38 18 16
6 -55 -17 -101 -21 -43 -53 -69 -109 -88 l-39 -13 -3 30 c-5 41 24 125 56 167
l26 35 11 -26 c5 -14 19 -36 29 -47z m-119 -32 c-8 -23 -15 -63 -15 -89 0 -41
-5 -53 -40 -92 -39 -45 -94 -77 -108 -63 -12 12 -5 119 11 157 8 20 27 47 41
60 26 22 104 67 118 68 4 0 1 -19 -7 -41z m1813 12 c20 -11 50 -33 66 -50 l30
-31 -26 0 c-15 0 -55 -9 -90 -20 -60 -19 -66 -19 -116 -4 -46 15 -109 60 -98
71 2 3 30 15 63 29 70 29 122 30 171 5z m-1989 -123 c-5 -18 -8 -60 -7 -93 2
-55 -1 -65 -32 -109 -38 -53 -86 -84 -102 -68 -6 6 -9 45 -6 95 5 100 24 133
101 177 29 16 53 30 54 30 1 0 -3 -15 -8 -32z m2175 -1 c19 -15 45 -41 57 -58
20 -29 21 -31 3 -26 -10 4 -50 0 -88 -7 -60 -12 -76 -11 -113 1 -42 15 -103
62 -103 81 0 16 102 42 157 38 37 -2 61 -10 87 -29z m-1224 -99 c11 -32 21
-44 39 -46 35 -5 112 18 105 32 -3 6 2 2 10 -8 9 -11 16 -28 16 -38 0 -32 -27
-85 -51 -102 -24 -16 -24 -16 -29 20 -6 43 -26 60 -63 50 -21 -5 -27 -14 -34
-48 l-8 -41 -31 31 c-36 35 -48 80 -33 120 10 27 47 72 59 72 3 0 12 -19 20
-42z m1327 -9 c34 -13 80 -55 99 -90 l13 -27 -82 -5 c-66 -3 -90 0 -123 14
-50 23 -99 73 -91 93 9 24 134 34 184 15z m-2443 -51 c-3 -24 -1 -62 4 -86 9
-38 7 -49 -17 -95 -15 -29 -42 -62 -61 -75 l-34 -23 -8 22 c-16 43 -21 136 -9
172 11 34 101 127 122 127 5 0 6 -19 3 -42z m2561 -89 c50 -14 80 -41 111
-101 l24 -48 -26 10 c-14 6 -55 10 -91 10 -59 0 -71 3 -109 33 -24 17 -50 46
-58 62 -14 29 -14 30 7 37 35 10 99 9 142 -3z m-2705 -66 c0 -20 5 -62 12 -94
11 -54 10 -59 -18 -115 -16 -32 -39 -64 -51 -72 -20 -13 -23 -11 -41 25 -47
93 -36 168 35 244 25 27 50 49 54 49 5 0 9 -17 9 -37z m2842 -98 c40 -16 82
-69 94 -119 6 -26 5 -28 -17 -21 -13 5 -51 11 -84 14 -69 7 -112 33 -145 86
-34 55 -22 69 53 62 34 -3 79 -13 99 -22z m-1932 -5 c0 -5 -9 -6 -20 -3 -11 3
-20 9 -20 13 0 5 9 6 20 3 11 -3 20 -9 20 -13z m170 -31 c16 -6 8 -7 -25 -3
-27 3 -57 10 -65 15 -17 11 48 1 90 -12z m-1191 -128 c12 -22 21 -55 21 -73 0
-37 -29 -107 -52 -125 -19 -17 -39 4 -69 71 -31 72 -23 130 27 196 l39 51 7
-39 c4 -22 16 -58 27 -81z m1254 112 c-7 -2 -19 -2 -25 0 -7 3 -2 5 12 5 14 0
19 -2 13 -5z m50 -10 c-7 -2 -19 -2 -25 0 -7 3 -2 5 12 5 14 0 19 -2 13 -5z
m44 -9 c-3 -3 -12 -4 -19 -1 -8 3 -5 6 6 6 11 1 17 -2 13 -5z m1663 -80 c31
-9 65 -28 80 -44 26 -28 59 -115 47 -126 -3 -3 -18 1 -34 9 -15 8 -46 17 -68
21 -22 4 -48 9 -58 12 -25 8 -87 93 -87 120 0 20 5 24 33 24 18 0 58 -7 87
-16z m-3095 -200 c19 -25 25 -45 25 -84 0 -48 -23 -120 -39 -120 -13 0 -68 64
-86 99 -24 48 -16 119 20 173 l28 42 14 -38 c7 -22 24 -54 38 -72z m3191 20
c58 -27 88 -72 98 -147 l7 -47 -33 20 c-18 10 -54 26 -78 35 -25 9 -57 28 -72
42 -31 29 -64 105 -53 123 9 15 69 3 131 -26z m-3252 -202 c33 -36 40 -51 43
-95 4 -51 -11 -97 -33 -104 -15 -5 -83 65 -106 111 -22 43 -19 82 10 143 l17
35 15 -24 c8 -12 33 -42 54 -66z m3324 12 c51 -30 72 -71 72 -139 l0 -46 -35
26 c-19 15 -54 32 -77 39 -38 11 -46 19 -72 69 -19 38 -26 64 -22 81 6 25 7
25 48 10 23 -8 62 -26 86 -40z m-3301 -314 c5 -83 -5 -100 -44 -75 -101 64
-132 134 -102 234 l11 37 66 -65 66 -66 3 -65z m3291 166 c77 -39 112 -89 112
-161 0 -63 -7 -67 -54 -32 -24 18 -58 40 -75 49 -34 19 -70 85 -71 129 0 47
19 50 88 15z m28 -188 c71 -49 89 -79 89 -146 0 -31 -3 -65 -7 -75 -7 -16 -11
-14 -37 16 -16 18 -46 42 -65 52 -40 22 -66 74 -66 134 0 62 16 66 86 19z
m-3361 -70 c31 -14 58 -81 53 -134 -4 -50 -20 -53 -83 -12 -84 56 -108 111
-89 207 l7 31 43 -40 c24 -22 55 -46 69 -52z m3352 -107 c84 -61 107 -124 78
-211 l-17 -52 -18 30 c-10 16 -37 44 -59 63 -54 43 -75 112 -51 173 12 33 18
32 67 -3z m-3354 -71 c40 -18 52 -30 69 -66 19 -44 27 -99 15 -110 -8 -9 -77
16 -120 43 -58 36 -88 115 -71 181 l7 23 26 -25 c14 -14 48 -35 74 -46z m3341
-120 c74 -65 90 -140 49 -226 -20 -42 -27 -42 -43 -5 -6 16 -27 45 -46 64 -42
42 -54 104 -31 160 9 20 21 37 26 37 6 0 26 -14 45 -30z m-3309 -61 c45 -15
53 -22 78 -72 37 -71 31 -101 -16 -92 -53 12 -130 58 -148 90 -10 17 -21 54
-25 84 l-7 55 34 -25 c18 -13 56 -31 84 -40z m3274 -131 c62 -84 65 -152 9
-229 l-31 -43 -12 39 c-6 22 -24 59 -39 82 -24 36 -27 47 -20 90 8 58 29 103
48 103 8 0 28 -19 45 -42z m-3285 -23 c27 -14 62 -25 77 -25 41 0 109 -91 109
-145 0 -21 -48 -19 -113 5 -57 22 -90 50 -105 90 -10 27 -25 100 -20 100 2 0
25 -11 52 -25z m3219 -175 c37 -73 36 -131 -1 -191 -16 -24 -36 -50 -44 -57
-13 -11 -16 -7 -22 29 -4 22 -15 58 -26 80 -24 46 -25 63 -5 120 17 48 43 81
59 76 6 -1 23 -27 39 -57z m-3085 -20 c19 0 47 -9 63 -21 29 -20 79 -95 79
-117 0 -22 -101 -14 -158 13 -45 21 -56 32 -77 77 -14 29 -25 61 -25 70 0 16
3 15 43 -2 23 -11 57 -20 75 -20z m2986 -140 c18 -47 21 -141 5 -173 -13 -26
-90 -107 -101 -107 -4 0 -8 13 -8 28 0 16 -5 54 -11 86 -9 44 -9 65 1 96 15
44 65 110 85 110 7 0 20 -18 29 -40z m-2960 -15 c27 -8 67 -15 88 -15 32 0 47
-7 83 -42 24 -24 47 -56 51 -72 l7 -29 -75 5 c-109 7 -155 38 -193 131 -8 20
-14 37 -13 37 2 0 25 -7 52 -15z m2830 -137 c3 -13 6 -58 6 -101 0 -76 -1 -78
-39 -120 -22 -23 -52 -49 -68 -59 l-28 -16 0 101 c0 89 3 107 23 139 25 41 67
78 87 78 7 0 15 -10 19 -22z m-2547 -60 c36 -24 73 -71 73 -92 0 -2 -24 -8
-54 -11 -109 -14 -176 16 -216 96 -11 21 -20 40 -20 41 0 2 39 1 87 -1 77 -3
93 -7 130 -33z m2409 -113 c14 -95 -17 -172 -90 -221 -62 -42 -79 -44 -66 -8
6 14 10 52 10 85 0 71 14 103 69 152 54 49 68 48 77 -8z m-2279 -16 c40 -19
93 -70 93 -89 0 -10 -89 -30 -136 -30 -51 0 -109 34 -144 84 l-30 45 72 4 c40
1 79 4 87 5 8 1 34 -7 58 -19z m2123 -125 c0 -44 -27 -127 -51 -158 -19 -25
-68 -55 -122 -75 l-23 -9 18 51 c9 29 17 68 18 88 0 51 52 115 115 144 35 16
45 7 45 -41z m-1967 1 c37 -15 97 -62 97 -75 0 -14 -99 -42 -149 -42 -58 0
-98 19 -141 69 l-34 38 73 7 c40 3 75 9 78 12 10 10 39 7 76 -9z m1792 -122
c-9 -59 -35 -122 -62 -145 -20 -18 -95 -48 -120 -48 -11 0 -11 4 1 28 8 15 17
46 21 67 3 22 12 50 18 63 16 34 86 82 120 82 28 0 28 0 22 -47z m-1579 3 c72
-33 74 -49 11 -77 -103 -44 -170 -37 -247 27 l-32 27 74 22 c96 30 133 30 194
1z m1414 -66 c0 -39 -42 -130 -71 -154 -31 -27 -86 -46 -130 -46 l-26 0 23 48
c13 26 24 54 24 62 0 27 30 60 78 85 59 31 102 33 102 5z m-1208 -21 c22 -11
38 -25 35 -32 -7 -22 -127 -77 -168 -77 -41 0 -119 31 -140 56 -10 12 -8 16
11 21 12 3 45 18 74 34 60 32 123 31 188 -2z m1023 -51 c-14 -47 -61 -122 -88
-142 -20 -15 -47 -21 -97 -24 l-70 -4 34 58 c57 100 101 131 189 133 35 1 38
-1 32 -21z m-830 -2 c19 -8 35 -19 35 -25 0 -15 -61 -63 -109 -84 -52 -23
-100 -19 -167 13 l-46 23 63 33 c35 19 67 38 73 44 15 15 112 12 151 -4z m634
-32 c16 -15 -69 -127 -112 -147 -35 -17 -117 -22 -150 -8 -17 6 -17 8 4 26 12
11 34 39 51 62 16 24 38 48 49 53 43 24 140 32 158 14z m-424 -6 c14 -6 25
-14 25 -18 0 -15 -93 -92 -128 -107 -40 -17 -80 -13 -148 13 l-45 17 43 24
c24 14 54 35 68 47 14 13 32 26 40 29 28 10 119 7 145 -5z m209 -4 c25 -10 19
-28 -24 -76 -64 -73 -130 -94 -211 -67 -19 7 -35 13 -37 14 -7 6 111 111 136
122 29 13 110 17 136 7z"/>
<path d="M4247 10366 c-3 -8 1 -20 9 -27 12 -10 18 -9 31 3 8 9 12 21 9 27
-10 16 -43 14 -49 -3z"/>
<path d="M4356 9405 c-11 -19 -17 -37 -15 -39 2 -2 29 -13 61 -24 49 -18 57
-19 62 -6 16 40 6 60 -39 82 -25 12 -47 22 -48 22 -1 0 -11 -16 -21 -35z m69
-2 c36 -17 41 -28 26 -51 -6 -10 -17 -9 -54 5 -46 18 -46 19 -31 41 18 26 15
26 59 5z"/>
<path d="M5718 7104 c-4 -4 -5 -11 -2 -15 7 -13 34 -11 34 2 0 5 -4 8 -9 5 -5
-4 -11 -1 -13 5 -2 5 -7 7 -10 3z"/>
<path d="M5745 7060 c3 -5 11 -10 16 -10 6 0 7 5 4 10 -3 6 -11 10 -16 10 -6
0 -7 -4 -4 -10z"/>
<path d="M5680 7040 c-13 -8 -13 -10 2 -10 9 0 20 5 23 10 8 13 -5 13 -25 0z"/>
<path d="M5611 7013 c-1 -18 4 -23 22 -22 15 1 17 3 5 6 -9 2 -19 12 -21 21
-3 12 -5 10 -6 -5z"/>
<path d="M5730 6998 c0 -5 9 -8 19 -8 11 0 22 3 24 8 3 4 -6 7 -19 7 -13 0
-24 -3 -24 -7z"/>
<path d="M5678 6988 c7 -7 16 -7 28 0 14 8 13 10 -10 10 -18 0 -24 -4 -18 -10z"/>
<path d="M5694 6942 c4 -13 1 -22 -9 -26 -8 -3 -15 -11 -15 -17 0 -7 8 -5 20
6 22 20 26 40 9 51 -7 4 -9 0 -5 -14z"/>
<path d="M5590 6935 c0 -10 9 -15 28 -14 23 2 24 2 4 6 -12 2 -20 9 -17 14 4
5 1 9 -4 9 -6 0 -11 -7 -11 -15z"/>
<path d="M5630 6893 c0 -12 28 -38 34 -32 2 2 -5 13 -15 23 -11 11 -19 15 -19
9z"/>
<path d="M5769 6879 l24 -9 -23 -25 c-13 -14 -19 -25 -13 -25 13 0 43 33 43
47 0 11 -24 23 -43 22 -7 0 -1 -5 12 -10z"/>
<path d="M5810 6872 c0 -6 5 -14 11 -18 8 -4 3 -12 -12 -20 -24 -14 -14 -19
15 -8 20 8 21 28 1 44 -9 8 -15 9 -15 2z"/>
<path d="M5580 6812 c0 -15 -6 -34 -12 -42 -11 -12 -10 -12 3 -2 18 13 31 72
17 72 -4 0 -8 -13 -8 -28z"/>
<path d="M5417 6762 c10 -6 10 -12 -2 -28 -8 -10 -15 -25 -15 -33 0 -8 11 1
23 20 26 37 25 49 -1 49 -12 0 -14 -3 -5 -8z"/>
<path d="M5283 6661 c-3 -11 -15 -22 -27 -24 l-21 -4 21 -2 c13 0 28 9 38 24
10 15 12 25 5 25 -6 0 -13 -9 -16 -19z"/>
<path d="M2316 7295 c-25 -26 -28 -54 -9 -90 10 -19 88 -121 173 -227 86 -106
167 -208 180 -226 l24 -32 -81 -163 c-228 -456 -351 -884 -389 -1350 -7 -90
-4 -89 -111 -31 -53 28 -63 31 -63 16 0 -31 57 -116 114 -170 53 -51 56 -55
56 -103 l0 -50 -29 15 c-16 9 -57 46 -91 83 l-62 68 6 -48 c6 -50 33 -112 72
-164 28 -37 29 -43 10 -43 -7 0 -25 -10 -40 -21 l-27 -21 69 -35 c93 -46 118
-74 126 -142 7 -51 6 -54 -11 -41 -10 8 -31 27 -46 44 l-28 31 3 -40 3 -41
-62 4 c-35 3 -63 0 -63 -5 0 -30 125 -117 191 -134 45 -12 48 -15 59 -58 6
-25 13 -53 15 -61 4 -12 -5 -14 -50 -12 -30 2 -55 1 -55 -3 0 -3 9 -24 19 -45
11 -22 17 -40 15 -40 -2 0 -28 13 -57 29 -28 16 -63 32 -76 36 -22 7 -23 5
-17 -21 10 -39 42 -90 91 -143 37 -41 38 -44 15 -38 -57 14 -130 19 -130 10 0
-17 53 -89 85 -115 43 -36 138 -88 209 -115 l61 -23 -80 6 c-91 7 -199 33
-265 63 -51 23 -63 13 -33 -28 19 -26 124 -104 199 -149 l39 -23 -47 5 c-49 6
-58 0 -36 -22 19 -19 -5 -15 -72 12 -33 14 -60 20 -60 15 0 -24 118 -184 177
-240 67 -62 67 -62 32 -56 -87 15 -129 19 -129 11 0 -10 54 -47 239 -161 74
-46 130 -83 125 -83 -15 0 -125 20 -148 27 -15 4 -18 2 -13 -11 6 -14 3 -16
-16 -10 -40 12 -141 56 -219 95 -57 29 -78 35 -78 25 0 -8 51 -67 113 -131 91
-94 110 -118 97 -125 -9 -5 -59 -6 -111 -3 -53 3 -105 1 -119 -5 l-25 -10 30
-11 c58 -22 105 -44 105 -50 0 -3 -16 -28 -35 -55 -19 -27 -33 -51 -31 -53 2
-2 27 8 57 22 30 14 64 25 76 25 16 0 216 -118 280 -165 2 -1 -25 -16 -58 -33
-61 -32 -63 -32 -210 -32 -82 0 -149 -3 -149 -7 1 -5 32 -30 71 -57 38 -27 92
-74 121 -104 l51 -54 -60 -32 c-74 -40 -163 -104 -163 -118 0 -6 7 -8 15 -4
15 5 100 20 180 30 38 5 37 3 -33 -34 -70 -37 -112 -66 -112 -79 0 -3 37 -4
82 -3 89 4 183 -13 256 -46 l43 -19 -33 -25 c-39 -31 -34 -41 13 -28 54 16
229 28 284 21 49 -7 49 -7 18 -15 -35 -8 -113 -61 -113 -76 0 -6 21 -11 48
-11 l47 -2 -63 -9 c-54 -9 -66 -7 -82 7 -37 34 -110 47 -288 52 -198 6 -227
-2 -130 -37 35 -12 94 -39 132 -58 l70 -37 -40 -8 c-162 -35 -324 -92 -324
-114 0 -4 36 -9 81 -9 44 -1 82 -4 85 -7 3 -3 -2 -17 -12 -31 -21 -34 -14 -41
23 -23 15 8 39 18 53 22 25 8 25 8 6 -14 -14 -16 -16 -21 -5 -21 8 -1 -4 -11
-27 -23 -57 -31 -89 -55 -82 -63 4 -3 34 -8 67 -11 l61 -6 -64 -67 c-75 -80
-119 -141 -151 -213 -24 -53 -44 -157 -30 -157 4 0 53 44 109 98 83 80 234
197 243 188 1 -1 -5 -25 -14 -54 -9 -28 -14 -54 -11 -58 4 -3 26 7 50 24 47
32 93 57 135 73 22 8 14 -3 -34 -51 -111 -107 -181 -219 -198 -312 -8 -45 2
-48 36 -12 34 37 220 176 227 170 2 -3 -1 -12 -8 -21 -10 -12 -8 -21 14 -50
31 -40 31 -37 -39 -123 -49 -60 -51 -61 -102 -61 l-51 -1 -51 -70 -51 -70 -49
0 -49 0 -61 -85 c-34 -47 -61 -88 -61 -90 0 -3 1609 -5 3575 -5 1966 0 3575 3
3575 6 0 3 -27 44 -61 90 l-60 84 -49 0 -48 0 -51 70 -51 70 -50 0 c-49 0 -49
1 -110 73 l-61 72 48 9 c47 9 360 -6 411 -20 78 -22 -59 88 -162 130 -68 27
-211 56 -276 56 -34 0 -42 5 -75 50 -21 28 -35 53 -32 56 9 9 189 -27 257 -52
35 -13 66 -21 69 -18 3 2 -10 19 -28 38 l-32 33 68 18 c37 10 103 33 146 51
83 35 227 120 227 134 0 5 -42 6 -92 4 -141 -7 -255 27 -166 49 118 31 179 52
226 80 28 17 52 35 52 39 0 25 -156 94 -288 128 l-43 11 68 52 c97 73 221 149
297 183 36 16 66 33 66 37 0 19 -232 1 -353 -27 -165 -38 -181 -33 -87 26 41
26 113 65 160 87 76 35 108 46 203 66 15 3 25 9 22 14 -9 16 -146 44 -249 50
l-101 6 53 28 c58 30 59 43 6 53 l-35 7 33 34 c42 44 161 124 221 149 26 10
47 22 47 25 0 7 -62 19 -102 19 -44 0 -33 15 32 44 33 15 60 31 60 36 0 12
-102 23 -141 15 -33 -7 -32 -6 31 52 36 33 82 85 103 115 37 55 80 156 71 170
-10 16 -138 -19 -216 -59 -27 -13 -48 -20 -48 -17 0 15 110 152 174 217 36 37
66 70 66 72 0 12 -35 3 -94 -24 l-64 -29 59 80 c33 44 58 83 55 85 -3 3 -42
-20 -88 -50 -46 -30 -117 -72 -158 -92 l-75 -37 155 158 c86 88 179 187 209
221 64 75 52 80 -60 25 l-76 -37 46 60 c61 79 145 215 137 222 -3 3 -47 -12
-98 -34 -51 -23 -94 -39 -96 -38 -2 2 46 77 107 168 60 91 108 167 105 170 -3
2 -20 1 -39 -3 -25 -6 -33 -5 -28 4 4 6 20 31 35 55 15 25 28 49 28 54 0 9
-37 5 -75 -9 -19 -7 -19 -6 1 17 33 37 84 121 84 139 0 12 -9 15 -40 12 -22
-2 -40 -1 -40 3 0 3 12 26 26 51 29 50 57 134 45 134 -5 0 -19 -8 -32 -19 -13
-10 -39 -26 -58 -35 l-33 -18 30 44 c69 101 110 209 119 316 3 40 2 72 -3 72
-5 -1 -25 -21 -44 -46 -19 -25 -62 -68 -95 -96 l-60 -51 -6 249 c-4 137 -12
285 -18 329 -61 418 -179 784 -378 1178 -50 99 -72 152 -65 160 17 23 327 410
350 439 79 95 -10 182 -114 112 -21 -15 -205 -146 -407 -292 -314 -225 -373
-272 -402 -316 -43 -65 -59 -129 -53 -215 4 -58 15 -90 73 -212 155 -331 229
-565 282 -884 21 -129 28 -446 14 -591 -70 -699 -429 -1333 -1044 -1846 -105
-88 -105 -89 -47 -145 l41 -38 -88 -61 c-324 -224 -736 -394 -1108 -459 -49
-8 -97 -17 -105 -20 -32 -10 -389 -33 -470 -30 -520 17 -953 131 -1410 372
-99 53 -296 169 -319 190 -3 2 12 20 32 41 20 21 37 47 37 59 0 14 -37 52
-119 121 -133 113 -354 339 -439 450 -90 116 -161 216 -162 226 0 4 -15 29
-34 55 -35 48 -153 271 -176 331 -7 19 -23 58 -35 85 -96 216 -175 623 -175
900 0 102 23 354 39 435 5 25 15 72 21 105 40 195 118 418 233 665 80 173 81
176 85 268 4 87 3 96 -26 155 -17 34 -46 76 -64 93 -33 32 -682 501 -767 556
-50 31 -101 36 -125 13z m296 -158 c117 -84 281 -202 365 -263 l152 -109 -48
-6 c-105 -14 -162 -71 -186 -188 l-11 -55 -94 114 c-153 184 -423 519 -452
563 -32 47 -34 60 -12 81 35 36 66 21 286 -137z m6536 141 c18 -18 14 -50 -10
-85 -59 -80 -424 -526 -485 -593 l-69 -74 4 37 c15 125 -83 221 -209 204 -41
-5 -41 -5 -18 11 13 9 169 121 347 249 178 128 335 240 350 248 33 18 74 19
90 3z m-683 -539 l40 -11 -87 -82 c-47 -44 -91 -91 -97 -103 -27 -54 -2 -121
55 -148 63 -30 93 -16 192 88 48 50 114 120 148 155 l60 64 86 -173 c207 -418
326 -816 368 -1228 15 -150 12 -466 -5 -616 -67 -584 -299 -1132 -706 -1665
-48 -63 -101 -130 -116 -149 l-29 -34 -205 173 c-112 94 -213 175 -224 180
-10 4 -27 5 -37 2 -9 -2 -113 -87 -230 -188 -117 -101 -218 -184 -225 -184
-23 0 -24 20 -1 42 13 13 62 55 109 95 119 101 331 319 429 443 325 408 524
887 571 1375 14 147 6 462 -15 595 -50 311 -128 557 -273 862 -66 138 -75 165
-80 230 -6 88 6 139 50 205 26 39 42 51 82 65 59 20 87 22 140 7z m-5254 -48
c53 -60 72 -124 67 -225 -4 -74 -9 -91 -62 -201 -157 -323 -240 -581 -288
-890 -29 -187 -31 -533 -5 -705 72 -467 269 -910 575 -1290 93 -115 335 -359
455 -459 48 -40 87 -79 87 -87 0 -37 -55 0 -247 166 -114 100 -218 183 -231
187 -13 3 -33 1 -45 -5 -12 -6 -109 -85 -215 -177 -106 -91 -197 -165 -201
-163 -21 8 -192 230 -289 375 -257 383 -432 780 -516 1173 -50 233 -60 337
-60 620 0 200 4 295 17 385 45 307 108 546 219 825 51 128 194 431 220 463 13
17 24 7 143 -138 70 -86 137 -163 149 -171 11 -7 40 -14 63 -14 33 0 50 7 76
30 69 60 56 109 -58 219 -47 46 -85 85 -85 88 0 2 19 13 43 24 30 14 57 19 97
16 49 -4 58 -8 91 -46z m5319 -5 c0 -6 -19 -31 -43 -54 -31 -31 -51 -42 -72
-42 -29 1 -28 2 35 59 62 56 80 65 80 37z m-5500 -71 c49 -50 52 -55 30 -55
-26 0 -110 74 -110 97 0 26 27 12 80 -42z m5537 -43 c-4 -51 -11 -71 -34 -100
-43 -54 -93 -77 -137 -62 -60 19 -81 73 -51 130 14 27 21 30 63 30 44 0 50 3
91 51 42 49 45 51 59 33 10 -14 12 -37 9 -82z m-5500 -32 c49 0 73 -25 73 -75
-1 -51 -41 -85 -101 -85 -25 0 -42 10 -74 44 -42 44 -59 88 -50 132 3 13 8 36
11 51 l5 26 47 -46 c41 -41 53 -47 89 -47z m6380 -1633 c-4 -29 -12 -68 -18
-85 l-11 -32 -80 0 -80 0 49 39 c26 21 68 59 93 85 24 25 46 46 48 46 3 0 2
-24 -1 -53z m-7151 -677 c8 0 14 -7 14 -15 0 -11 -11 -15 -39 -15 -31 0 -40 4
-44 21 -5 19 -3 21 25 15 17 -3 37 -6 44 -6z m-182 -428 c-17 -2 -34 4 -47 17
l-20 20 47 -17 c43 -15 45 -17 20 -20z m7126 -454 c-23 -29 -50 -63 -60 -75
-16 -21 -27 -23 -101 -23 l-82 0 99 49 c54 27 115 61 134 75 53 38 56 31 10
-26z m-6860 -13 c226 -25 237 -33 50 -34 l-165 0 -40 30 c-34 26 -36 30 -15
25 14 -3 90 -13 170 -21z m6920 -50 c-28 -29 -41 -35 -74 -35 l-41 1 65 34
c83 43 92 43 50 0z m-5725 -134 c17 -10 117 -93 223 -185 106 -91 198 -166
204 -166 6 0 1 -11 -12 -24 l-22 -25 -77 56 c-209 154 -371 297 -371 327 0 40
12 44 55 17z m4375 5 c7 -9 8 -21 3 -29 -17 -29 -171 -161 -337 -286 l-109
-83 -21 21 c-20 21 -20 21 0 35 11 8 109 91 219 185 109 94 206 171 216 171 9
0 22 -7 29 -14z m-4246 -233 c232 -187 532 -374 771 -481 567 -255 1135 -340
1717 -256 154 22 425 92 583 150 164 60 428 192 568 283 185 121 482 351 611
473 l39 37 241 -201 c132 -110 241 -205 241 -211 0 -6 -62 -68 -138 -139 -638
-595 -1354 -933 -2187 -1034 -179 -22 -627 -25 -800 -5 -862 97 -1646 456
-2253 1031 -85 80 -98 97 -95 121 2 24 46 65 242 233 l240 204 44 -50 c25 -27
104 -97 176 -155z m-996 -240 c-32 -2 -86 -2 -120 0 -35 2 -9 3 57 3 66 0 94
-1 63 -3z m-383 -73 c-4 -6 -53 -9 -118 -8 -83 1 -100 3 -67 8 73 11 192 11
185 0z m380 -64 c59 -14 56 -14 -110 -14 -176 0 -188 2 -95 17 80 13 137 12
205 -3z m483 -91 c35 -30 60 -55 57 -55 -4 0 -80 9 -169 20 -88 10 -192 22
-231 26 l-70 7 60 14 c60 13 232 40 270 42 11 1 48 -24 83 -54z m-613 -35 c19
-5 -15 -8 -90 -8 -75 0 -109 3 -90 8 17 4 57 8 90 8 33 0 74 -4 90 -8z m5758
-30 c-17 -30 -18 -30 -111 -30 -55 0 -91 4 -87 9 5 9 101 33 175 44 14 3 29 5
33 6 5 0 0 -12 -10 -29z m-5858 -114 c11 -2 -18 -4 -65 -4 -47 0 -77 3 -68 6
16 7 86 5 133 -2z m6113 -922 c19 -25 32 -47 30 -49 -2 -2 -1339 -7 -2972 -11
l-2969 -7 39 56 39 56 2900 0 2900 0 33 -45z m78 -111 c21 -27 42 -53 46 -59
4 -6 -5 -27 -21 -49 l-29 -39 70 -83 70 -83 49 0 c47 0 49 -1 89 -55 22 -30
40 -57 40 -60 0 -3 -367 -5 -815 -5 -448 0 -815 3 -815 6 0 20 86 166 112 190
l31 29 -21 -32 c-12 -17 -22 -45 -22 -62 0 -51 33 -40 87 29 25 33 48 58 51
55 2 -2 -10 -29 -27 -60 -28 -50 -29 -55 -12 -55 10 0 26 11 35 25 14 20 22
24 44 19 15 -4 37 -18 49 -31 20 -21 25 -22 47 -11 13 7 43 37 66 66 23 30 44
52 46 49 3 -3 -9 -28 -26 -56 -35 -61 -35 -61 -12 -61 10 0 25 12 35 28 9 15
31 43 48 62 l31 35 -21 -36 c-24 -42 -27 -72 -8 -88 10 -8 19 -6 34 9 18 16
22 17 27 5 8 -22 50 -18 72 6 l18 20 8 -20 c10 -27 36 -27 65 1 18 17 23 18
23 6 0 -9 7 -21 15 -28 11 -10 25 -6 70 20 l55 31 0 -24 c0 -39 28 -41 61 -6
18 19 29 25 29 17 0 -8 8 -22 18 -30 22 -20 51 -10 81 28 30 39 17 43 -18 5
-31 -33 -51 -40 -51 -18 0 8 17 25 38 38 40 26 54 62 26 73 -28 11 -49 -2
-104 -65 -29 -33 -54 -58 -57 -55 -3 2 26 62 64 133 83 156 78 143 59 143 -8
0 -27 -21 -42 -47 -33 -60 -114 -182 -124 -188 -4 -3 -5 16 -2 41 4 37 2 46
-9 42 -8 -3 -17 -21 -20 -40 -7 -44 -34 -88 -54 -88 -18 0 -13 14 59 158 31
62 56 114 56 117 0 3 -7 5 -15 5 -8 0 -34 -39 -60 -90 -50 -95 -126 -201 -133
-181 -2 6 8 32 22 57 30 53 32 64 11 64 -8 0 -31 -21 -51 -47 l-37 -48 6 60 5
60 -36 -44 c-21 -24 -52 -60 -70 -80 l-33 -36 26 54 c24 49 25 55 11 69 -14
14 -18 14 -41 -8 -20 -19 -25 -20 -25 -7 0 39 -26 27 -85 -38 -38 -43 -66 -66
-73 -61 -20 12 -13 25 22 40 42 17 63 51 45 72 -19 23 -37 17 -89 -32 -30 -28
-50 -41 -50 -32 0 8 9 23 20 33 21 19 27 45 11 45 -5 0 -19 -12 -30 -27 -12
-16 -19 -21 -16 -13 3 8 1 21 -4 29 -13 20 -42 0 -90 -64 -24 -31 -45 -54 -47
-52 -3 3 5 25 17 50 25 51 20 82 -12 72 -19 -6 -19 -4 6 45 23 45 24 51 9 48
-10 -2 -32 -28 -50 -59 -35 -59 -120 -159 -135 -159 -21 0 -8 38 16 44 35 9
62 51 45 71 -20 24 -39 18 -88 -31 -49 -48 -74 -43 -27 6 19 20 23 30 14 35
-7 5 -19 0 -30 -13 -16 -21 -17 -21 -22 -2 -8 31 -25 24 -73 -27 -27 -30 -44
-42 -44 -32 0 9 9 24 20 34 17 16 28 45 16 45 -16 0 -36 -14 -36 -25 0 -8 -5
-17 -12 -21 -7 -5 -9 -2 -5 9 3 8 -1 21 -9 28 -12 10 -23 3 -64 -41 -28 -30
-50 -57 -50 -61 0 -4 -7 -9 -14 -12 -18 -7 -13 9 21 68 27 47 28 55 9 55 -17
0 -79 -72 -68 -80 4 -3 7 -16 7 -30 0 -18 6 -26 21 -28 17 -2 34 12 69 58 26
34 49 59 52 56 3 -3 -9 -30 -27 -60 -29 -51 -30 -56 -12 -56 11 0 27 11 36 25
13 19 22 24 38 19 15 -4 31 5 65 37 l46 44 -28 -50 c-16 -27 -33 -56 -38 -62
-7 -10 -4 -13 11 -13 12 0 30 14 43 31 15 22 24 27 29 18 5 -6 17 -9 29 -6 16
4 21 1 21 -14 0 -25 30 -40 55 -27 11 6 30 22 43 37 18 19 13 5 -17 -56 l-41
-83 -1260 0 -1260 0 31 63 c33 66 98 161 106 154 2 -3 -5 -20 -16 -38 -24 -40
-27 -67 -7 -75 22 -8 39 5 86 64 23 30 44 52 46 49 3 -3 -9 -28 -26 -56 -35
-61 -35 -61 -12 -61 10 0 26 14 36 31 12 21 21 27 26 19 4 -7 16 -10 26 -8 12
2 23 -4 29 -17 6 -11 22 -22 35 -23 19 -3 37 9 83 60 l58 63 -27 -50 c-15 -27
-32 -56 -37 -62 -7 -10 -4 -13 11 -13 13 0 34 18 56 49 41 56 84 96 48 44 -27
-38 -30 -93 -5 -93 9 0 27 9 39 21 l22 21 7 -22 c6 -18 12 -21 37 -16 17 3 37
1 44 -5 10 -8 20 -4 42 18 28 28 29 28 38 8 5 -11 20 -22 34 -23 19 -3 37 9
83 60 l59 63 -31 -56 c-35 -64 -36 -69 -17 -69 8 0 25 14 37 31 15 21 24 27
29 19 9 -15 42 -9 48 8 3 11 0 12 -17 3 -28 -16 -27 1 4 37 18 22 22 33 14 38
-7 4 -20 -2 -30 -14 -16 -21 -17 -21 -22 -2 -8 30 -26 24 -61 -17 -54 -64 -84
-93 -95 -93 -24 0 -9 28 27 51 63 41 50 99 -15 66 -15 -8 -43 -36 -62 -61 -31
-40 -51 -57 -51 -41 0 3 29 64 65 135 54 108 62 130 47 130 -13 0 -30 -24 -57
-80 -31 -64 -43 -79 -57 -74 -26 8 -68 -21 -112 -77 -45 -58 -56 -58 -27 0 34
66 20 103 -23 62 -23 -22 -23 -22 -29 -2 -8 31 -26 26 -61 -16 -54 -64 -84
-93 -95 -93 -24 0 -9 28 27 51 26 17 37 31 37 49 0 45 -38 38 -90 -16 -26 -28
-45 -41 -45 -32 0 8 9 23 20 33 11 10 20 24 20 32 0 25 -29 12 -48 -22 -11
-20 -11 -20 -12 2 0 45 -24 37 -87 -33 l-64 -69 26 51 c25 50 25 84 1 84 -7 0
-18 -6 -25 -12 -7 -7 -1 10 13 39 30 60 31 63 13 63 -7 0 -24 -19 -37 -43 -53
-96 -136 -188 -154 -170 -13 13 -5 24 29 40 57 27 60 95 4 78 -13 -5 -41 -26
-61 -49 -24 -26 -38 -35 -38 -25 0 9 9 24 20 34 11 10 20 24 20 32 0 25 -29
12 -48 -22 -11 -20 -11 -20 -12 2 0 38 -22 38 -57 -1 -19 -21 -32 -40 -29 -44
4 -3 20 10 36 29 38 44 38 32 -1 -36 -27 -49 -29 -55 -12 -55 10 0 27 13 38
30 11 16 22 25 26 18 3 -5 15 -8 25 -6 12 2 23 -4 29 -17 16 -31 53 -31 87 2
l31 28 -39 -75 -39 -75 -687 -3 c-379 -1 -688 0 -688 3 0 5 91 145 94 145 1 0
2 -10 3 -21 3 -31 10 -34 43 -22 17 6 30 7 30 2 0 -17 37 -9 55 11 18 20 18
20 41 -6 21 -21 27 -23 46 -13 25 12 57 48 58 63 0 6 -15 -5 -34 -23 -19 -18
-39 -30 -45 -27 -19 12 -12 25 24 42 46 21 63 51 42 71 -23 23 -51 8 -108 -58
-29 -32 -54 -57 -57 -55 -2 3 10 30 27 62 18 31 30 58 27 61 -12 12 -36 -8
-55 -44 -18 -36 -71 -95 -71 -79 0 3 11 29 25 56 14 27 25 54 25 60 0 27 -31
4 -74 -55 -26 -36 -50 -65 -52 -65 -2 0 9 27 26 60 35 69 35 70 15 70 -8 0
-15 -5 -15 -11 0 -8 -4 -8 -15 1 -19 16 -48 5 -84 -30 -24 -25 -28 -34 -22
-62 6 -27 12 -33 33 -33 l26 1 -26 -53 -26 -53 -504 0 c-400 0 -502 3 -496 12
4 7 23 34 41 60 33 46 37 48 83 48 48 0 49 0 119 82 l70 82 -29 39 -29 39 41
54 40 54 142 -1 c92 0 133 -3 119 -9 -12 -5 -26 -18 -32 -29 -29 -54 4 -101
71 -101 l42 0 -44 -22 c-37 -19 -47 -31 -58 -65 -8 -23 -22 -45 -32 -48 -20
-6 -58 -45 -44 -45 5 0 20 9 34 20 30 23 40 25 40 6 0 -21 47 -74 81 -91 61
-32 140 -12 153 39 16 66 -41 110 -141 108 -54 0 -63 2 -63 17 0 19 24 44 54
55 12 4 24 -2 38 -19 25 -33 71 -32 76 1 2 17 -5 24 -30 33 l-33 12 39 20 c45
22 56 34 56 66 0 25 -24 33 -58 21 -16 -5 -34 -2 -60 12 -37 20 -36 20 2668
23 1488 1 2758 3 2822 5 l117 2 37 -47z m-5640 -4 c18 -15 -13 -79 -38 -79
-37 0 -78 29 -78 56 0 40 77 56 116 23z m91 -16 c4 -10 -2 -23 -16 -35 -44
-35 -67 -16 -35 30 18 26 42 29 51 5z m-31 -118 c16 -12 16 -14 3 -15 -9 0
-22 7 -29 15 -16 19 0 19 26 0z m344 -85 c0 -18 -27 -64 -49 -84 -21 -19 -21
-19 -21 4 0 29 37 90 56 90 8 0 14 -5 14 -10z m290 3 c0 -11 -12 -26 -34 -43
-19 -15 -19 -15 -1 18 18 30 35 42 35 25z m1080 -1 c0 -5 -11 -19 -25 -32 -28
-26 -33 -16 -9 18 15 22 34 30 34 14z m400 0 c0 -5 -11 -19 -25 -32 -28 -26
-33 -16 -9 18 15 22 34 30 34 14z m300 -2 c0 -18 -27 -64 -49 -84 -21 -19 -21
-19 -21 4 0 29 37 90 56 90 8 0 14 -5 14 -10z m150 2 c0 -5 -11 -19 -25 -32
-28 -26 -33 -16 -9 18 15 22 34 30 34 14z m1697 -16 c-3 -8 -16 -20 -28 -26
-17 -10 -20 -9 -14 2 24 41 55 59 42 24z m398 3 c-3 -8 -15 -20 -26 -27 -17
-11 -20 -11 -14 0 23 39 52 59 40 27z m695 2 c-12 -23 -29 -35 -37 -27 -7 7
26 46 39 46 5 0 4 -9 -2 -19z m-5345 -21 c71 -67 -19 -128 -95 -64 -27 24 -60
72 -60 90 0 3 29 4 65 2 50 -3 70 -9 90 -28z m4900 -19 c-3 -16 -13 -35 -21
-42 -12 -10 -13 -9 -8 5 3 9 1 16 -6 16 -6 0 -2 13 10 31 26 35 35 32 25 -10z
m-4671 -186 c-8 -20 20 -20 36 0 11 13 101 15 695 15 538 0 684 -3 688 -12 3
-10 9 -10 26 -1 31 19 2527 19 2534 1 3 -10 9 -10 26 -1 16 10 212 13 889 13
l869 0 19 -22 c11 -13 37 -47 57 -75 l37 -53 -3540 0 c-1947 0 -3540 3 -3540
8 1 4 23 37 51 75 l49 67 555 0 c489 0 554 -2 549 -15z"/>
<path d="M8889 5917 l-53 -65 -24 19 c-47 37 -161 18 -196 -32 -23 -33 -20
-101 8 -198 13 -45 27 -85 30 -88 7 -7 366 85 379 97 8 7 -11 90 -21 90 -2 0
-29 -7 -59 -16 -60 -17 -58 -18 -67 11 -4 16 7 36 43 79 l49 58 -15 52 c-8 28
-16 52 -18 54 -2 2 -27 -26 -56 -61z m-99 -163 c26 -67 25 -70 -27 -81 -26 -7
-52 -8 -57 -3 -4 4 -9 32 -10 61 -1 48 1 53 24 59 32 9 59 -5 70 -36z"/>
<path d="M8870 5455 l-185 -106 4 -42 c1 -23 4 -43 6 -45 5 -6 391 -112 408
-112 15 0 17 6 12 38 -10 57 -11 59 -49 66 -43 8 -52 23 -61 102 l-7 62 42 23
c32 18 40 28 36 44 -3 11 -6 32 -6 48 0 15 -3 27 -7 27 -5 0 -91 -48 -193
-105z m50 -126 c0 -32 -10 -35 -59 -18 l-33 12 39 22 c45 26 53 24 53 -16z"/>
<path d="M8716 5084 c-3 -26 -6 -98 -6 -161 l0 -114 43 3 42 3 3 53 3 53 160
-7 160 -7 -3 49 -3 49 -135 2 c-186 4 -183 3 -178 63 3 44 1 50 -17 50 -11 0
-29 3 -41 6 -19 5 -22 0 -28 -42z"/>
<path d="M8696 4724 c-12 -31 -7 -84 9 -84 8 0 96 -9 196 -21 100 -11 183 -18
186 -16 2 3 5 24 6 48 l2 44 -145 16 c-80 9 -168 20 -196 23 -42 5 -53 3 -58
-10z"/>
<path d="M8981 4473 c-5 -21 -15 -57 -20 -80 -9 -31 -15 -40 -29 -37 -9 2 -75
18 -145 34 -71 17 -132 30 -136 30 -9 0 -33 -82 -26 -88 6 -6 387 -94 390 -90
4 6 55 218 55 232 0 8 -10 18 -22 21 -13 4 -31 9 -40 11 -13 4 -19 -4 -27 -33z"/>
<path d="M8571 4179 c-7 -23 -11 -42 -9 -44 6 -5 364 -115 375 -115 9 0 38 78
31 85 -7 6 -357 115 -370 115 -9 0 -20 -17 -27 -41z"/>
<path d="M8502 3995 c-12 -25 -22 -51 -22 -58 0 -6 32 -48 70 -92 l70 -80
-116 -3 -115 -3 -25 -56 c-14 -30 -24 -56 -22 -57 12 -9 352 -156 359 -156 10
0 39 53 39 72 0 8 -41 32 -92 53 l-92 40 39 7 c22 4 68 7 102 7 51 1 64 5 73
20 5 11 10 24 10 29 0 4 -30 43 -66 85 -36 42 -63 77 -60 77 3 0 46 -18 97
-40 51 -23 97 -39 103 -37 11 4 41 76 34 81 -9 7 -351 156 -357 156 -4 0 -17
-20 -29 -45z"/>
<path d="M2542 6077 c-7 -18 -12 -39 -12 -45 0 -6 32 -21 71 -33 42 -13 68
-26 66 -33 -2 -6 -12 -36 -22 -67 l-18 -56 -71 23 c-39 12 -74 19 -77 16 -13
-14 -29 -76 -22 -83 7 -6 363 -119 375 -119 10 0 29 83 21 90 -4 3 -36 15 -71
25 -35 10 -65 22 -67 25 -3 4 5 35 16 69 23 69 18 67 126 30 l52 -17 15 44 c8
24 12 46 8 48 -10 6 -361 116 -370 116 -5 0 -13 -15 -20 -33z"/>
<path d="M2415 5638 c-3 -18 -14 -80 -25 -138 -10 -58 -15 -108 -12 -111 4 -4
23 -9 44 -13 l36 -7 17 96 c16 85 20 95 39 95 45 0 49 -11 33 -94 -7 -42 -11
-78 -8 -80 3 -3 22 -7 42 -11 l37 -7 11 69 c17 101 17 99 54 95 l33 -4 -14
-90 c-17 -101 -13 -110 43 -106 l29 3 23 125 c12 69 22 130 23 136 0 7 -66 22
-167 38 -93 15 -182 29 -200 32 -30 6 -32 4 -38 -28z"/>
<path d="M2360 5220 l0 -50 60 0 c59 0 60 -1 60 -27 0 -24 -11 -34 -65 -67
-58 -34 -65 -42 -65 -70 0 -17 -3 -41 -6 -53 -9 -32 6 -29 80 17 l65 39 34
-34 c32 -32 40 -35 95 -35 106 0 137 47 144 215 l3 90 -75 6 c-41 4 -132 9
-202 13 l-128 6 0 -50z m310 -109 c0 -32 -6 -55 -16 -65 -18 -19 -24 -19 -58
-6 -24 9 -26 15 -26 65 l0 55 50 0 50 0 0 -49z"/>
<path d="M2485 4852 c-133 -64 -155 -240 -42 -339 35 -31 90 -53 133 -53 11 0
43 7 71 15 160 47 190 265 50 362 -52 36 -152 43 -212 15z m164 -96 c78 -41
60 -160 -28 -187 -55 -16 -104 -5 -135 32 -44 52 -30 125 29 157 28 16 101 15
134 -2z"/>
<path d="M2625 4376 c-99 -24 -180 -47 -180 -52 1 -19 16 -84 20 -84 4 0 247
56 371 85 20 4 21 8 11 50 -7 31 -15 45 -26 44 -9 -1 -97 -20 -196 -43z"/>
<path d="M2684 4204 c-48 -17 -102 -66 -120 -111 -38 -90 8 -212 98 -259 36
-18 35 -19 53 16 21 40 19 47 -14 64 -15 8 -36 32 -46 52 -33 69 8 138 91 151
88 14 148 -64 120 -158 -7 -23 -3 -27 34 -42 l41 -16 15 34 c44 106 -22 240
-135 274 -49 14 -86 13 -137 -5z"/>
<path d="M2860 3767 c-113 -11 -206 -21 -208 -23 -2 -1 6 -20 17 -43 20 -38
23 -40 73 -43 51 -3 52 -4 84 -58 18 -30 33 -60 34 -67 0 -6 -12 -25 -26 -42
l-25 -31 22 -40 c13 -22 26 -40 30 -40 4 0 66 74 138 165 l131 165 -25 40
c-14 22 -29 39 -33 39 -4 -1 -99 -11 -212 -22z m111 -105 c-5 -9 -18 -25 -29
-36 -20 -17 -21 -17 -36 12 -18 34 -12 40 42 41 28 1 31 -1 23 -17z"/>
<path d="M3447 2690 c-64 -83 -117 -154 -117 -158 0 -4 53 -45 117 -91 l116
-85 23 30 c13 16 24 32 24 36 0 4 -34 32 -75 63 -66 48 -74 58 -65 75 18 35
31 33 101 -16 l70 -48 24 30 c13 16 24 31 24 34 0 3 -31 27 -70 53 l-69 48 20
29 21 29 74 -54 c41 -30 78 -55 83 -55 14 0 55 61 46 69 -19 17 -222 161 -226
161 -2 0 -57 -68 -121 -150z"/>
<path d="M7732 2722 c-18 -15 -32 -31 -32 -35 0 -7 180 -226 231 -281 17 -18
20 -17 111 54 51 40 97 76 102 80 9 8 -32 70 -46 70 -5 0 -34 -20 -66 -45 -31
-25 -60 -45 -64 -45 -3 0 -50 52 -103 115 -54 63 -98 115 -99 115 0 0 -16 -13
-34 -28z"/>
<path d="M3829 2575 c-27 -14 -59 -69 -59 -100 0 -25 18 -55 67 -109 47 -53
52 -79 14 -84 -27 -4 -74 36 -91 79 -14 32 -22 34 -69 18 -36 -13 -36 -28 5
-91 50 -79 156 -118 222 -84 36 19 62 62 62 104 0 29 -38 90 -79 126 -11 11
-21 30 -21 43 0 50 78 16 116 -52 9 -17 14 -18 42 -6 42 18 46 25 28 58 -46
89 -164 138 -237 98z"/>
<path d="M7495 2554 c-11 -8 -26 -19 -33 -23 -11 -6 -5 -48 26 -210 22 -111
42 -205 45 -207 3 -3 24 7 46 21 42 28 43 30 25 96 -3 11 16 30 61 59 l65 43
43 -23 43 -23 37 24 c20 13 37 27 37 31 0 7 -356 228 -368 228 -4 0 -16 -8
-27 -16z m121 -148 l35 -23 -33 -21 -33 -21 -7 22 c-8 28 -10 67 -2 67 3 0 21
-11 40 -24z"/>
<path d="M7283 2428 c-38 -23 -39 -29 -22 -160 7 -49 9 -91 6 -94 -3 -3 -47
28 -98 69 l-93 75 -43 -21 c-24 -12 -43 -24 -43 -28 0 -4 74 -67 165 -139
l166 -131 34 21 c19 12 35 23 35 24 0 1 -9 76 -20 167 -33 270 -27 255 -87
217z"/>
<path d="M4165 2375 c-50 -18 -111 -85 -126 -139 -41 -151 111 -287 273 -243
l27 7 -15 44 c-15 44 -16 44 -45 34 -23 -8 -40 -7 -75 7 -67 26 -91 83 -59
145 21 40 53 60 98 60 53 0 96 -25 113 -66 l14 -34 36 15 c20 8 38 15 40 15
14 0 -1 44 -27 79 -55 77 -161 109 -254 76z"/>
<path d="M4487 2158 c-58 -146 -62 -167 -42 -214 21 -51 42 -73 90 -95 72 -33
154 -20 202 33 13 13 45 79 72 146 l49 121 -44 17 c-25 9 -46 15 -48 13 -2 -2
-23 -51 -46 -109 -48 -121 -70 -150 -115 -150 -75 0 -83 63 -25 205 22 54 40
102 40 106 0 4 -12 12 -27 17 -16 5 -35 13 -44 17 -13 5 -25 -15 -62 -107z"/>
<path d="M6824 2218 c-31 -10 -32 -11 -37 -92 -4 -44 -10 -141 -13 -214 l-7
-133 49 18 c48 18 49 20 52 63 l3 45 74 26 74 26 32 -33 31 -32 47 15 c25 9
48 18 51 20 8 7 -295 303 -310 302 -8 -1 -29 -6 -46 -11z m114 -199 c-7 -4
-23 -10 -35 -13 -22 -7 -23 -4 -23 40 l0 48 35 -34 c25 -24 31 -36 23 -41z"/>
<path d="M4916 2121 c-8 -12 -89 -372 -85 -375 2 -1 68 -16 147 -32 l142 -31
10 36 c14 49 14 49 -22 56 -163 34 -165 34 -160 61 2 14 11 28 18 31 11 4 68
-5 141 -23 18 -5 23 0 32 32 6 21 9 40 6 42 -2 2 -39 12 -82 21 -75 17 -78 19
-76 46 1 15 4 30 7 32 3 3 46 -4 96 -15 49 -11 92 -17 94 -13 2 3 7 23 11 43
l7 36 -59 12 c-32 7 -95 20 -141 30 -45 10 -84 15 -86 11z"/>
<path d="M6533 2123 c-29 -6 -29 -17 2 -128 14 -49 25 -93 25 -98 0 -4 -53 33
-119 82 l-118 90 -42 -11 c-22 -6 -41 -14 -41 -19 0 -18 93 -354 100 -362 8
-9 90 10 90 21 0 4 -11 49 -25 101 -14 52 -23 96 -21 98 2 3 53 -32 113 -77
103 -78 110 -81 148 -75 22 3 43 9 47 13 4 4 -14 88 -41 187 -52 195 -50 192
-118 178z"/>
<path d="M5269 2052 c0 -4 -10 -90 -23 -192 -13 -102 -22 -186 -21 -188 3 -4
257 -33 261 -30 1 2 4 21 6 43 l3 40 -80 9 c-44 5 -81 9 -82 10 0 1 7 68 17
151 10 82 18 150 17 151 -9 6 -97 12 -98 6z"/>
<path d="M5620 1834 c-47 -103 -86 -191 -88 -195 -2 -5 20 -9 50 -9 52 0 53 1
70 40 l17 40 80 0 81 0 16 -40 c16 -40 17 -40 70 -40 l53 0 -14 33 c-7 17 -45
104 -84 192 l-70 160 -48 3 -48 3 -85 -187z m153 4 l16 -38 -40 0 -39 0 20 41
c12 23 23 39 25 37 1 -1 10 -20 18 -40z"/>
<path d="M3278 1178 c-9 -13 -27 -45 -41 -73 -14 -27 -38 -66 -54 -86 -23 -29
-28 -45 -25 -72 6 -51 28 -54 69 -11 44 47 34 58 -12 14 -19 -19 -35 -30 -35
-26 0 5 32 67 70 138 39 71 70 131 70 134 0 13 -30 1 -42 -18z"/>
<path d="M3929 1148 c-13 -29 -43 -81 -66 -115 -24 -35 -38 -63 -32 -63 5 0 3
-10 -5 -22 -20 -28 -20 -38 -2 -38 8 0 30 22 50 49 46 63 77 89 47 41 -42 -69
-17 -118 35 -69 l22 21 7 -22 c6 -18 12 -21 37 -16 17 3 37 1 44 -5 11 -9 22
-3 50 25 20 20 33 40 29 44 -4 4 -17 -6 -30 -23 -35 -43 -39 -26 -7 32 26 50
26 77 -1 55 -10 -9 -17 -8 -25 0 -19 19 -70 -14 -116 -73 -43 -56 -59 -59 -27
-4 35 60 21 106 -21 68 -14 -12 -7 10 26 75 40 79 44 92 28 92 -13 0 -26 -17
-43 -52z m151 -128 c0 -18 -27 -64 -49 -84 -21 -19 -21 -19 -21 5 0 34 38 88
63 89 4 0 7 -5 7 -10z"/>
<path d="M4375 1115 c-27 -60 -41 -83 -49 -75 -17 17 -33 12 -71 -21 -34 -30
-43 -58 -29 -93 7 -18 49 -22 59 -5 5 6 11 4 19 -6 11 -15 15 -15 44 9 30 26
31 27 42 6 15 -28 49 -25 82 7 41 39 34 51 -8 14 -19 -17 -39 -29 -45 -26 -17
11 -9 23 29 42 23 13 38 28 40 43 10 62 -55 45 -112 -31 -21 -27 -42 -49 -46
-49 -5 0 20 61 55 135 54 113 61 135 46 135 -13 0 -28 -24 -56 -85z m-55 -95
c0 -18 -27 -64 -49 -84 -19 -17 -21 -18 -21 -2 0 10 5 27 11 39 23 45 59 73
59 47z m150 2 c0 -5 -11 -19 -25 -32 -29 -27 -32 -21 -9 15 16 24 34 33 34 17z"/>
<path d="M6044 1120 c-30 -65 -41 -79 -55 -75 -24 8 -72 -18 -90 -47 -18 -28
-13 -77 8 -85 9 -3 24 -1 34 6 12 7 19 7 19 1 0 -21 50 -10 66 15 l17 26 11
-23 c16 -32 53 -35 82 -7 19 17 24 19 24 7 0 -9 7 -21 15 -28 12 -10 20 -9 42
6 48 32 83 45 83 30 0 -7 8 -20 18 -28 22 -20 51 -10 81 28 30 39 17 43 -18 5
-31 -33 -51 -40 -51 -18 0 8 17 25 37 38 40 26 54 56 31 70 -25 16 -42 9 -85
-37 l-43 -47 7 48 c8 64 -15 58 -32 -9 -13 -50 -35 -81 -55 -74 -7 2 14 54 54
136 37 73 66 135 66 138 0 2 -7 4 -15 4 -8 0 -30 -31 -51 -72 -32 -65 -119
-198 -129 -198 -2 0 -10 -3 -19 -6 -32 -12 -16 23 22 47 45 29 53 72 13 77
-18 3 -37 -11 -82 -60 -32 -34 -59 -60 -59 -55 0 4 29 66 65 137 56 112 62
130 46 130 -14 0 -29 -21 -57 -80z m-59 -112 c-7 -23 -52 -88 -61 -88 -11 0
-2 49 16 78 23 38 55 45 45 10z m145 3 c-11 -21 -29 -36 -35 -29 -3 2 2 14 11
26 19 28 39 30 24 3z m250 0 c-12 -23 -29 -35 -37 -27 -7 7 26 46 39 46 5 0 4
-9 -2 -19z"/>
<path d="M6997 1133 c-4 -3 -7 -12 -7 -20 0 -17 26 -17 33 1 8 21 -11 35 -26
19z"/>
<path d="M8127 1125 c-7 -16 8 -29 23 -20 15 9 12 35 -4 35 -8 0 -16 -7 -19
-15z"/>
<path d="M6516 1019 c-32 -45 -30 -65 3 -23 26 33 29 11 4 -44 -12 -27 -17
-32 -20 -19 -6 23 -23 22 -23 -3 0 -31 42 -30 77 2 l21 20 11 -21 c20 -37 52
-26 114 41 l59 63 -31 -57 c-36 -66 -36 -68 -17 -68 8 0 26 15 40 33 14 17 26
26 26 20 0 -18 35 -16 50 2 15 17 7 19 -21 5 -27 -15 -24 3 6 36 29 31 32 44
10 44 -9 0 -21 -12 -28 -26 l-12 -27 -5 23 c-8 36 -27 35 -58 -1 -54 -66 -92
-100 -102 -94 -18 11 -10 25 25 42 37 18 56 56 37 75 -16 16 -68 -9 -94 -45
l-22 -31 -8 29 c-4 17 -3 34 2 39 14 14 12 26 -2 26 -7 0 -26 -19 -42 -41z
m154 3 c0 -5 -11 -19 -25 -32 -29 -27 -32 -21 -9 15 16 24 34 33 34 17z"/>
<path d="M7466 6375 c-3 -13 0 -57 9 -96 13 -65 29 -101 95 -211 l22 -38 -69
33 c-56 26 -80 32 -137 32 -84 0 -94 -15 -28 -42 51 -21 59 -30 151 -159 67
-92 116 -126 206 -143 33 -6 76 -23 98 -38 45 -31 89 -81 82 -93 -10 -16 -97
3 -120 26 -30 30 -78 31 -105 4 -27 -27 -25 -59 7 -92 30 -31 53 -35 86 -13
21 13 32 13 99 -2 74 -16 77 -17 82 -49 5 -26 1 -41 -24 -76 -16 -24 -36 -67
-42 -95 -7 -29 -16 -53 -20 -53 -4 0 -12 18 -18 40 -6 22 -15 40 -20 40 -10 0
-56 -58 -97 -125 -46 -75 -68 -149 -68 -235 0 -96 20 -134 124 -244 55 -59 89
-106 119 -167 39 -79 54 -149 32 -149 -5 0 -43 21 -85 46 -64 39 -75 49 -75
73 0 34 -37 71 -72 71 -17 0 -35 -11 -52 -31 -31 -37 -32 -49 -5 -83 16 -20
29 -26 60 -26 42 0 82 -23 164 -93 34 -29 38 -37 27 -50 -8 -9 -27 -19 -43
-22 -28 -6 -139 -99 -184 -154 l-20 -25 -12 73 c-8 47 -22 88 -38 113 -30 45
-41 43 -36 -7 3 -45 -25 -104 -89 -190 -29 -38 -74 -103 -99 -144 l-46 -74 0
-127 c0 -121 -1 -129 -30 -185 -16 -32 -35 -60 -41 -62 -7 -2 -26 15 -43 39
-23 31 -31 53 -31 84 0 49 -25 74 -73 74 -33 0 -77 -40 -77 -70 0 -28 43 -70
73 -70 20 0 27 -10 51 -79 26 -75 27 -81 12 -103 -9 -12 -16 -30 -16 -39 0
-13 -15 -17 -78 -21 -42 -3 -94 -13 -115 -21 l-37 -16 25 33 c37 48 33 64 -17
71 -95 13 -299 -49 -372 -113 -24 -22 -87 -115 -115 -169 -32 -64 -74 -107
-149 -151 l-67 -40 -135 -5 c-74 -3 -145 -9 -157 -12 -20 -6 -23 -4 -23 17 0
34 -18 48 -64 48 l-41 0 0 -123 c0 -110 -3 -127 -26 -178 -28 -59 -48 -78
-199 -191 -72 -54 -130 -115 -130 -137 0 -3 16 -24 34 -46 l34 -40 44 50 c50
58 130 135 140 135 4 0 10 -9 13 -20 9 -29 68 -66 153 -94 40 -14 87 -37 103
-51 35 -29 59 -32 59 -7 0 9 14 29 32 45 32 26 32 28 14 42 -10 8 -63 28 -116
45 -73 22 -107 39 -139 67 l-43 38 34 32 34 33 48 -35 c27 -19 78 -44 114 -56
54 -18 124 -64 152 -100 7 -9 160 -8 160 1 0 4 -28 33 -62 64 -39 37 -91 71
-145 96 -46 22 -87 40 -89 40 -3 0 -32 21 -65 46 -47 37 -59 53 -59 75 l0 28
68 -23 c101 -35 162 -69 211 -120 61 -62 126 -73 151 -26 9 16 4 27 -25 59
-20 22 -58 54 -86 71 -50 33 -197 93 -279 114 l-44 12 84 19 c47 10 121 18
165 18 69 -1 95 -7 190 -43 259 -99 310 -107 418 -66 82 31 150 78 347 242 40
33 79 54 170 91 24 10 24 11 -17 22 -23 6 -76 12 -117 13 l-74 2 50 59 c27 32
65 91 85 130 19 40 36 73 38 75 1 1 40 -8 86 -20 66 -17 91 -29 115 -55 38
-40 66 -42 100 -8 33 33 30 80 -8 108 -27 20 -29 20 -63 4 -35 -17 -36 -16
-100 15 -36 18 -65 36 -65 40 0 14 93 68 135 79 328 86 479 169 542 297 26 53
28 65 28 179 0 134 -1 136 -56 107 -17 -8 -32 -14 -34 -12 -2 2 -5 35 -6 74
-3 62 -1 74 21 102 22 27 33 32 92 38 59 6 70 4 94 -15 15 -11 37 -21 49 -21
30 0 75 44 75 73 0 56 -87 89 -125 47 -14 -16 -31 -20 -77 -20 -32 0 -58 3
-58 8 1 25 33 138 47 166 10 18 46 56 80 85 34 28 74 66 88 85 54 70 65 176
43 378 -12 104 -5 203 18 261 4 11 1 17 -9 17 -24 0 -86 -68 -116 -128 l-27
-53 -51 98 c-31 60 -53 118 -58 149 l-6 51 70 72 c51 51 78 71 97 71 28 0 74
40 74 65 0 28 -18 52 -50 65 -28 11 -34 11 -58 -7 -18 -14 -28 -31 -30 -54 -3
-28 -11 -39 -53 -67 -27 -18 -55 -30 -61 -26 -17 10 -3 144 26 258 30 114 32
162 10 235 -27 93 -91 147 -244 205 -71 28 -84 23 -69 -28 5 -17 9 -32 9 -34
0 -1 -17 9 -38 22 -46 29 -149 81 -178 90 -17 5 -23 2 -28 -19z m722 -597 c7
-7 12 -21 12 -33 0 -49 -71 -65 -92 -20 -9 21 -8 28 7 45 20 22 55 26 73 8z
m-142 -163 c-15 -19 -35 -39 -45 -45 -16 -8 -20 -5 -24 16 -4 22 2 30 42 55
53 34 64 23 27 -26z m-288 23 c7 -7 12 -21 12 -33 0 -28 -19 -45 -50 -45 -31
0 -50 17 -50 45 0 28 19 45 50 45 14 0 31 -5 38 -12z m130 -44 c18 -4 32 -14
35 -25 5 -18 1 -19 -31 -13 -44 8 -72 21 -72 34 0 11 24 13 68 4z m-145 -1015
c16 -25 0 -68 -27 -75 -52 -13 -93 40 -60 77 21 24 72 22 87 -2z m185 -187
c-5 -27 -23 -23 -61 12 -53 48 -47 62 13 30 31 -17 50 -33 48 -42z m284 12
c16 -34 0 -58 -41 -62 -38 -4 -61 12 -61 42 0 31 19 46 57 46 26 0 36 -6 45
-26z m-157 -23 c-6 -6 -29 -13 -52 -17 -36 -5 -43 -4 -43 10 0 13 11 16 52 16
33 0 48 -4 43 -9z m-907 -683 c20 -20 15 -66 -9 -78 -27 -15 -66 -5 -79 21
-25 45 51 94 88 57z m57 -148 c25 -37 27 -43 15 -65 -8 -14 -18 -24 -24 -22
-22 7 -48 127 -27 127 4 0 21 -18 36 -40z m148 -122 c35 -18 56 -33 48 -36
-15 -5 -151 17 -151 25 0 12 22 43 31 43 5 0 38 -14 72 -32z m168 -18 c22 -12
26 -59 7 -78 -7 -7 -27 -12 -45 -12 -39 0 -58 26 -44 63 14 36 46 46 82 27z"/>
<path d="M3684 6374 c-40 -20 -65 -46 -101 -108 -35 -60 -53 -69 -53 -27 0 17
-10 41 -23 56 -28 33 -65 27 -103 -18 -26 -31 -26 -35 -20 -122 7 -107 -1
-129 -33 -89 -11 14 -21 30 -21 35 0 14 -43 49 -61 49 -9 0 -27 -8 -39 -18
-37 -30 -31 -89 19 -184 29 -56 41 -92 41 -121 0 -23 11 -65 24 -93 13 -28 27
-70 31 -94 8 -46 -2 -150 -14 -150 -4 0 -22 20 -40 45 -31 43 -31 45 -16 74
30 59 10 99 -45 87 -22 -4 -32 -1 -37 10 -9 25 -60 46 -83 34 -24 -13 -27 -56
-4 -81 13 -14 13 -22 4 -39 -10 -18 -8 -26 10 -45 14 -15 37 -25 58 -27 34 -3
38 -7 81 -92 36 -72 42 -91 33 -105 -7 -9 -20 -30 -29 -48 l-16 -32 -25 20
c-37 28 -54 9 -42 -46 5 -22 7 -41 5 -43 -2 -2 -25 8 -51 22 -57 30 -67 31
-88 10 -36 -35 -11 -102 56 -151 64 -47 133 -112 125 -119 -3 -3 -25 10 -47
29 -23 19 -56 42 -73 51 -30 15 -33 15 -49 -5 -22 -27 -24 -99 -3 -140 19 -36
71 -74 153 -113 34 -16 62 -33 62 -38 0 -14 -39 -9 -65 8 -14 9 -39 14 -62 12
-31 -2 -39 -7 -41 -26 -5 -34 32 -70 106 -104 49 -22 69 -38 90 -72 48 -78 66
-111 64 -118 -1 -5 2 -8 6 -8 4 0 25 -20 45 -45 l38 -45 -39 0 c-35 0 -41 3
-47 28 -15 62 -79 93 -107 53 -10 -14 -28 -21 -64 -23 -45 -3 -49 -5 -52 -30
-3 -22 2 -28 32 -39 26 -9 36 -19 36 -34 0 -12 5 -26 12 -33 19 -19 73 -14
101 9 26 20 28 20 112 3 69 -14 92 -23 122 -51 l38 -33 -35 5 c-73 11 -75 -27
-3 -80 49 -36 113 -97 113 -107 0 -17 -49 -7 -101 22 -63 34 -77 36 -95 13
-22 -30 -16 -77 16 -121 35 -48 63 -65 150 -87 106 -26 130 -36 130 -51 0 -20
-45 -18 -120 6 -34 11 -70 20 -79 20 -23 0 -41 -20 -41 -44 0 -26 54 -109 96
-146 39 -34 91 -40 134 -15 14 8 40 14 58 15 27 0 32 -3 32 -24 0 -14 -4 -28
-10 -31 -18 -11 -10 -32 16 -44 21 -9 37 -9 82 4 32 10 69 14 88 11 48 -9 256
-166 219 -166 -2 0 -26 5 -52 10 -40 9 -51 17 -63 43 -9 19 -27 36 -44 42 -24
8 -31 6 -50 -15 -14 -17 -32 -25 -55 -26 -23 -1 -41 -9 -53 -24 -16 -20 -16
-25 -3 -50 14 -26 68 -55 85 -45 4 3 10 -4 13 -15 3 -11 17 -25 31 -31 23 -11
31 -10 54 8 15 11 28 30 30 42 4 23 0 23 112 -5 38 -9 62 -22 77 -41 l23 -28
-63 -10 c-60 -11 -157 -63 -157 -85 0 -18 43 -32 81 -27 33 4 38 2 44 -20 6
-25 6 -25 93 -18 78 6 90 5 111 -12 l24 -19 -54 -26 c-30 -14 -60 -32 -67 -41
-29 -35 16 -68 103 -75 51 -4 69 0 110 20 68 34 106 43 116 26 17 -26 8 -37
-51 -69 -33 -17 -62 -40 -65 -50 -13 -40 48 -89 109 -89 38 0 93 24 161 70 46
31 85 43 85 27 0 -6 -21 -32 -46 -58 -40 -40 -46 -51 -40 -74 7 -26 9 -27 60
-23 53 4 124 34 161 68 43 38 99 60 156 60 31 0 85 9 119 20 64 20 186 28 175
11 -3 -5 -49 -27 -102 -47 -280 -109 -387 -194 -283 -225 48 -15 58 -11 173
65 102 67 172 102 220 111 33 6 37 5 37 -13 0 -14 -16 -29 -47 -47 -27 -15
-73 -47 -103 -70 -30 -23 -65 -47 -77 -54 -38 -20 -157 -201 -142 -216 3 -3
24 4 47 15 23 11 56 23 72 27 22 4 35 15 44 38 21 48 89 108 179 157 44 23 93
55 109 70 l28 26 0 135 c0 75 3 143 6 152 6 14 -1 16 -52 13 -55 -3 -59 -5
-62 -29 -3 -25 -4 -25 -55 -18 -29 4 -97 8 -152 9 -116 1 -128 7 -155 76 -21
57 -41 74 -64 55 -9 -8 -16 -22 -16 -32 0 -24 -20 -35 -31 -18 -5 8 -18 43
-29 79 -26 87 -86 143 -167 156 -58 9 -69 -10 -49 -80 34 -116 17 -114 -58 10
-32 52 -69 102 -82 110 -37 25 -97 29 -117 9 -16 -15 -15 -19 14 -55 22 -27
29 -44 24 -59 -3 -12 -11 -21 -16 -21 -5 0 -30 27 -56 60 -47 61 -81 80 -145
80 l-26 0 4 78 c7 109 10 119 39 126 33 8 51 46 36 75 -7 11 -18 21 -26 21
-10 0 -15 10 -15 28 0 34 -16 52 -46 52 -23 0 -64 -42 -64 -66 0 -8 -9 -14
-21 -14 -17 0 -20 -5 -17 -37 2 -28 10 -42 33 -58 30 -20 32 -26 19 -85 l-6
-25 -20 25 c-11 14 -40 47 -65 74 -63 69 -77 105 -69 187 8 73 0 119 -18 119
-7 0 -25 -13 -41 -30 -16 -16 -32 -30 -37 -30 -12 0 -10 43 7 107 27 105 11
187 -48 241 -38 36 -66 26 -87 -31 -21 -56 -37 -77 -56 -77 -21 0 -18 60 6
120 36 91 16 200 -35 200 -25 0 -29 -8 -40 -72 -3 -21 -10 -40 -16 -44 -18
-11 -39 18 -39 52 0 27 -5 35 -24 40 -19 4 -26 14 -28 37 -5 49 -28 39 -51
-21 l-20 -53 -25 24 -24 25 16 74 c16 73 17 75 54 84 47 12 66 52 37 83 -13
15 -16 30 -12 55 4 25 1 42 -12 57 -25 31 -72 15 -86 -29 -5 -19 -16 -32 -26
-32 -43 0 -66 -77 -30 -102 18 -12 18 -18 7 -72 l-11 -58 -32 49 c-36 56 -51
120 -34 151 6 12 47 64 91 117 44 53 80 103 80 111 0 17 -42 19 -71 3 -49 -26
-47 -4 7 85 50 83 54 94 54 151 0 49 -4 66 -20 80 -27 25 -60 14 -122 -42 -43
-38 -54 -43 -56 -29 -2 9 8 34 23 55 67 98 27 183 -55 115 -35 -30 -40 -28
-49 18 -5 25 -1 47 18 89 27 59 49 87 122 157 l45 43 39 -17 c32 -13 42 -14
62 -3 20 11 23 20 21 48 -2 29 2 41 25 60 63 53 2 111 -64 61 -24 -17 -33 -19
-50 -9 -17 9 -25 7 -46 -13 -20 -19 -24 -30 -20 -60 4 -31 1 -40 -19 -53 -13
-8 -36 -23 -51 -32 l-26 -17 7 39 c11 59 52 131 91 161 35 26 46 59 23 66 -7
3 31 21 84 42 92 36 128 59 128 84 0 21 -45 42 -92 42 -92 0 -42 43 77 65 89
17 142 46 151 81 9 33 2 38 -64 44 -72 6 -75 25 -11 60 56 31 90 58 112 90 42
60 2 105 -68 76 -58 -25 -73 -21 -77 17 -4 38 -27 45 -74 21z m-518 -669 c21
-21 23 -29 14 -40 -18 -21 -36 -18 -54 7 -37 53 -5 78 40 33z m102 -53 c4 -28
-47 -82 -78 -82 -30 0 -60 18 -60 36 0 8 12 19 27 25 15 6 36 19 46 30 24 26
61 21 65 -9z m412 -2 c0 -37 -76 -66 -87 -33 -6 18 34 53 62 53 18 0 25 -5 25
-20z m-94 -47 c46 -49 54 -70 29 -79 -45 -18 -113 52 -101 102 9 34 23 30 72
-23z m-261 -145 c4 -10 2 -26 -4 -35 -8 -15 -14 -10 -35 37 -14 30 -26 62 -26
70 0 16 56 -46 65 -72z m155 49 c0 -2 -18 -21 -40 -42 -35 -34 -40 -36 -40
-18 0 13 12 29 33 41 30 19 47 26 47 19z m178 -887 c4 -39 -8 -54 -38 -45 -19
6 -21 12 -16 38 11 56 49 61 54 7z m-28 -60 c56 -14 65 -22 51 -48 -24 -45
-134 -29 -147 22 -8 33 3 49 30 43 11 -3 41 -11 66 -17z m-46 -167 c-8 -56
-12 -65 -25 -58 -20 13 -1 105 21 105 8 0 9 -16 4 -47z m-256 25 c7 -7 12 -28
12 -49 0 -49 -32 -89 -71 -89 -38 0 -46 22 -20 56 12 15 21 41 21 60 0 29 4
34 23 34 13 0 28 -5 35 -12z m-78 -43 c0 -16 -43 -21 -74 -9 -31 12 -16 24 29
24 33 0 45 -4 45 -15z m231 -64 l24 -20 -36 8 c-20 5 -44 13 -55 19 -17 10
-16 11 12 12 18 0 42 -9 55 -19z m914 -666 c0 -25 -4 -30 -27 -33 -22 -3 -28
1 -28 17 0 35 12 52 34 49 16 -2 21 -10 21 -33z m45 -67 c0 -20 -48 -48 -82
-48 -31 0 -68 27 -68 49 0 16 9 18 75 17 64 0 75 -3 75 -18z m-75 -185 c-4
-27 -10 -41 -17 -37 -11 7 -4 107 10 128 10 16 15 -40 7 -91z m-261 45 c18
-25 21 -100 6 -129 -12 -21 -40 -25 -58 -7 -13 13 -17 140 -5 151 13 14 42 6
57 -15z m-84 -58 c0 -26 -4 -30 -28 -30 -32 0 -52 16 -52 42 0 14 8 18 40 18
38 0 40 -2 40 -30z m264 -31 c5 -5 8 -11 5 -13 -7 -7 -93 14 -104 25 -12 13
85 1 99 -12z"/>
</g>
</svg>
