<?xml version="1.0" standalone="no"?>
<!DOCTYPE svg PUBLIC "-//W3C//DTD SVG 20010904//EN"
 "http://www.w3.org/TR/2001/REC-SVG-20010904/DTD/svg10.dtd">
<svg version="1.0" xmlns="http://www.w3.org/2000/svg"
 width="3073.000000pt" height="2089.000000pt" viewBox="0 0 3073.000000 2089.000000"
 preserveAspectRatio="xMidYMid meet">

<g transform="translate(0.000000,2089.000000) scale(0.100000,-0.100000)"
fill="#000000" stroke="none">
<path d="M14855 20860 c-1739 -62 -3358 -371 -4960 -947 -411 -148 -1006 -396
-1381 -577 l-181 -88 -86 -216 c-847 -2142 -1196 -4435 -1026 -6747 112 -1541
474 -3112 1038 -4508 l76 -190 190 -89 c2518 -1188 5281 -1692 8105 -1478
1759 134 3483 557 5105 1253 144 62 638 290 661 305 11 7 138 322 226 562 554
1507 858 3034 928 4660 13 300 13 959 0 1250 -66 1471 -314 2821 -770 4190
-142 427 -352 985 -383 1017 -7 7 -104 56 -217 109 -1881 881 -3905 1379
-6045 1484 -292 14 -1004 20 -1280 10z m900 -600 c1700 -47 3274 -338 4830
-892 484 -172 1303 -517 1324 -557 5 -9 43 -106 84 -216 450 -1198 741 -2441
867 -3700 51 -520 70 -909 70 -1475 0 -567 -18 -942 -71 -1475 -125 -1270
-429 -2554 -889 -3762 l-62 -162 -181 -82 c-2297 -1039 -4835 -1493 -7397
-1324 -1728 115 -3406 514 -4995 1190 -200 85 -490 217 -501 229 -27 28 -246
638 -362 1011 -383 1230 -592 2426 -653 3740 -15 331 -6 1270 15 1575 95 1351
331 2544 748 3775 61 181 242 673 250 680 18 16 533 241 808 352 1670 677
3588 1064 5435 1096 77 2 181 4 230 5 50 1 252 -3 450 -8z"/>
<path d="M14825 19970 c-1945 -77 -3864 -515 -5540 -1265 -82 -37 -166 -74
-186 -82 -34 -14 -37 -20 -106 -206 -164 -442 -349 -1039 -458 -1475 -230
-926 -356 -1759 -417 -2772 -17 -274 -16 -1231 0 -1510 47 -775 126 -1398 272
-2120 140 -695 363 -1476 606 -2127 58 -156 72 -184 94 -192 35 -13 138 -57
320 -136 673 -292 1396 -539 2185 -745 699 -182 1614 -341 2370 -410 828 -75
1690 -84 2510 -25 1713 124 3394 535 4938 1210 108 47 200 85 204 85 5 0 18 6
28 14 18 13 15 20 -55 137 -230 388 -592 869 -943 1251 l-89 98 -131 41 c-862
267 -1510 488 -1912 651 -395 160 -554 257 -835 504 -133 117 -362 350 -474
482 l-77 90 -107 9 c-59 4 -287 8 -507 7 -453 0 -549 -7 -1102 -78 -867 -113
-1206 -123 -1641 -50 -280 46 -518 113 -1172 329 -628 208 -911 283 -1261 335
-146 22 -467 46 -477 36 -6 -7 48 -113 80 -156 11 -14 59 -87 108 -162 343
-532 719 -914 1101 -1117 90 -47 152 -71 374 -140 134 -42 175 -66 204 -121
54 -104 301 -599 301 -605 0 -4 -15 2 -32 13 -18 11 -73 41 -123 67 -538 285
-1261 779 -1760 1204 -347 295 -705 651 -957 953 l-95 113 -23 129 c-12 71
-23 135 -24 144 -1 17 65 44 254 103 352 111 766 192 1275 248 177 20 818 81
849 81 11 0 16 9 16 29 0 16 11 109 25 207 98 695 313 1410 595 1984 84 172
91 181 130 160 48 -26 6 91 -44 124 -13 8 -43 17 -67 20 -30 4 -39 2 -29 -4 8
-5 10 -10 4 -10 -7 0 -9 -11 -6 -26 4 -24 2 -26 -19 -21 -13 3 -235 47 -494
98 -258 51 -471 94 -472 94 -4 1 -93 293 -93 303 0 12 379 148 660 237 63 20
154 50 202 66 48 16 94 29 103 29 9 0 13 4 10 10 -3 5 0 8 7 5 7 -3 74 13 148
34 74 22 195 57 267 78 87 24 128 40 120 46 -8 6 -5 7 7 3 20 -7 256 48 291
67 11 6 25 10 31 9 18 -4 249 55 238 60 -5 3 -3 3 4 1 21 -5 102 18 96 28 -3
5 0 9 5 9 6 0 11 7 11 16 0 13 -3 14 -14 4 -13 -10 -13 -8 -3 14 9 19 13 22
17 10 5 -14 8 -14 20 1 12 14 12 18 -1 26 -12 7 -11 9 2 9 22 0 62 102 61 157
0 13 4 20 9 17 5 -3 9 22 9 56 0 34 4 59 8 56 4 -2 14 -1 22 5 13 7 12 9 -2 9
-9 0 -19 4 -22 9 -4 5 4 7 16 5 13 -2 17 -2 11 2 -7 3 -13 13 -13 22 0 15 2
15 10 2 5 -8 10 -10 11 -5 0 6 3 21 5 35 4 22 3 23 -9 7 -11 -17 -13 -15 -12
17 2 42 -33 88 -71 92 -21 2 -24 -1 -19 -17 4 -11 2 -19 -4 -19 -6 0 -10 3 -9
8 2 4 -1 9 -7 11 -5 2 -28 16 -50 31 -134 92 -355 140 -640 140 -453 -1 -1157
-152 -1752 -378 -77 -30 -105 -36 -113 -28 -6 9 11 28 63 67 98 76 309 219
380 259 31 17 55 35 52 40 -3 4 1 7 8 6 6 0 73 32 148 72 75 40 143 71 150 69
8 -2 11 -2 7 0 -16 9 -8 41 10 39 11 -2 16 -10 14 -25 -4 -26 4 -27 18 -2 7
14 6 27 -5 48 -8 15 -15 33 -15 40 0 19 -62 72 -77 66 -7 -3 -13 0 -13 7 0 6
5 8 10 5 6 -3 10 -1 10 6 0 7 7 4 15 -7 8 -10 15 -14 15 -8 0 16 -25 35 -35
26 -5 -4 -5 1 -2 11 5 12 3 16 -5 11 -7 -5 -9 -2 -5 8 3 10 -6 26 -23 43 -27
26 -29 26 -27 7 0 -11 4 -19 7 -17 3 2 12 0 20 -6 12 -7 12 -9 -4 -9 -15 0
-17 -5 -13 -30 6 -28 5 -29 -18 -18 -14 6 -25 14 -25 18 0 17 -157 160 -175
160 -3 0 -21 11 -38 24 -33 24 -150 86 -199 105 -20 7 -25 15 -21 30 3 12 6
21 8 21 19 0 185 -33 200 -39 11 -5 58 -22 105 -37 111 -35 212 -81 297 -137
72 -46 208 -176 218 -208 7 -23 30 -24 67 -5 64 34 387 105 548 121 99 9 143
15 164 22 10 3 16 1 13 -4 -4 -6 4 -19 17 -30 l23 -20 -5 51 c-2 28 -8 69 -13
91 -5 22 -12 58 -15 80 -6 43 -12 57 -22 51 -4 -2 -7 10 -8 28 0 29 -18 75
-62 164 -16 32 -17 32 -23 10 -6 -21 -7 -21 -14 -5 -4 11 -3 23 4 30 16 16 14
27 -5 27 -10 0 -14 6 -10 15 3 8 1 15 -4 15 -5 0 -10 8 -12 18 -2 9 -4 -11 -5
-45 -1 -40 3 -63 10 -63 7 0 6 -4 -2 -12 -15 -15 -29 1 -68 77 -55 108 -220
304 -337 400 -39 32 -44 40 -35 57 8 15 14 17 22 9 6 -6 17 -11 25 -11 8 0 43
-13 79 -30 35 -16 69 -30 74 -30 5 0 9 -3 9 -8 0 -4 28 -23 63 -41 216 -118
421 -300 549 -489 57 -84 122 -215 144 -288 l14 -50 128 -1 c139 -1 257 -20
362 -59 75 -28 84 -29 77 -11 -3 8 1 14 9 14 8 0 14 -6 14 -14 0 -19 3 -26 19
-45 15 -17 31 -15 31 3 0 6 -5 7 -10 4 -6 -4 -3 12 6 35 9 22 13 44 9 48 -4 4
-10 1 -12 -6 -4 -10 -8 -10 -19 -2 -11 10 -11 16 3 37 9 13 20 41 24 61 6 35
7 34 8 -15 1 -30 6 -53 12 -53 6 0 8 -9 4 -22 -5 -20 -4 -21 5 -6 7 12 8 24 1
36 -5 10 -9 49 -8 85 2 39 -1 68 -8 70 -5 3 -7 7 -4 11 3 3 14 3 23 0 13 -5
16 -13 11 -28 -13 -39 -15 -125 -3 -132 8 -5 9 -1 5 10 -4 9 0 28 9 41 10 16
14 34 10 51 -5 18 -3 24 5 18 8 -4 9 -3 5 5 -4 6 -3 18 4 26 7 9 9 30 5 59 -5
31 -4 46 4 46 6 0 11 7 11 15 0 8 -4 15 -10 15 -5 0 -9 21 -9 48 1 42 2 44 9
17 7 -26 8 -24 9 20 0 36 -2 46 -9 35 -8 -12 -10 -11 -10 6 0 11 6 26 13 33
10 11 9 12 -2 6 -11 -6 -12 2 -7 46 5 39 4 50 -3 39 -8 -11 -10 -3 -7 32 2 30
0 45 -7 41 -6 -4 -8 4 -3 20 3 15 1 29 -5 32 -6 4 -8 13 -5 21 3 7 1 16 -4 19
-5 3 -6 13 -3 22 5 11 3 14 -6 9 -9 -6 -12 -2 -11 10 4 33 0 55 -7 51 -5 -3
-9 7 -9 21 -1 15 -13 52 -27 82 -23 48 -27 52 -33 33 -3 -13 -11 -23 -16 -23
-6 0 -8 10 -4 23 3 12 6 26 6 30 0 5 5 5 11 1 6 -3 3 5 -6 19 -9 14 -17 30
-17 34 0 4 -3 13 -6 20 -4 6 -7 -8 -7 -32 0 -25 3 -38 8 -32 8 12 -1 -51 -10
-66 -3 -5 -24 29 -47 75 -61 121 -94 176 -140 237 -23 29 -45 60 -51 67 -6 9
-5 18 3 26 10 10 23 7 65 -16 101 -57 223 -144 297 -214 73 -68 180 -198 193
-235 4 -11 12 -15 18 -11 7 4 9 3 6 -3 -4 -6 14 -49 38 -96 187 -351 225 -808
110 -1321 -33 -148 -76 -287 -86 -280 -5 3 -10 -10 -10 -28 -1 -20 -3 -25 -6
-14 -4 15 -7 16 -14 5 -7 -10 -9 -5 -7 18 4 43 -12 46 -29 4 -13 -30 -12 -33
1 -28 11 4 18 -2 22 -19 5 -20 9 -23 16 -12 7 10 8 8 4 -5 -3 -10 -6 -21 -6
-23 0 -3 -4 -3 -9 1 -6 3 -9 -4 -8 -15 1 -11 6 -20 12 -20 31 1 102 23 119 38
11 9 16 11 12 5 -8 -14 10 -18 18 -4 3 4 37 11 76 15 39 4 68 11 65 16 -3 4 3
6 13 3 10 -2 56 3 103 12 141 27 252 46 299 51 25 3 63 10 85 15 22 5 63 12
90 15 28 2 56 7 64 10 8 2 37 7 65 10 28 3 77 10 109 15 86 15 117 18 117 12
0 -14 -108 -138 -191 -218 -159 -153 -343 -292 -575 -433 -69 -43 -111 -62
-133 -62 -18 0 -126 11 -240 25 -113 14 -219 26 -235 28 -27 2 -29 -1 -53 -78
-91 -303 -175 -646 -228 -935 -56 -306 -69 -440 -70 -695 0 -255 10 -314 77
-454 49 -103 198 -243 318 -299 85 -39 159 -63 246 -81 187 -38 299 -42 751
-29 1081 30 2058 -55 2676 -234 103 -30 108 -32 132 -72 14 -22 25 -34 25 -25
0 9 -7 22 -15 29 -8 7 -15 17 -15 22 0 6 7 5 16 -3 13 -10 17 -10 25 2 5 8 9
19 9 24 0 6 -5 3 -10 -5 -9 -13 -10 -13 -10 1 0 8 5 20 10 25 24 24 32 304 9
304 -4 0 -9 -19 -11 -42 -2 -24 -4 13 -5 82 0 91 2 112 7 75 4 -27 6 -59 3
-71 -4 -20 22 -53 33 -41 4 3 1 20 -5 38 -6 18 -11 56 -11 85 0 29 -5 56 -11
60 -7 4 -9 21 -5 45 3 21 2 40 -4 44 -5 3 -10 19 -10 35 0 16 -5 32 -11 36 -6
3 -8 16 -6 28 3 11 1 30 -3 41 -5 11 -9 14 -9 8 -1 -7 -5 -13 -11 -13 -6 0 -7
18 -3 47 4 33 3 44 -5 39 -6 -4 -9 -14 -6 -24 5 -14 4 -14 -4 -3 -7 10 -7 21
-1 32 12 22 12 32 0 25 -5 -4 -11 0 -14 6 -2 7 -3 -23 -2 -67 1 -44 -1 -84 -3
-89 -3 -5 -22 43 -43 107 -69 210 -171 417 -322 648 -60 93 -111 188 -104 196
8 7 63 -24 177 -100 317 -211 606 -474 800 -728 193 -251 330 -545 365 -783 7
-42 5 -46 -13 -46 -11 0 -25 7 -32 15 -11 13 -15 13 -21 3 -7 -10 -9 -9 -9 3
0 9 -6 16 -14 16 -9 0 -12 -7 -9 -16 5 -13 3 -14 -8 -3 -7 6 -17 12 -21 12 -4
0 -7 -6 -6 -12 2 -8 -8 -13 -26 -13 -16 0 -31 -6 -33 -12 -3 -7 1 -13 9 -13
14 0 90 17 121 26 9 3 17 1 17 -5 0 -6 -11 -11 -24 -11 -14 0 -28 -5 -31 -10
-10 -17 -95 -51 -107 -44 -6 4 -8 3 -5 -3 6 -9 -17 -22 -34 -19 -3 1 -13 -5
-22 -12 -9 -8 -20 -11 -26 -8 -5 3 -11 3 -13 -2 -4 -9 -182 -92 -197 -92 -21
0 -10 -17 46 -74 166 -168 361 -490 482 -799 85 -215 122 -333 226 -712 124
-452 194 -626 300 -743 101 -111 369 -276 1040 -639 88 -47 92 -51 165 -156
141 -201 385 -592 620 -992 83 -143 155 -264 160 -268 12 -14 193 549 295 920
487 1777 629 3646 414 5488 -131 1129 -384 2187 -794 3315 -36 102 -68 190
-70 196 -4 14 -295 143 -610 271 -1388 564 -2880 918 -4410 1048 -523 44
-1340 64 -1830 45z m-369 -1556 c-3 -7 0 -14 5 -16 12 -4 19 -118 7 -118 -8 0
-12 22 -9 47 1 7 -5 28 -13 48 -8 19 -11 35 -5 35 13 0 11 28 -3 32 -7 3 -8 9
-3 18 6 10 10 8 17 -10 5 -13 7 -29 4 -36z m-36 14 c0 -19 -2 -20 -10 -8 -13
19 -13 30 0 30 6 0 10 -10 10 -22z m83 -127 c-3 -10 -1 -27 5 -37 11 -23 1
-66 -16 -72 -8 -2 -12 8 -12 31 0 46 11 97 20 97 5 0 6 -9 3 -19z m24 -113
c-3 -8 -6 -5 -6 6 -1 11 2 17 5 13 3 -3 4 -12 1 -19z m-20 -53 c-6 -19 -12
-33 -14 -31 -8 7 9 76 17 71 5 -3 3 -21 -3 -40z m29 -12 c-10 -10 -19 5 -10
18 6 11 8 11 12 0 2 -7 1 -15 -2 -18z m-2 -40 c3 -10 1 -34 -3 -53 l-9 -35 -1
37 c-1 20 -4 43 -7 52 -3 9 -1 16 4 16 6 0 13 -8 16 -17z m-1221 -88 c-3 -9
-8 -14 -10 -11 -3 3 -2 9 2 15 9 16 15 13 8 -4z m1210 -242 c-18 -19 -24 -16
-18 10 11 44 13 62 16 142 2 79 2 79 8 -30 5 -79 3 -114 -6 -122z m-1163 183
c0 -2 7 -20 15 -40 8 -20 11 -36 6 -36 -5 0 -11 10 -14 22 -5 17 -9 19 -20 10
-8 -7 -17 -9 -20 -5 -11 10 -8 45 3 38 6 -3 10 -1 10 4 0 6 5 11 10 11 6 0 10
-2 10 -4z m21 -106 c1 20 17 -29 17 -55 0 -14 -1 -16 -5 -5 -4 8 -12 21 -20
28 -7 7 -13 21 -13 30 0 15 2 15 10 2 9 -13 10 -13 11 0z m36 -42 c-3 -8 -6
-5 -6 6 -1 11 2 17 5 13 3 -3 4 -12 1 -19z m1140 -53 c-4 -8 -11 -15 -17 -15
-7 0 -7 6 0 21 13 23 26 19 17 -6z m-1127 -36 c0 -10 -4 -19 -10 -19 -5 0 -10
12 -10 26 0 14 4 23 10 19 6 -3 10 -15 10 -26z m27 -71 c-3 -7 -5 -2 -5 12 0
14 2 19 5 13 2 -7 2 -19 0 -25z m1078 22 c3 -5 1 -10 -4 -10 -6 0 -11 5 -11
10 0 6 2 10 4 10 3 0 8 -4 11 -10z m-1069 -89 c1 -25 0 -36 -3 -24 -5 25 -33
39 -43 22 -5 -7 -10 -8 -14 -1 -8 14 11 25 29 18 9 -3 15 1 15 9 0 9 -6 12
-17 9 -13 -4 -14 -3 -5 3 27 20 37 10 38 -36z m-1133 -61 c-3 -12 -8 -19 -11
-16 -5 6 5 36 12 36 2 0 2 -9 -1 -20z m37 -91 c16 -29 6 -35 -19 -10 -25 25
-26 31 -6 31 8 0 19 -9 25 -21z m46 -34 c-3 -8 0 -16 7 -19 9 -3 9 -5 0 -5
-14 -1 -35 33 -26 42 10 10 25 -4 19 -18z m2582 -350 c-3 -3 -9 2 -12 12 -6
14 -5 15 5 6 7 -7 10 -15 7 -18z m-1295 -12 c-7 -2 -19 -2 -25 0 -7 3 -2 5 12
5 14 0 19 -2 13 -5z m530 -33 c22 -19 28 -54 13 -78 -4 -7 -4 -16 -1 -22 3 -5
1 -10 -4 -10 -6 0 -11 6 -11 13 0 7 -11 29 -25 50 -14 20 -21 37 -15 37 5 0
10 7 10 15 0 20 5 19 33 -5z m-248 -48 c-3 -3 -11 0 -18 7 -9 10 -8 11 6 5 10
-3 15 -9 12 -12z m982 -24 c-3 -8 -6 -5 -6 6 -1 11 2 17 5 13 3 -3 4 -12 1
-19z m-817 -90 c0 -4 -5 -8 -11 -8 -5 0 -7 5 -4 10 3 6 -2 10 -11 10 -10 0
-14 3 -11 7 4 3 -1 16 -10 27 -10 12 -3 8 15 -8 17 -17 32 -33 32 -38z m772
-90 c-8 -8 -9 -4 -5 13 4 13 8 18 11 10 2 -7 -1 -18 -6 -23z m-722 -32 c0 -3
-4 -8 -10 -11 -5 -3 -10 -1 -10 4 0 6 5 11 10 11 6 0 10 -2 10 -4z m716 -33
c-11 -11 -17 4 -9 23 7 18 8 18 11 1 2 -10 1 -21 -2 -24z m421 21 c-3 -3 -12
-4 -19 -1 -8 3 -5 6 6 6 11 1 17 -2 13 -5z m-1217 -139 c7 -8 9 -15 6 -15 -4
0 -14 7 -22 15 -9 8 -11 15 -6 15 5 0 15 -7 22 -15z m1740 -49 c0 -2 -8 -10
-17 -17 -16 -13 -17 -12 -4 4 13 16 21 21 21 13z m-1973 -102 c-3 -3 -12 -4
-19 -1 -8 3 -5 6 6 6 11 1 17 -2 13 -5z m-160 -20 c-3 -3 -12 -4 -19 -1 -8 3
-5 6 6 6 11 1 17 -2 13 -5z m1943 -72 c0 -4 -10 -13 -22 -21 -23 -14 -23 -14
-4 8 20 22 26 25 26 13z m-195 -162 c-3 -5 -12 -10 -18 -10 -7 0 -6 4 3 10 19
12 23 12 15 0z m-125 -84 c0 -2 -7 -7 -16 -10 -8 -3 -12 -2 -9 4 6 10 25 14
25 6z m-50 -30 c0 -2 -7 -7 -16 -10 -8 -3 -12 -2 -9 4 6 10 25 14 25 6z m-621
-75 c-6 -18 -13 -30 -15 -28 -2 2 1 18 7 36 6 18 13 30 15 28 2 -2 -1 -18 -7
-36z m61 36 c0 -1 -9 -10 -20 -20 -16 -13 -20 -14 -20 -3 0 8 8 17 18 19 9 3
18 5 20 6 1 0 2 0 2 -2z m148 -24 c-10 -2 -28 -2 -40 0 -13 2 -5 4 17 4 22 1
32 -1 23 -4z m-113 -12 c17 -7 14 -9 -16 -12 -24 -3 -36 -1 -36 8 0 14 21 16
52 4z m285 -23 c-13 -5 -33 -7 -45 -5 -15 3 -13 5 8 6 15 0 27 5 27 11 0 5 7
7 17 3 13 -5 12 -8 -7 -15z m-173 -4 c-3 -3 -12 -4 -19 -1 -8 3 -5 6 6 6 11 1
17 -2 13 -5z m-250 -116 c-3 -8 -6 -5 -6 6 -1 11 2 17 5 13 3 -3 4 -12 1 -19z
m-37 -120 c0 -23 -3 -29 -9 -19 -8 12 -4 51 5 51 2 0 4 -15 4 -32z m-53 -200
c-3 -8 -6 -5 -6 6 -1 11 2 17 5 13 3 -3 4 -12 1 -19z m-1460 -174 c-3 -3 -12
-4 -19 -1 -8 3 -5 6 6 6 11 1 17 -2 13 -5z m-23 -31 c11 -13 14 -23 8 -23 -16
0 -43 30 -36 41 3 6 7 9 8 7 0 -2 10 -13 20 -25z m73 4 c3 -4 5 -33 4 -54 -1
-22 -31 -34 -31 -12 0 5 4 8 9 4 6 -3 8 7 7 22 -3 19 -9 28 -20 27 -9 -1 -14
2 -11 6 3 5 -3 11 -12 13 -10 2 -2 2 17 0 19 -3 36 -6 37 -6z m25 -79 c-7 -7
-12 -8 -12 -2 0 14 12 26 19 19 2 -3 -1 -11 -7 -17z m5275 -1195 c-3 -10 -5
-4 -5 12 0 17 2 24 5 18 2 -7 2 -21 0 -30z m35 -64 c5 -3 11 -24 12 -45 2 -21
1 -27 -1 -11 -2 15 -9 27 -15 27 -6 0 -8 -13 -6 -30 6 -38 -8 -40 -15 -3 -3
16 0 31 6 35 8 5 6 11 -7 21 -16 12 -17 16 -5 36 l14 22 4 -23 c1 -13 7 -26
13 -29z m25 -121 c-3 -8 -6 -5 -6 6 -1 11 2 17 5 13 3 -3 4 -12 1 -19z m-13
-49 c3 -34 5 -107 4 -163 l-1 -101 -8 125 c-4 69 -10 142 -14 163 -5 23 -4 37
2 37 6 0 13 -28 17 -61z m6 -316 c0 -16 3 -46 5 -68 4 -30 3 -35 -4 -19 -16
37 -25 114 -12 114 6 0 11 -12 11 -27z m31 -39 c-5 -21 -9 -30 -10 -19 -1 24
10 67 15 62 3 -2 0 -22 -5 -43z m-43 -109 c-2 -30 -8 -45 -17 -45 -9 0 -11 7
-7 23 3 12 6 32 6 45 0 12 5 22 10 22 6 0 10 -19 8 -45z"/>
<path d="M14490 18239 c0 -5 5 -7 10 -4 6 3 10 8 10 11 0 2 -4 4 -10 4 -5 0
-10 -5 -10 -11z"/>
<path d="M14206 16971 c-4 -6 2 -26 13 -44 24 -37 27 -25 7 23 -8 20 -16 28
-20 21z"/>
<path d="M14230 16960 c0 -5 5 -10 11 -10 5 0 7 5 4 10 -3 6 -8 10 -11 10 -2
0 -4 -4 -4 -10z"/>
<path d="M14450 17385 c0 -8 2 -15 4 -15 2 0 6 7 10 15 3 8 1 15 -4 15 -6 0
-10 -7 -10 -15z"/>
<path d="M12456 17282 c-2 -4 -1 -14 5 -22 7 -12 9 -10 9 8 0 23 -5 28 -14 14z"/>
<path d="M14290 16856 c0 -9 5 -16 10 -16 6 0 10 4 10 9 0 6 -4 13 -10 16 -5
3 -10 -1 -10 -9z"/>
<path d="M14711 16604 c-7 -16 -17 -41 -21 -56 -8 -26 -7 -26 21 -16 16 5 29
12 29 15 0 3 -6 3 -13 0 -8 -3 -13 4 -14 22 0 14 1 18 4 9 2 -10 11 -18 19
-18 8 0 12 5 9 11 -4 6 -10 22 -14 36 l-7 25 -13 -28z"/>
<path d="M14741 16614 c0 -11 3 -14 6 -6 3 7 2 16 -1 19 -3 4 -6 -2 -5 -13z"/>
<path d="M19115 13241 c-35 -6 -37 -7 -16 -13 14 -4 35 -1 50 7 28 15 27 15
-34 6z"/>
<path d="M1900 2533 c0 -991 -3 -1214 -14 -1293 -54 -354 -219 -506 -626 -576
-127 -21 -531 -30 -671 -15 -144 16 -344 55 -469 91 -58 16 -106 30 -107 30
-2 0 -3 -150 -3 -334 0 -310 1 -335 18 -340 41 -13 279 -47 425 -61 489 -46
923 -23 1245 66 135 37 325 130 428 208 195 147 329 368 395 651 48 202 49
236 49 1539 l0 1226 -335 3 -335 2 0 -1197z"/>
<path d="M14620 1905 l0 -1826 958 4 c813 3 974 6 1067 20 285 42 484 99 691
196 612 290 973 880 974 1587 0 455 -121 846 -357 1151 -241 312 -603 529
-1045 627 -279 62 -236 60 -1305 63 l-983 4 0 -1826z m1920 1209 c336 -43 595
-159 783 -351 211 -215 309 -486 309 -853 -1 -730 -417 -1154 -1197 -1220 -79
-7 -327 -10 -635 -8 l-505 3 -3 1215 c-1 668 0 1221 3 1229 8 19 1077 7 1245
-15z"/>
<path d="M4470 3069 c-447 -15 -811 -136 -1095 -364 -272 -217 -447 -555 -495
-955 -13 -110 -13 -338 1 -437 87 -643 528 -1105 1189 -1247 182 -39 300 -50
530 -50 298 0 494 28 721 104 237 79 416 188 585 355 313 311 456 731 415
1215 -34 388 -163 683 -406 925 -282 283 -678 433 -1200 457 -33 2 -143 0
-245 -3z m420 -613 c264 -49 468 -165 600 -342 193 -257 222 -714 66 -1029
-56 -112 -125 -197 -213 -264 -184 -139 -433 -210 -738 -211 -562 0 -915 221
-1031 646 -25 90 -27 115 -28 284 -1 160 2 197 21 272 55 215 163 373 331 486
131 87 295 145 487 171 99 14 403 6 505 -13z"/>
<path d="M6620 1545 l0 -1465 335 0 335 0 2 583 3 582 875 0 875 0 3 -582 2
-583 335 0 335 0 0 1465 0 1465 -335 0 -335 0 0 -585 0 -585 -877 2 -878 3 -3
583 -2 582 -335 0 -335 0 0 -1465z"/>
<path d="M10169 3005 c-1 -3 -1 -14 -1 -25 0 -11 0 -668 1 -1460 l1 -1440 335
0 335 0 2 995 3 994 186 -212 c103 -117 291 -331 419 -477 128 -146 263 -299
300 -340 37 -41 85 -96 106 -121 46 -55 182 -209 354 -403 69 -78 183 -207
254 -289 l128 -147 334 0 334 0 2 1443 c2 793 2 1452 0 1465 l-3 22 -330 0
-329 0 0 -22 c1 -1295 -3 -1938 -9 -1943 -5 -2 -39 30 -76 73 -37 42 -102 115
-145 162 -42 47 -92 103 -111 125 -20 22 -114 128 -210 235 -96 107 -211 236
-254 286 -44 49 -152 170 -240 269 -88 98 -182 204 -210 235 -104 117 -379
425 -384 430 -3 3 -35 38 -70 78 l-63 72 -329 0 c-181 0 -329 -2 -330 -5z"/>
<path d="M21660 3002 c-7 -3 -10 -499 -10 -1463 l0 -1459 1340 0 1340 0 0 300
0 300 -1005 0 -1005 0 2 282 3 283 778 3 777 2 0 295 0 295 -780 0 -780 0 0
285 0 285 1005 0 1005 0 0 295 0 295 -1330 2 c-732 2 -1335 2 -1340 0z"/>
<path d="M24710 1546 l0 -1466 335 0 335 0 1 523 c1 287 1 528 0 535 -2 10 81
12 400 10 l402 -3 80 -105 c44 -58 144 -188 221 -290 77 -102 185 -243 240
-315 54 -72 137 -181 183 -242 l85 -113 404 0 c222 0 404 1 404 3 0 4 -519
689 -733 969 -53 69 -97 131 -97 136 0 5 21 15 48 22 191 48 394 193 500 359
101 157 142 299 143 493 0 149 -13 242 -52 356 -42 125 -99 214 -198 312 -100
99 -196 157 -339 206 -202 69 -155 67 -1314 71 l-1048 4 0 -1465z m2022 853
c108 -23 187 -81 231 -168 31 -65 32 -234 1 -301 -38 -81 -113 -140 -209 -165
-50 -13 -156 -15 -717 -15 l-658 0 0 330 0 330 650 0 c442 0 666 -4 702 -11z"/>
<path d="M28067 3002 c-8 -2 -17 -11 -19 -19 -2 -9 -2 -666 0 -1460 l2 -1443
1340 0 1340 0 0 300 0 300 -1005 0 -1005 0 0 285 0 285 773 0 772 0 3 295 2
295 -775 0 -775 0 0 285 0 285 1005 0 1005 0 0 295 0 295 -1323 2 c-728 2
-1331 2 -1340 0z"/>
<path d="M18588 2990 c-1 -5 -2 -662 0 -1460 l2 -1450 1340 0 1340 0 0 300 0
300 -1005 0 -1005 0 0 285 0 285 775 0 775 0 0 295 0 295 -775 0 -775 0 0 285
0 285 1005 0 1005 0 0 295 0 295 -1339 0 c-884 0 -1340 -3 -1343 -10z"/>
</g>
</svg>
