<?xml version="1.0" standalone="no"?>
<!DOCTYPE svg PUBLIC "-//W3C//DTD SVG 20010904//EN"
 "http://www.w3.org/TR/2001/REC-SVG-20010904/DTD/svg10.dtd">
<svg version="1.0" xmlns="http://www.w3.org/2000/svg"
 width="3840.000000pt" height="2160.000000pt" viewBox="0 0 3840.000000 2160.000000"
 preserveAspectRatio="xMidYMid meet">

<g transform="translate(0.000000,2160.000000) scale(0.100000,-0.100000)"
fill="#000000" stroke="none">
<path d="M18515 21299 c-1095 -69 -2318 -461 -3330 -1068 -455 -272 -814 -548
-1145 -880 -448 -448 -710 -880 -812 -1337 -19 -84 -22 -129 -22 -299 0 -235
12 -295 93 -460 51 -104 96 -170 172 -252 240 -261 629 -436 1106 -499 65 -8
132 -17 149 -20 l31 -4 -28 -133 c-94 -436 -162 -985 -175 -1407 -3 -102 -7
-196 -9 -210 -2 -14 -4 -94 -4 -179 l-1 -154 -157 6 c-462 19 -880 117 -1238
292 -233 114 -397 228 -557 391 -104 106 -132 141 -210 259 -110 165 -188 359
-231 570 -19 96 -22 140 -22 345 1 247 17 388 65 554 18 64 18 66 0 76 -10 6
-23 10 -29 10 -16 0 -110 -192 -174 -355 -98 -249 -162 -492 -188 -715 -17
-147 -6 -427 20 -552 94 -434 371 -839 781 -1140 468 -343 1097 -554 1850
-621 l135 -12 7 -85 c24 -271 76 -670 124 -940 65 -370 185 -895 272 -1182
l29 -98 -146 0 c-681 0 -1394 128 -1948 349 -758 302 -1320 839 -1463 1396
-17 69 -20 71 -60 66 -25 -3 -2 -285 36 -460 152 -687 683 -1290 1479 -1680
633 -310 1342 -472 2265 -517 74 -3 136 -7 136 -8 1 0 32 -73 69 -161 278
-657 664 -1325 1079 -1870 l76 -100 -237 -3 c-1065 -14 -2145 210 -2948 613
-233 117 -358 193 -537 328 -109 82 -132 96 -149 87 -27 -15 -25 -23 23 -93
108 -162 346 -404 553 -565 913 -708 2167 -1070 3598 -1038 l289 6 131 -124
c607 -571 1320 -1029 2000 -1287 64 -24 83 -35 70 -40 -10 -3 -112 -14 -228
-23 -823 -67 -1662 -26 -2460 120 -104 19 -197 37 -206 40 -12 3 -20 -5 -28
-27 -6 -18 -10 -34 -8 -35 8 -8 282 -108 433 -157 518 -171 1060 -283 1624
-336 482 -46 1082 -44 1565 5 1563 158 3003 764 4235 1783 346 286 730 670
1019 1016 216 259 448 583 601 839 l54 89 -30 23 c-16 13 -32 23 -36 21 -4 -1
-41 -42 -83 -92 -209 -245 -475 -515 -755 -766 -133 -119 -390 -332 -395 -327
-3 2 -23 101 -45 219 -90 470 -209 957 -347 1422 -31 103 -54 189 -52 190 38
28 368 295 434 352 495 425 991 958 1310 1408 38 55 70 95 72 90 8 -26 66
-359 83 -475 58 -394 82 -723 82 -1150 l-1 -326 40 -7 c22 -4 42 -5 44 -3 9 9
76 310 94 423 90 575 95 1412 11 1965 l-19 125 74 145 c436 863 603 1781 469
2580 -22 133 -75 349 -92 377 -4 6 -19 9 -35 6 l-27 -5 0 -102 c0 -503 -116
-1064 -331 -1606 -62 -156 -250 -543 -259 -533 -4 5 -30 80 -59 168 -179 545
-484 1201 -796 1711 l-61 101 77 159 c218 444 350 882 404 1340 23 193 24 522
1 679 -48 333 -161 627 -345 901 -90 135 -227 294 -320 372 -52 43 -66 50 -82
42 -25 -14 -25 -15 15 -102 117 -257 175 -534 181 -873 8 -414 -63 -781 -236
-1220 -56 -143 -201 -449 -231 -488 -12 -17 -21 -9 -103 95 -390 492 -889
1007 -1370 1413 -82 69 -152 131 -153 136 -2 5 19 61 47 124 100 225 189 523
226 760 22 139 31 448 16 571 -17 142 -65 329 -120 463 -221 546 -756 1003
-1438 1230 -134 45 -349 99 -357 90 -2 -2 -6 -13 -10 -25 -5 -18 4 -24 79 -53
204 -80 417 -223 596 -401 312 -311 460 -674 460 -1127 0 -307 -61 -568 -213
-916 -33 -75 -64 -139 -68 -142 -5 -3 -46 19 -92 48 -453 292 -963 555 -1478
764 -102 41 -186 76 -188 77 -1 2 13 36 32 77 51 110 111 292 136 410 46 216
36 479 -24 657 -173 506 -717 826 -1519 891 -145 12 -438 12 -632 0z m229
-254 c416 -49 724 -180 933 -398 132 -138 209 -292 234 -474 12 -85 0 -220
-31 -351 -18 -75 -87 -267 -108 -300 -7 -10 -51 -3 -213 37 -492 120 -946 189
-1454 221 -187 12 -475 13 -475 3 0 -5 -3 -17 -6 -29 -5 -19 1 -21 98 -33 366
-44 902 -155 1313 -272 198 -57 563 -178 570 -190 11 -17 -122 -189 -273 -353
-148 -161 -421 -403 -599 -530 l-52 -37 -123 94 c-384 294 -806 568 -1152 748
l-152 78 -28 -22 -28 -22 44 -35 c81 -64 378 -321 535 -463 203 -184 603 -566
603 -577 0 -15 -312 -193 -535 -306 -315 -159 -825 -369 -844 -348 -24 26
-295 1079 -366 1421 l-6 32 -37 -13 c-36 -13 -37 -15 -40 -67 -5 -71 15 -473
34 -674 16 -181 69 -609 89 -724 7 -42 10 -79 7 -82 -11 -10 -272 -75 -434
-108 -278 -58 -607 -96 -875 -104 -81 -2 -103 0 -103 11 0 20 55 238 101 397
122 426 259 803 425 1167 59 131 63 144 47 155 -28 21 -47 15 -73 -25 -333
-508 -555 -954 -761 -1527 l-57 -160 -54 3 c-88 5 -288 49 -398 87 -199 70
-322 144 -445 270 -344 350 -306 916 98 1485 509 717 1550 1402 2694 1774 443
145 943 241 1348 259 136 7 422 -3 549 -18z m1821 -2188 c464 -229 879 -474
1302 -770 l172 -120 -38 -56 c-283 -413 -763 -911 -1280 -1325 l-123 -99 -52
59 c-342 393 -703 761 -1234 1260 l-54 50 113 89 c365 288 654 580 887 898 48
64 89 117 92 117 3 0 100 -47 215 -103z m-1477 -1452 c291 -318 636 -719 925
-1077 70 -86 127 -159 127 -163 0 -9 -264 -180 -460 -297 -534 -320 -1197
-638 -1767 -847 l-81 -30 -15 42 c-9 23 -75 204 -147 402 -159 434 -472 1367
-462 1376 4 4 49 21 100 38 509 172 1117 458 1512 712 71 45 76 47 94 31 10
-9 89 -93 174 -187z m4066 -385 c287 -279 619 -645 867 -955 115 -143 319
-414 326 -432 6 -16 -57 -104 -207 -293 -187 -233 -328 -389 -584 -645 -268
-267 -482 -459 -780 -697 -205 -164 -244 -194 -250 -187 -2 2 -60 97 -129 211
-314 514 -681 1054 -1024 1507 -69 90 -127 169 -129 175 -3 7 32 41 77 75 547
424 1099 1002 1428 1494 l52 78 102 -93 c56 -51 169 -158 251 -238z m-6305
-478 c86 -398 267 -1072 410 -1527 33 -104 58 -191 56 -194 -14 -14 -429 -126
-692 -186 -489 -113 -1081 -200 -1505 -221 l-138 -7 0 254 c0 531 37 1056 112
1582 l32 227 60 0 c419 2 1133 98 1541 209 39 11 75 20 80 20 6 0 25 -70 44
-157z m4063 -1399 c383 -538 721 -1051 1043 -1582 l69 -113 -29 -21 c-64 -47
-321 -211 -505 -322 -599 -362 -1316 -717 -1990 -985 -283 -113 -369 -145
-375 -139 -19 19 -445 951 -615 1344 -150 347 -321 757 -318 760 2 2 102 40
223 85 402 151 710 285 1095 477 414 206 771 408 1105 627 72 47 133 86 136
86 4 0 76 -98 161 -217z m4095 -546 c293 -532 530 -1064 712 -1600 l71 -208
-82 -112 c-333 -459 -791 -947 -1298 -1382 -120 -103 -473 -387 -488 -393 -4
-1 -16 22 -26 50 -10 29 -64 170 -121 313 -188 478 -377 901 -613 1374 l-137
274 35 27 c437 343 657 536 971 850 320 319 569 608 775 898 43 61 81 112 84
112 3 0 55 -91 117 -203z m-7317 -829 c204 -545 489 -1213 800 -1876 30 -61
51 -114 49 -116 -2 -2 -96 -31 -209 -64 -880 -261 -1743 -423 -2590 -486 -96
-7 -178 -10 -182 -7 -3 3 -29 77 -57 163 -196 611 -341 1244 -426 1871 -14
103 -25 200 -25 216 l0 28 186 7 c557 20 1177 104 1771 241 194 45 604 153
612 161 12 12 22 -7 71 -138z m4980 -1468 c143 -272 395 -779 509 -1025 109
-233 290 -643 297 -671 5 -18 -21 -38 -193 -151 -727 -479 -1559 -912 -2427
-1264 l-170 -68 -21 32 c-48 71 -320 527 -452 757 -322 562 -649 1173 -630
1179 6 2 109 40 227 84 887 330 1784 780 2555 1281 143 92 161 102 173 87 7
-9 66 -117 132 -241z m-3594 -1552 c287 -529 638 -1110 966 -1601 77 -115 138
-210 136 -212 -5 -4 -451 -150 -578 -189 -468 -143 -1059 -285 -1543 -371
-347 -61 -886 -131 -898 -117 -39 46 -217 283 -309 412 -277 389 -532 814
-751 1252 -92 183 -199 414 -199 428 0 6 30 10 68 10 163 0 715 50 1012 91
628 87 1378 249 1890 408 52 16 102 30 112 30 11 1 40 -43 94 -141z m4769
-1065 c173 -467 348 -1006 479 -1475 20 -71 36 -134 36 -140 -1 -25 -469 -344
-775 -527 -233 -140 -415 -241 -650 -362 -197 -101 -566 -274 -607 -284 -20
-5 -39 13 -144 137 -281 332 -594 742 -882 1153 -136 193 -159 231 -144 237 9
4 109 45 222 92 786 321 1531 713 2184 1147 122 81 224 148 227 148 4 1 28
-56 54 -126z m-2950 -1708 c310 -388 557 -668 882 -996 l223 -225 -179 -67
c-580 -217 -1202 -387 -1795 -492 l-150 -27 -100 43 c-617 260 -1202 638
-1751 1130 -71 65 -161 149 -198 187 l-69 69 69 7 c827 85 1803 296 2623 569
l225 75 27 -32 c14 -17 101 -125 193 -241z"/>
<path d="M19417 4549 c-560 -28 -979 -138 -1265 -329 -116 -77 -262 -230 -321
-334 -101 -177 -151 -383 -151 -614 0 -469 187 -800 558 -986 171 -86 225 -98
1151 -252 477 -80 882 -149 901 -154 160 -43 238 -210 173 -372 -25 -62 -99
-121 -192 -151 -209 -69 -630 -54 -795 29 -41 21 -103 81 -124 119 -8 17 -23
61 -32 100 l-16 70 -838 0 -839 0 6 -100 c37 -629 474 -1019 1292 -1154 267
-44 471 -60 835 -65 1602 -23 2347 394 2387 1335 26 606 -286 1004 -917 1169
-63 16 -523 97 -1021 179 -498 83 -919 155 -935 161 -71 27 -108 89 -108 180
0 104 40 164 140 214 102 51 169 61 409 60 195 0 229 -3 300 -22 217 -60 327
-159 350 -314 l7 -48 811 0 810 0 -7 68 c-30 295 -140 529 -335 715 -259 245
-633 391 -1188 461 -278 36 -741 51 -1046 35z"/>
<path d="M26491 4549 c-720 -37 -1203 -216 -1550 -574 -343 -355 -503 -838
-503 -1520 0 -455 68 -808 217 -1111 85 -175 163 -283 304 -424 172 -172 323
-272 547 -364 330 -135 670 -191 1214 -200 1108 -18 1762 209 2118 736 133
198 246 493 307 803 8 44 17 90 20 103 l5 22 -788 0 -789 0 -17 -63 c-89 -329
-284 -529 -573 -589 -133 -27 -380 -22 -491 11 -318 93 -503 341 -573 766 -18
107 -18 514 -1 615 44 250 119 422 238 550 163 172 364 249 654 251 163 1 251
-17 368 -72 191 -91 339 -301 383 -543 l12 -66 789 0 789 0 -5 33 c-85 527
-232 841 -524 1119 -304 289 -737 454 -1336 508 -162 14 -614 20 -815 9z"/>
<path d="M31579 4550 c-794 -39 -1322 -257 -1664 -685 -193 -241 -314 -545
-377 -950 -19 -122 -22 -180 -22 -460 0 -353 12 -469 74 -723 193 -791 755
-1238 1690 -1347 382 -45 1019 -40 1370 11 799 115 1297 475 1535 1109 172
460 201 1148 70 1670 -156 624 -530 1033 -1123 1228 -216 72 -413 110 -707
137 -148 14 -653 20 -846 10z m586 -1009 c369 -74 584 -317 660 -746 23 -126
31 -413 15 -560 -17 -172 -59 -329 -122 -455 -45 -90 -65 -118 -143 -196 -76
-78 -104 -98 -185 -138 -161 -78 -220 -90 -465 -90 -188 -1 -219 2 -295 22
-334 91 -530 321 -604 712 -54 282 -37 654 41 895 130 404 439 596 928 577 44
-2 121 -12 170 -21z"/>
<path d="M4030 2455 l0 -1965 695 0 695 0 0 610 0 610 783 0 c445 0 831 5 897
10 360 32 617 137 816 335 167 166 266 369 321 660 25 130 25 570 0 705 -55
301 -139 488 -291 648 -190 200 -456 310 -826 342 -70 6 -696 10 -1602 10
l-1488 0 0 -1965z m2548 1006 c35 -13 82 -38 105 -55 92 -70 141 -239 118
-408 -19 -143 -74 -228 -179 -276 -102 -46 -169 -51 -704 -52 l-498 0 0 410 0
411 548 -3 c545 -4 547 -4 610 -27z"/>
<path d="M8720 2455 l0 -1965 1878 2 1877 3 3 478 2 477 -1180 0 -1180 0 0
265 0 265 1095 0 1095 0 0 475 0 475 -1095 0 -1095 0 0 265 0 265 1180 0 1180
0 0 480 0 480 -1880 0 -1880 0 0 -1965z"/>
<path d="M13060 2455 l0 -1965 695 0 695 0 0 609 0 610 863 4 c834 4 866 5
977 26 552 104 855 396 970 936 28 128 38 467 21 637 -37 351 -140 597 -329
780 -165 161 -362 252 -662 305 -85 15 -253 17 -1662 20 l-1568 4 0 -1966z
m2535 1013 c113 -39 180 -101 217 -204 29 -80 31 -283 3 -359 -39 -110 -99
-165 -228 -208 -59 -20 -85 -21 -599 -25 l-538 -3 0 411 0 411 548 -3 c480 -3
553 -6 597 -20z"/>
<path d="M22600 2455 l0 -1965 700 0 700 0 0 1965 0 1965 -700 0 -700 0 0
-1965z"/>
</g>
</svg>
