<?xml version="1.0" standalone="no"?>
<!DOCTYPE svg PUBLIC "-//W3C//DTD SVG 20010904//EN"
 "http://www.w3.org/TR/2001/REC-SVG-20010904/DTD/svg10.dtd">
<svg version="1.0" xmlns="http://www.w3.org/2000/svg"
 width="400.000000pt" height="313.000000pt" viewBox="0 0 400.000000 313.000000"
 preserveAspectRatio="xMidYMid meet">

<g transform="translate(0.000000,313.000000) scale(0.100000,-0.100000)"
fill="#000000" stroke="none">
<path d="M579 3076 c-83 -24 -163 -70 -221 -127 -97 -95 -111 -207 -38 -307
57 -78 131 -123 285 -171 229 -70 355 -163 355 -261 0 -69 -76 -161 -165 -202
-42 -19 -67 -23 -150 -22 -112 0 -150 12 -211 66 -40 35 -83 117 -84 158 -1
15 -18 -16 -44 -80 -24 -58 -40 -108 -37 -112 15 -17 175 -60 282 -75 102 -15
129 -16 206 -5 48 7 111 23 138 36 62 28 126 91 156 154 27 56 37 163 20 215
-27 81 -125 139 -350 206 -149 45 -222 83 -286 152 -72 77 -71 159 2 240 139
154 444 121 538 -56 15 -29 15 -27 13 65 l-3 95 -55 19 c-71 25 -283 32 -351
12z"/>
<path d="M1130 2576 c0 -10 83 -136 89 -136 3 0 26 14 51 30 42 28 98 50 163
64 l27 6 0 -375 0 -375 70 0 70 0 2 373 3 372 35 -3 c63 -7 152 -40 181 -68
16 -15 30 -26 32 -23 10 11 84 116 91 127 6 9 -78 12 -403 12 -226 0 -411 -2
-411 -4z"/>
<path d="M1780 1965 c0 -80 2 -145 4 -145 5 0 93 53 300 184 l170 106 -237 0
-237 0 0 -145z"/>
<path d="M2460 2089 c-19 -10 -151 -76 -294 -146 l-258 -128 457 -3 c251 -1
658 -1 905 0 l449 3 -117 61 c-64 34 -193 101 -285 149 l-169 87 -66 -30
c-143 -65 -202 -92 -237 -106 -35 -15 -35 -15 -185 59 -83 41 -153 74 -158 74
-4 -1 -23 -10 -42 -20z m173 -111 c-24 -23 -40 -20 -30 7 4 8 17 15 29 15 l22
0 -21 -22z m-296 -57 l27 -49 28 49 c41 70 58 65 58 -17 0 -48 -3 -65 -12 -62
-7 3 -14 22 -16 43 l-3 39 -22 -39 c-12 -21 -27 -40 -34 -42 -7 -3 -22 15 -35
39 l-23 43 -3 -42 c-5 -68 -22 -50 -22 22 0 81 17 86 57 16z m653 39 c0 -5 -4
-10 -10 -10 -5 0 -10 5 -10 10 0 6 5 10 10 10 6 0 10 -4 10 -10z m-323 -37
c19 -24 7 -33 -43 -33 -59 0 -55 -24 5 -28 51 -4 45 -22 -8 -22 -44 0 -61 14
-61 51 0 53 74 75 107 32z m750 5 c18 -14 16 -53 -3 -72 -19 -19 -74 -21 -98
-3 -26 19 -18 68 14 84 26 14 65 9 87 -9z m-614 0 c3 -10 9 -10 26 0 34 20 47
14 23 -10 l-22 -22 22 -23 c29 -31 14 -43 -16 -14 l-25 23 -13 -21 c-13 -21
-38 -29 -38 -13 0 5 9 17 20 27 l20 18 -22 24 -21 23 20 0 c12 0 23 -6 26 -12z
m187 -38 c0 -27 -4 -50 -10 -50 -5 0 -10 23 -10 50 0 28 5 50 10 50 6 0 10
-22 10 -50z m220 41 c0 -6 -17 -11 -37 -13 -33 -3 -38 -6 -38 -28 0 -22 5 -25
38 -28 48 -4 38 -22 -12 -22 -44 0 -61 14 -61 50 0 14 5 31 12 38 14 14 98 16
98 3z"/>
<path d="M2603 1913 c9 -2 25 -2 35 0 9 3 1 5 -18 5 -19 0 -27 -2 -17 -5z"/>
<path d="M3326 1904 c-8 -22 11 -44 39 -44 28 0 47 22 39 44 -4 10 -18 16 -39
16 -21 0 -35 -6 -39 -16z"/>
<path d="M2700 2105 c0 -2 25 -20 56 -40 l55 -36 60 36 c32 20 59 38 59 41 0
2 -52 4 -115 4 -63 0 -115 -2 -115 -5z"/>
<path d="M3371 2106 c2 -2 63 -39 134 -83 72 -44 178 -110 238 -147 l107 -66
0 150 0 150 -242 0 c-133 0 -239 -2 -237 -4z"/>
<path d="M903 1575 c-125 -40 -223 -120 -271 -223 -24 -51 -27 -69 -27 -167 0
-98 3 -116 26 -166 50 -106 144 -184 276 -228 136 -46 293 -9 414 97 152 134
170 415 37 564 -97 109 -314 167 -455 123z m237 -57 c63 -27 133 -99 166 -171
79 -178 -1 -433 -161 -512 -58 -29 -185 -28 -241 2 -84 45 -152 148 -180 273
-27 116 5 245 81 329 47 52 88 77 156 95 62 16 115 12 179 -16z"/>
<path d="M271 1544 c19 -14 47 -32 62 -40 l29 -15 -7 -327 c-6 -297 -9 -337
-32 -437 -13 -60 -33 -129 -43 -152 l-19 -43 30 15 c34 18 81 80 110 145 42
93 49 172 49 536 l0 344 -107 0 -107 0 35 -26z"/>
<path d="M3505 1561 c-91 -24 -176 -99 -195 -173 -36 -133 48 -221 261 -274
175 -43 233 -93 210 -182 -24 -86 -102 -137 -212 -137 -46 0 -63 5 -93 28 -36
28 -76 92 -76 122 0 9 -4 14 -8 11 -11 -7 -57 -155 -50 -162 33 -32 279 -49
366 -25 88 25 151 110 159 216 5 72 -15 120 -63 147 -17 10 -84 32 -150 49
-140 37 -199 64 -242 114 -109 124 92 275 279 210 46 -16 119 -79 119 -102 0
-7 4 -13 8 -13 11 0 53 101 46 111 -2 5 -42 20 -87 34 -87 28 -219 40 -272 26z"/>
<path d="M1500 1556 c0 -2 27 -26 60 -53 l60 -48 0 -347 0 -348 53 0 52 0 -1
203 c0 111 1 208 4 215 3 9 52 12 198 12 l194 0 0 -215 0 -215 50 0 50 0 0
400 0 400 -107 0 -108 0 58 -53 58 -52 -1 -107 0 -108 -200 0 -200 0 0 160 0
160 -110 0 c-60 0 -110 -2 -110 -4z"/>
<path d="M2352 1527 l67 -32 1 -367 0 -368 76 0 77 0 -47 35 -46 36 0 294 c0
191 4 295 10 295 13 0 32 -22 479 -577 l66 -82 3 396 c1 218 0 398 -2 400 -2
2 -30 3 -61 1 l-58 -3 42 -52 41 -52 0 -252 c0 -163 -4 -249 -10 -247 -9 3
-186 228 -393 500 l-82 108 -115 -1 -115 -1 67 -31z"/>
</g>
</svg>
