<?xml version="1.0" standalone="no"?>
<!DOCTYPE svg PUBLIC "-//W3C//DTD SVG 20010904//EN"
 "http://www.w3.org/TR/2001/REC-SVG-20010904/DTD/svg10.dtd">
<svg version="1.0" xmlns="http://www.w3.org/2000/svg"
 width="2000.000000pt" height="2025.000000pt" viewBox="0 0 2000.000000 2025.000000"
 preserveAspectRatio="xMidYMid meet">

<g transform="translate(0.000000,2025.000000) scale(0.100000,-0.100000)"
fill="#000000" stroke="none">
<path d="M9620 20240 c-1738 -112 -3317 -913 -4427 -2245 -1760 -2112 -1927
-5148 -408 -7440 842 -1271 2104 -2185 3570 -2586 247 -68 759 -169 854 -169
21 0 21 0 19 452 l-3 452 -135 22 c-837 136 -1508 406 -2020 812 -117 93 -327
298 -424 412 -88 103 -146 180 -146 191 0 5 1565 9 3500 9 2200 0 3500 -4
3500 -9 0 -46 -409 -479 -580 -615 -501 -399 -1172 -666 -1962 -781 -95 -14
-176 -25 -180 -25 -5 0 -8 -207 -8 -460 0 -458 0 -460 21 -460 95 0 607 101
854 169 2127 581 3793 2242 4380 4364 214 772 278 1633 179 2427 -151 1216
-643 2330 -1452 3290 -136 161 -541 566 -702 702 -426 359 -895 664 -1366 889
-684 327 -1393 519 -2169 589 -159 15 -725 21 -895 10z m522 -420 c221 -208
353 -403 414 -607 32 -109 44 -322 24 -454 -33 -230 -157 -478 -365 -729 -103
-125 -346 -372 -515 -523 -118 -105 -854 -826 -2016 -1975 -414 -410 -612
-632 -821 -922 -232 -322 -384 -651 -434 -939 -15 -90 -20 -163 -20 -326 -1
-289 29 -497 117 -804 19 -68 33 -125 31 -128 -2 -2 -61 56 -131 128 -441 457
-659 966 -659 1534 0 325 75 614 243 941 172 337 435 667 772 970 187 169 365
342 998 970 289 286 635 622 770 745 713 652 1045 1036 1246 1444 124 253 169
446 162 695 l-4 149 47 -40 c25 -21 89 -79 141 -129z m1638 -346 c114 -109
177 -192 240 -317 89 -176 133 -365 133 -567 0 -481 -274 -949 -848 -1449 -66
-58 -469 -452 -895 -876 -426 -424 -894 -883 -1040 -1020 -318 -299 -884 -862
-1075 -1070 -266 -290 -501 -584 -620 -776 -111 -179 -253 -501 -315 -714 -45
-156 -63 -261 -64 -377 -1 -60 -3 -108 -7 -108 -10 0 -116 135 -164 209 -196
303 -269 717 -200 1126 70 409 275 812 631 1240 130 156 556 585 819 825 105
95 498 475 875 844 377 370 753 735 835 811 234 216 655 643 819 830 409 467
656 857 736 1164 23 88 44 250 38 286 -3 14 -2 25 3 25 4 0 49 -39 99 -86z
m769 -1519 c107 -271 145 -513 129 -831 -14 -300 -101 -560 -275 -824 -110
-166 -208 -278 -460 -525 -1289 -1261 -2507 -2463 -2589 -2556 -539 -611 -838
-1170 -935 -1744 -26 -155 -35 -414 -20 -570 13 -133 49 -326 80 -425 11 -35
18 -66 16 -68 -9 -10 -177 132 -266 226 -261 271 -410 628 -449 1075 -26 290
49 754 176 1090 180 476 449 842 991 1348 208 195 2449 2404 2658 2620 555
576 885 1050 885 1273 0 45 14 24 59 -89z m1429 -649 c111 -311 151 -558 132
-805 -21 -285 -99 -511 -257 -751 -98 -148 -201 -269 -392 -461 -240 -240
-1867 -1827 -2056 -2005 -870 -821 -1384 -1572 -1522 -2224 -24 -111 -27 -148
-27 -320 0 -140 4 -214 15 -263 l16 -68 -40 38 c-64 62 -204 241 -265 338
-120 194 -209 417 -259 652 -23 112 -27 151 -27 308 0 150 3 197 22 278 72
322 240 650 496 967 183 225 332 378 676 690 181 165 2353 2303 2538 2499 441
467 702 804 832 1076 21 44 44 99 51 123 6 23 15 42 20 42 4 0 25 -51 47 -114z
m-21 -2381 c13 -68 17 -151 17 -345 1 -230 -1 -265 -22 -360 -82 -374 -265
-671 -699 -1135 -77 -82 -355 -356 -619 -607 -470 -448 -605 -587 -760 -778
-322 -398 -515 -795 -578 -1189 -9 -52 -17 -96 -20 -98 -7 -7 -112 124 -159
198 -84 136 -144 306 -167 476 -18 129 -8 388 20 517 95 447 335 856 750 1280
216 220 1243 1214 1425 1378 182 165 467 454 554 563 87 108 158 220 178 280
l16 50 24 -70 c13 -39 31 -110 40 -160z"/>
<path d="M10490 6934 c-95 -27 -394 -89 -482 -99 l-58 -7 0 -54 0 -54 48 0
c68 0 132 -34 157 -85 20 -39 20 -60 20 -1045 0 -993 0 -1005 -20 -1040 -30
-49 -75 -72 -156 -78 l-69 -5 0 -63 0 -64 453 2 452 3 0 60 0 60 -68 7 c-74 7
-119 28 -151 71 l-21 28 -3 1195 c-1 657 -6 1194 -10 1193 -4 0 -45 -12 -92
-25z"/>
<path d="M11970 6838 c-36 -5 -70 -14 -76 -21 -11 -12 -214 -578 -214 -597 0
-11 95 -60 117 -60 13 0 483 642 490 671 5 18 -1 19 -123 18 -71 -1 -158 -6
-194 -11z"/>
<path d="M1197 6628 c-4 -95 -10 -240 -14 -321 l-6 -148 58 3 c68 4 67 2 88
116 38 202 144 319 317 352 29 5 124 10 212 10 l159 0 -3 -987 c-3 -984 -3
-988 -24 -1034 -39 -83 -128 -129 -249 -129 -78 0 -87 -10 -83 -87 l3 -58 568
-3 568 -2 -3 72 -3 73 -90 6 c-99 7 -156 26 -198 67 -58 55 -57 35 -57 1104
l0 978 153 0 c240 0 334 -26 420 -119 70 -75 108 -166 125 -296 l7 -60 64 -3
63 -3 -6 98 c-3 54 -9 198 -12 321 l-7 222 -1022 0 -1022 0 -6 -172z"/>
<path d="M14950 6745 c-101 -32 -160 -115 -160 -226 0 -81 24 -133 80 -182
156 -133 390 -24 390 181 0 112 -62 196 -166 228 -57 17 -85 17 -144 -1z"/>
<path d="M6715 6014 c-90 -41 -285 -88 -445 -107 l-105 -12 -3 -61 -3 -61 52
-6 c64 -8 107 -33 134 -77 19 -34 20 -53 23 -520 2 -267 0 -508 -3 -537 -12
-103 -70 -151 -190 -160 l-75 -6 0 -63 0 -64 435 0 435 0 0 64 0 64 -55 4
c-66 6 -102 29 -130 84 -19 37 -20 62 -23 550 l-3 511 74 47 c119 73 139 80
253 81 95 0 103 -2 150 -30 55 -35 83 -71 116 -153 23 -56 23 -66 26 -490 3
-374 1 -440 -13 -481 -24 -74 -85 -121 -156 -121 l-29 0 0 -65 0 -65 410 0
410 0 0 65 0 65 -42 0 c-62 1 -121 31 -149 76 l-24 39 -6 505 c-5 425 -8 515
-22 568 -52 197 -174 319 -351 351 -183 33 -333 -23 -562 -210 -39 -32 -74
-55 -78 -52 -3 4 -6 69 -6 145 0 76 -3 138 -7 137 -5 0 -21 -7 -38 -15z"/>
<path d="M3690 6005 c-279 -55 -509 -277 -610 -585 -67 -207 -63 -478 9 -671
73 -193 229 -346 411 -403 267 -85 512 -42 719 126 66 53 191 202 191 227 0
19 -42 81 -54 81 -5 0 -43 -23 -84 -52 -137 -94 -286 -133 -416 -109 -195 36
-354 201 -415 433 -18 68 -37 197 -29 199 1 1 213 11 471 24 516 25 505 23
534 93 30 72 -24 288 -101 404 -130 197 -367 285 -626 233z m168 -154 c78 -40
121 -105 153 -228 28 -111 26 -146 -12 -177 l-31 -26 -263 0 c-145 0 -266 3
-268 8 -10 17 26 142 61 217 45 93 114 174 174 204 55 27 135 28 186 2z"/>
<path d="M5466 6010 c-419 -66 -739 -345 -833 -727 -22 -92 -22 -294 0 -387
92 -372 356 -585 732 -590 100 -1 132 3 195 22 137 43 271 138 395 282 36 41
65 79 65 83 0 15 -41 67 -61 77 -15 8 -22 6 -36 -10 -39 -45 -125 -103 -182
-120 -194 -61 -391 -12 -532 131 -67 68 -108 137 -145 244 -24 70 -28 99 -32
236 -7 238 24 363 113 458 58 62 125 92 225 98 130 9 211 -23 328 -129 86 -78
138 -89 207 -44 61 40 90 187 50 254 -25 41 -93 85 -165 107 -66 19 -242 28
-324 15z"/>
<path d="M8893 6010 c-240 -34 -444 -151 -569 -327 -169 -235 -219 -576 -128
-863 67 -211 240 -384 461 -461 331 -115 705 -46 924 171 90 89 147 181 188
305 43 130 54 217 48 390 -6 173 -25 254 -88 375 -77 147 -182 249 -335 325
-139 69 -355 105 -501 85z m202 -167 c52 -27 126 -107 158 -169 85 -169 132
-489 108 -734 -27 -265 -92 -405 -217 -466 -47 -23 -63 -26 -122 -22 -233 17
-374 253 -411 688 -10 122 0 253 30 381 43 185 128 300 249 340 44 15 161 4
205 -18z"/>
<path d="M11667 6004 c-271 -49 -504 -233 -607 -480 -57 -137 -74 -231 -74
-404 -1 -177 18 -270 80 -393 75 -150 171 -244 329 -323 147 -73 220 -88 420
-88 157 0 177 3 260 28 167 51 303 136 390 244 60 74 130 217 156 317 27 102
37 341 19 453 -15 96 -56 213 -101 288 -48 82 -171 203 -254 251 -184 106
-408 145 -618 107z m259 -159 c169 -83 268 -363 268 -760 -1 -332 -72 -532
-218 -607 -62 -32 -153 -30 -233 6 -170 77 -268 291 -302 661 -19 210 30 465
113 590 89 134 235 177 372 110z"/>
<path d="M13475 6010 c-280 -45 -489 -217 -550 -455 -19 -76 -19 -224 0 -300
32 -124 133 -242 261 -305 l66 -32 -44 -45 c-50 -51 -156 -120 -245 -159 -34
-14 -65 -34 -68 -43 -7 -24 22 -129 50 -177 36 -62 127 -139 190 -163 31 -12
60 -21 65 -21 24 0 3 -19 -82 -75 -116 -75 -226 -178 -262 -246 -26 -46 -28
-58 -24 -128 11 -189 148 -329 385 -392 99 -27 344 -37 464 -19 437 63 742
345 774 712 8 89 -13 201 -49 262 -34 58 -107 123 -171 151 -103 46 -182 55
-479 55 -309 0 -359 6 -402 51 -41 42 -41 110 -1 162 27 35 30 37 70 30 84
-16 297 -7 380 16 273 72 427 259 444 536 7 113 -8 186 -53 260 -19 32 -32 60
-29 63 3 3 51 1 108 -5 l102 -11 38 37 c57 54 98 118 104 162 l6 39 -44 0
c-24 0 -120 -11 -212 -25 -215 -32 -259 -32 -325 0 -123 59 -324 87 -467 65z
m190 -144 c52 -24 103 -73 130 -127 49 -94 76 -311 56 -450 -29 -197 -105
-290 -236 -290 -168 0 -275 180 -277 466 -1 212 58 357 167 406 54 25 100 23
160 -5z m240 -1609 c79 -23 119 -42 157 -76 66 -57 94 -153 74 -250 -40 -195
-226 -302 -496 -287 -169 9 -269 43 -348 120 -59 56 -84 108 -90 186 -11 156
73 272 228 315 72 20 399 15 475 -8z"/>
<path d="M15145 5994 c-87 -30 -276 -70 -415 -87 l-105 -13 -3 -60 -3 -61 61
-6 c72 -6 117 -30 145 -77 19 -34 20 -50 20 -577 0 -535 0 -542 -21 -570 -33
-45 -79 -65 -155 -71 l-69 -5 0 -63 0 -64 445 0 445 0 0 64 0 63 -58 6 c-81 7
-136 37 -164 90 l-23 42 -3 708 c-2 548 -5 707 -15 706 -7 0 -43 -11 -82 -25z"/>
<path d="M16447 6005 c-397 -75 -699 -348 -789 -712 -30 -122 -30 -285 0 -407
90 -364 361 -577 737 -579 106 0 130 3 200 27 94 32 166 75 253 148 75 64 192
197 192 219 0 23 -64 81 -83 74 -8 -4 -18 -12 -20 -19 -9 -22 -112 -95 -158
-111 -24 -9 -77 -20 -118 -25 -222 -29 -433 92 -536 305 -63 129 -79 220 -72
409 7 203 40 307 124 388 66 64 122 83 243 83 93 0 112 -3 161 -26 32 -15 84
-52 117 -82 33 -31 74 -63 91 -71 94 -49 189 22 207 155 13 96 -53 175 -181
215 -72 23 -271 27 -368 9z"/>
<path d="M17915 6014 c-215 -32 -367 -99 -497 -222 -115 -109 -194 -243 -238
-407 -28 -103 -38 -322 -20 -432 63 -396 377 -644 815 -646 395 -2 684 195
795 541 70 216 66 485 -9 679 -110 283 -391 471 -726 487 -49 2 -103 2 -120 0z
m148 -160 c129 -44 227 -207 272 -454 50 -276 31 -587 -47 -760 -96 -214 -316
-253 -484 -85 -171 170 -250 644 -163 982 41 162 101 253 201 302 71 36 145
41 221 15z"/>
<path d="M1425 3493 c-113 -32 -331 -74 -457 -88 l-58 -6 0 -58 0 -58 67 -6
c90 -9 151 -40 177 -92 20 -37 21 -61 24 -332 3 -236 1 -293 -10 -293 -7 0
-35 7 -62 15 -103 31 -308 12 -459 -42 -347 -124 -587 -390 -637 -706 -28
-170 6 -389 85 -552 98 -202 243 -323 449 -375 185 -47 298 -21 503 116 65 44
121 80 126 82 4 2 7 -46 7 -107 0 -61 2 -111 5 -111 2 0 86 20 187 45 155 39
428 95 459 95 5 0 9 25 9 55 l0 55 -53 0 c-109 0 -184 46 -207 128 -6 24 -10
417 -10 1155 0 887 -3 1117 -12 1116 -7 -1 -67 -17 -133 -36z m-424 -1090 c53
-24 111 -73 151 -127 l28 -39 0 -498 0 -498 -30 -21 c-183 -130 -461 -68 -592
134 -67 104 -99 239 -99 418 1 358 115 581 331 644 59 18 155 11 211 -13z"/>
<path d="M4490 3255 l0 -65 58 0 c122 0 217 -51 240 -129 27 -88 -43 -1172
-108 -1689 -22 -171 -41 -227 -91 -265 -36 -27 -125 -57 -170 -57 -53 0 -59
-8 -59 -71 l0 -59 435 0 435 0 0 59 0 59 -57 6 c-157 19 -228 66 -259 171 -15
54 -16 94 -10 420 3 198 13 502 21 675 8 173 15 365 15 425 0 124 10 154 33
109 8 -16 184 -446 392 -956 353 -866 379 -927 407 -939 20 -8 35 -9 52 -1 18
8 107 207 441 986 230 537 422 976 427 976 4 0 8 -375 8 -833 0 -718 -2 -840
-15 -885 -29 -96 -84 -135 -209 -148 l-66 -7 0 -58 0 -59 520 0 520 0 0 58 0
58 -82 12 c-148 21 -210 84 -229 229 -4 37 -9 158 -9 268 0 110 -7 355 -15
545 -27 645 -30 888 -12 950 30 104 92 140 262 154 l40 3 3 62 3 61 -353 0
-353 0 -379 -845 c-209 -464 -382 -843 -385 -841 -3 2 -172 382 -376 845
l-370 840 -352 1 -353 0 0 -65z"/>
<path d="M11693 2957 l-172 -132 0 -137 -1 -138 -74 0 -75 0 -53 -56 c-103
-108 -95 -122 75 -126 l122 -3 5 -600 c5 -600 5 -600 28 -658 33 -80 78 -136
141 -174 96 -57 235 -70 357 -32 97 30 324 145 324 165 0 33 -23 104 -34 104
-6 -1 -36 -9 -66 -20 -65 -23 -167 -26 -214 -6 -43 18 -79 66 -103 136 -17 51
-18 97 -18 570 l0 515 177 3 177 2 20 27 c22 27 29 114 13 140 -6 9 -61 13
-197 15 l-190 3 -3 254 c-1 167 -6 259 -13 268 -6 7 -21 13 -33 12 -11 0 -98
-60 -193 -132z"/>
<path d="M9980 2588 c-105 -45 -304 -91 -492 -113 l-58 -6 0 -59 0 -59 48 -7
c56 -8 78 -18 114 -52 47 -43 50 -84 46 -617 -3 -481 -3 -491 -25 -538 -17
-38 -31 -52 -65 -67 -24 -11 -56 -20 -73 -20 -16 0 -47 -3 -67 -6 l-38 -7 0
-58 0 -59 435 0 435 0 0 59 0 58 -46 7 c-71 9 -112 34 -137 80 -22 41 -22 47
-25 556 l-3 515 80 49 c44 26 100 55 123 63 60 20 192 20 246 -2 60 -24 117
-94 144 -174 22 -63 23 -84 26 -476 4 -462 1 -494 -55 -555 -26 -30 -47 -42
-89 -51 l-54 -12 0 -59 0 -58 410 0 410 0 0 59 0 59 -54 7 c-60 7 -107 34
-140 78 -20 28 -21 42 -27 535 -7 538 -8 559 -59 676 -71 166 -215 256 -409
256 -149 0 -291 -66 -481 -224 -30 -25 -58 -42 -62 -38 -4 4 -9 69 -10 143
l-3 136 -45 -19z"/>
<path d="M2718 2590 c-325 -39 -591 -288 -688 -645 -31 -114 -39 -359 -15
-476 59 -291 220 -478 485 -561 64 -19 96 -23 215 -23 128 0 148 3 229 29 92
30 196 92 278 165 45 40 158 181 158 197 0 11 -51 84 -59 84 -4 0 -31 -18 -61
-41 -128 -96 -238 -133 -380 -127 -88 3 -104 7 -173 41 -178 88 -307 294 -324
519 -6 72 -5 78 13 78 112 -1 906 44 927 52 15 6 37 24 49 40 18 27 20 39 15
107 -28 366 -311 603 -669 561z m76 -151 c89 -25 163 -134 191 -285 19 -96 20
-87 -11 -123 l-26 -31 -274 0 c-311 0 -285 -10 -258 94 38 149 133 288 229
332 55 26 91 29 149 13z"/>
<path d="M14522 2580 c-97 -44 -323 -101 -494 -125 l-48 -6 0 -48 0 -49 48 -7
c26 -4 61 -13 77 -19 47 -20 93 -79 100 -128 3 -24 5 -263 3 -533 -3 -467 -4
-492 -23 -530 -25 -49 -81 -80 -165 -90 l-60 -7 0 -59 0 -59 475 0 475 0 0 59
0 58 -77 6 c-43 4 -95 11 -115 17 -49 14 -94 58 -107 106 -7 25 -11 177 -11
428 l0 390 39 65 c99 168 204 212 316 135 60 -41 112 -51 175 -34 124 33 181
200 112 331 -22 43 -38 59 -81 81 -73 38 -155 39 -230 2 -73 -37 -173 -141
-251 -262 -36 -56 -68 -101 -72 -102 -4 0 -9 89 -10 197 -3 222 -1 217 -76
183z"/>
<path d="M15978 2585 c-73 -40 -327 -106 -500 -130 l-48 -6 0 -49 0 -48 48 -7
c101 -14 166 -75 177 -168 4 -29 5 -266 3 -527 -3 -474 -3 -475 -26 -518 -27
-51 -75 -76 -164 -87 l-58 -7 0 -59 0 -59 475 0 475 0 0 60 0 60 -47 0 c-66 0
-165 22 -198 44 -15 10 -35 36 -46 59 -17 39 -19 71 -19 440 l0 398 24 47 c84
166 212 234 312 166 51 -35 97 -54 131 -54 122 0 203 94 203 233 0 170 -179
270 -341 190 -73 -36 -169 -135 -254 -263 l-70 -105 -5 200 c-5 191 -6 200
-25 202 -11 2 -32 -4 -47 -12z"/>
<path d="M17500 2591 c-342 -48 -606 -313 -692 -694 -26 -115 -28 -326 -5
-433 64 -289 224 -474 482 -554 97 -30 274 -38 375 -16 81 17 193 66 267 118
63 42 158 140 206 210 l39 56 -24 36 c-12 19 -28 38 -35 40 -6 3 -32 -10 -56
-29 -130 -99 -245 -139 -387 -133 -89 3 -104 7 -175 42 -111 55 -192 139 -249
259 -48 99 -76 206 -76 286 0 42 3 51 18 51 112 0 887 43 915 51 59 16 80 57
73 144 -20 271 -187 489 -421 549 -77 19 -185 26 -255 17z m83 -152 c80 -22
149 -112 181 -237 26 -97 25 -147 -4 -177 l-23 -25 -274 0 c-311 0 -285 -10
-258 95 28 107 79 201 147 269 81 80 142 100 231 75z"/>
<path d="M8295 2584 c-11 -2 -50 -11 -87 -20 -99 -22 -183 -59 -275 -120 -166
-110 -284 -287 -340 -510 -13 -53 -17 -111 -17 -244 0 -162 2 -181 28 -265 81
-265 267 -440 544 -511 261 -68 541 -28 745 106 223 145 347 406 347 730 0
424 -205 704 -595 812 -68 19 -301 34 -350 22z m220 -169 c62 -30 115 -86 155
-165 136 -268 154 -787 36 -1045 -73 -160 -221 -219 -375 -150 -169 76 -268
290 -301 655 -10 105 -9 144 4 246 38 287 123 431 286 485 44 15 138 2 195
-26z"/>
<path d="M13082 2570 c-96 -25 -215 -89 -298 -158 -334 -281 -422 -851 -193
-1239 73 -123 220 -239 349 -273 132 -36 335 -29 469 16 145 48 271 141 383
282 32 40 58 76 58 80 0 4 -15 24 -33 45 l-32 39 -46 -36 c-65 -49 -164 -101
-228 -120 -135 -39 -301 -12 -411 69 -142 104 -250 318 -250 497 0 54 2 58 23
58 12 0 220 9 462 21 480 23 483 23 512 84 36 75 -19 294 -103 418 -79 115
-182 187 -319 222 -84 21 -251 19 -343 -5z m179 -132 c85 -25 150 -111 184
-243 23 -92 20 -147 -11 -176 l-26 -24 -269 -3 -269 -3 0 26 c0 86 76 260 147
336 51 55 129 99 177 99 16 0 46 -5 67 -12z"/>
<path d="M18220 2491 l0 -58 41 -7 c127 -20 210 -110 274 -296 13 -36 103
-274 200 -530 271 -712 268 -698 207 -841 -65 -151 -205 -332 -283 -363 -185
-74 -223 -235 -80 -338 85 -61 198 -73 248 -26 36 33 50 64 79 180 47 179 152
447 499 1268 276 652 353 822 393 864 41 43 96 71 160 81 l42 7 0 59 0 59
-330 0 -330 0 0 -58 0 -58 60 -12 c64 -14 115 -49 131 -90 8 -20 -2 -60 -47
-196 -63 -190 -241 -693 -254 -716 -8 -13 -9 -13 -14 0 -93 251 -307 884 -309
909 -2 47 44 86 112 96 l51 7 0 59 0 59 -425 0 -425 0 0 -59z"/>
</g>
</svg>
