<?xml version="1.0" standalone="no"?>
<!DOCTYPE svg PUBLIC "-//W3C//DTD SVG 20010904//EN"
 "http://www.w3.org/TR/2001/REC-SVG-20010904/DTD/svg10.dtd">
<svg version="1.0" xmlns="http://www.w3.org/2000/svg"
 width="185.000000pt" height="185.000000pt" viewBox="0 0 185.000000 185.000000"
 preserveAspectRatio="xMidYMid meet">

<g transform="translate(0.000000,185.000000) scale(0.100000,-0.100000)"
fill="#000000" stroke="none">
<path d="M132 1130 c-42 -26 -67 -77 -58 -122 7 -40 49 -84 89 -93 22 -6 27
-4 27 11 0 11 -14 27 -30 36 -24 14 -30 24 -30 50 0 39 7 51 38 67 18 10 41 7
125 -13 144 -35 177 -39 223 -27 44 12 70 48 59 82 -6 19 -7 19 -32 -1 -35
-28 -107 -26 -227 5 -116 30 -141 31 -184 5z"/>
<path d="M1065 1134 c-51 -19 -102 -68 -126 -120 -12 -27 -29 -46 -49 -54 -26
-11 -32 -10 -56 9 -34 27 -62 27 -119 -1 l-45 -22 -23 22 c-29 27 -66 28 -118
2 l-40 -21 -26 21 c-68 53 -160 -10 -131 -91 13 -39 65 -64 102 -50 28 11 56
47 56 73 0 10 4 18 10 18 5 0 10 -35 12 -77 3 -76 4 -78 28 -78 20 0 26 6 30
30 4 25 10 31 35 33 38 4 62 26 70 63 7 32 25 40 25 11 0 -26 28 -62 56 -73
40 -14 89 12 103 54 17 52 61 66 61 20 1 -72 82 -172 157 -192 55 -16 85 -14
153 10 33 11 69 18 80 14 26 -8 28 25 2 48 -24 22 -40 21 -110 -2 -70 -24
-120 -16 -164 26 -80 75 -74 201 13 266 32 23 107 33 148 19 24 -8 31 -8 35 5
10 26 7 30 -33 41 -49 15 -86 14 -136 -4z m-617 -195 c-2 -6 -8 -10 -13 -10
-5 0 -11 4 -13 10 -2 6 4 11 13 11 9 0 15 -5 13 -11z m180 -1 c18 -18 14 -46
-7 -58 -11 -5 -22 -10 -25 -10 -8 0 -36 31 -36 40 0 13 30 40 44 40 6 0 17 -5
24 -12z m193 -1 c-1 -12 -15 -9 -19 4 -3 6 1 10 8 8 6 -3 11 -8 11 -12z m-392
-58 c-18 -11 -49 8 -49 30 0 29 10 30 37 4 19 -20 22 -28 12 -34z m351 47 c0
-8 9 -18 20 -21 26 -8 16 -25 -15 -25 -25 0 -38 21 -29 45 8 19 24 20 24 1z"/>
<path d="M1265 1070 c-13 -41 43 -70 64 -33 13 25 -5 53 -34 53 -15 0 -26 -7
-30 -20z"/>
<path d="M1090 941 l0 -111 24 0 c23 0 25 4 28 52 2 41 7 54 21 56 14 3 17 -4
17 -42 0 -38 4 -48 25 -62 22 -15 27 -15 48 -1 20 13 26 13 42 1 25 -19 31
-18 56 7 20 20 21 20 41 3 24 -23 88 -23 121 -1 22 14 26 14 40 0 37 -37 120
-8 132 46 5 24 13 31 51 40 46 12 50 16 35 40 -8 13 -15 12 -50 -4 -41 -18
-42 -18 -64 3 -47 44 -120 18 -133 -48 -9 -40 -54 -59 -89 -36 -28 19 -32 38
-10 56 18 15 45 6 45 -16 0 -13 3 -14 15 -4 19 16 19 35 -1 54 -40 41 -124 0
-124 -60 0 -24 -5 -34 -15 -34 -11 0 -15 12 -15 50 0 49 -1 50 -30 50 -29 0
-30 -1 -30 -50 0 -63 -25 -70 -33 -10 -7 53 -22 70 -63 70 -28 0 -33 4 -36 28
-2 19 -9 28 -25 30 -23 3 -23 2 -23 -107z m558 -2 c-2 -6 -8 -10 -13 -10 -5 0
-11 4 -13 10 -2 6 4 11 13 11 9 0 15 -5 13 -11z m-48 -13 c0 -8 9 -18 20 -21
24 -8 17 -25 -10 -25 -21 0 -40 28 -33 48 6 17 23 15 23 -2z"/>
<path d="M220 904 c0 -74 5 -144 10 -155 14 -25 78 -27 87 -3 4 10 0 20 -10
26 -14 8 -17 28 -17 132 0 120 -1 124 -22 130 -48 13 -48 13 -48 -130z"/>
</g>
</svg>
