<?xml version="1.0" standalone="no"?>
<!DOCTYPE svg PUBLIC "-//W3C//DTD SVG 20010904//EN"
 "http://www.w3.org/TR/2001/REC-SVG-20010904/DTD/svg10.dtd">
<svg version="1.0" xmlns="http://www.w3.org/2000/svg"
 width="3840.000000pt" height="2160.000000pt" viewBox="0 0 3840.000000 2160.000000"
 preserveAspectRatio="xMidYMid meet">

<g transform="translate(0.000000,2160.000000) scale(0.100000,-0.100000)"
fill="#000000" stroke="none">
<path d="M1040 15071 c0 -2061 3 -3133 10 -3218 11 -127 32 -287 49 -373 53
-266 106 -440 192 -627 10 -24 19 -47 19 -53 0 -5 5 -10 10 -10 6 0 10 -5 10
-11 0 -26 142 -276 194 -341 11 -14 35 -46 51 -69 36 -51 162 -196 225 -259
240 -239 501 -419 835 -575 178 -83 228 -104 360 -150 44 -15 89 -31 100 -36
19 -8 252 -77 285 -84 8 -2 44 -11 80 -20 36 -9 72 -18 80 -20 309 -67 417
-86 660 -119 232 -31 452 -54 595 -62 61 -3 160 -9 220 -14 61 -4 157 -9 215
-11 185 -7 1159 -4 1330 3 630 29 1121 83 1570 174 158 33 143 29 225 49 39 9
77 18 85 20 35 7 148 38 190 50 193 60 247 77 335 109 55 20 109 40 120 45 11
6 56 25 100 44 212 91 337 158 550 296 272 175 571 466 727 706 52 80 128 213
151 265 8 19 26 60 40 90 14 31 29 69 33 85 4 17 10 35 14 40 5 6 13 30 19 55
7 25 16 54 21 65 28 60 73 292 102 520 l22 170 3 3178 3 3177 -55 0 c-36 0
-54 -4 -50 -10 8 -13 -18 -8 -27 5 -5 6 -8 5 -8 -2 0 -7 -5 -13 -11 -13 -5 0
-8 4 -5 8 3 5 -1 9 -9 9 -8 0 -12 -4 -9 -9 3 -4 -1 -8 -8 -9 -7 0 -35 -2 -63
-4 -241 -14 -548 -60 -770 -114 -205 -49 -312 -80 -372 -107 -17 -8 -36 -14
-41 -14 -6 0 -39 -12 -74 -26 -182 -76 -358 -163 -425 -211 -17 -13 -36 -23
-42 -23 -7 0 -14 -7 -17 -15 -4 -8 -11 -15 -17 -15 -6 0 -32 -18 -58 -40 -26
-22 -51 -40 -56 -40 -4 0 -39 -32 -78 -72 l-70 -72 -5 -2630 c-6 -2838 -3
-2647 -55 -2871 -61 -264 -229 -539 -417 -683 -24 -18 -66 -51 -95 -73 -54
-42 -239 -140 -333 -176 -141 -56 -337 -109 -505 -138 -49 -9 -224 -35 -265
-39 -25 -3 -79 -10 -120 -15 -41 -5 -131 -13 -200 -16 -69 -4 -186 -10 -260
-14 -357 -20 -1191 -2 -1430 29 -47 6 -103 14 -125 16 -39 5 -191 29 -230 38
-88 19 -127 29 -175 42 -398 114 -675 295 -856 559 -103 151 -171 359 -194
594 -6 67 -10 1021 -10 2736 0 2154 -2 2636 -13 2647 -7 7 -16 21 -20 31 -3 9
-17 21 -29 26 -13 5 -32 19 -43 31 -23 26 -161 140 -169 140 -3 0 -27 15 -53
32 -117 80 -466 248 -513 248 -7 0 -26 6 -43 14 -55 24 -319 102 -393 116
-249 48 -343 63 -493 80 -95 10 -176 19 -180 18 -3 0 -8 1 -11 2 -3 1 -23 3
-45 4 -51 4 -68 9 -77 21 -5 6 -8 5 -8 -2 0 -7 -7 -13 -15 -13 -8 0 -15 5 -15
10 0 6 -35 10 -85 10 l-85 0 0 -3089z"/>
<path d="M11360 18146 c0 -7 7 -19 15 -26 9 -7 13 -15 11 -18 -3 -2 15 -31 40
-63 25 -33 43 -59 39 -59 -3 0 12 -24 35 -53 22 -30 40 -57 40 -61 0 -4 17
-30 38 -59 20 -29 42 -60 47 -69 19 -31 407 -613 436 -653 16 -22 36 -53 45
-69 14 -25 67 -98 104 -143 6 -7 8 -13 5 -13 -5 0 41 -67 73 -105 4 -5 8 -12
8 -15 -1 -5 10 -21 89 -135 19 -27 42 -63 51 -80 10 -16 34 -53 56 -81 21 -28
38 -54 38 -58 0 -4 18 -31 40 -60 22 -29 40 -56 40 -60 0 -4 18 -31 40 -61 22
-30 40 -57 40 -60 0 -3 18 -30 40 -60 22 -30 40 -57 40 -60 0 -3 18 -30 40
-60 22 -30 40 -57 40 -61 0 -4 18 -31 40 -60 22 -29 40 -56 40 -60 0 -4 17
-30 38 -58 22 -28 46 -65 56 -81 9 -17 32 -52 51 -80 55 -79 87 -127 218 -325
67 -102 125 -186 129 -188 5 -2 8 -8 8 -13 0 -10 62 -103 73 -107 4 -2 7 -8 7
-14 0 -11 61 -101 73 -106 4 -2 7 -8 7 -14 0 -11 61 -101 73 -106 4 -2 7 -8 7
-14 0 -11 61 -101 73 -106 4 -2 7 -8 7 -14 0 -11 61 -101 73 -106 4 -2 7 -9 7
-14 0 -6 17 -34 38 -62 21 -28 41 -56 43 -62 8 -20 403 -609 411 -612 4 -2 8
-8 8 -14 0 -11 61 -101 73 -106 4 -2 7 -8 7 -14 0 -11 61 -101 73 -106 4 -2 7
-8 7 -14 0 -11 61 -101 73 -106 4 -2 7 -8 7 -13 0 -5 24 -45 53 -87 85 -124
102 -147 110 -150 4 -2 7 -8 7 -14 0 -11 61 -101 73 -106 4 -2 7 -8 7 -14 0
-10 59 -99 73 -109 5 -3 9 -10 9 -15 0 -5 11 -25 25 -44 13 -19 38 -57 56 -85
17 -27 35 -54 40 -60 4 -5 22 -32 40 -60 17 -27 35 -54 40 -60 9 -12 165 -244
187 -280 33 -52 211 -318 275 -410 19 -27 44 -66 55 -85 11 -19 36 -57 55 -85
19 -27 48 -70 65 -95 17 -25 51 -74 75 -110 25 -36 48 -72 52 -80 4 -8 23 -38
42 -65 20 -28 41 -58 46 -67 11 -18 155 -234 186 -280 11 -15 63 -94 117 -175
94 -140 286 -429 455 -683 42 -63 80 -119 85 -125 4 -5 22 -32 39 -60 18 -27
46 -70 63 -95 46 -67 92 -136 120 -181 14 -21 115 -174 225 -338 l200 -300
795 0 c437 0 800 3 806 7 9 6 81 110 154 223 25 38 65 98 104 154 11 17 183
273 381 570 199 297 414 618 478 712 64 95 117 177 117 182 0 5 3 11 8 13 7 3
56 72 77 108 19 33 250 375 262 388 6 6 15 21 18 32 3 11 10 20 14 20 5 0 14
14 21 30 7 17 16 30 20 30 4 0 13 14 20 30 7 17 16 30 21 30 4 0 11 9 14 20 3
11 12 26 18 32 21 22 417 618 417 627 0 5 3 11 8 13 11 5 72 95 72 106 0 6 3
12 8 14 11 5 72 95 72 106 0 6 3 12 8 14 9 4 72 94 72 103 0 4 20 32 45 64 25
31 45 61 45 65 0 4 18 31 40 61 22 30 40 57 40 60 0 3 18 30 40 59 22 29 40
56 40 60 0 4 18 31 40 61 22 30 40 57 40 60 0 3 17 29 38 58 20 29 42 60 47
69 39 63 171 254 180 260 5 4 6 8 2 8 -4 0 -3 6 3 13 35 41 80 107 73 107 -4
0 -3 4 2 8 12 8 49 65 48 72 -1 3 5 9 13 13 8 4 14 14 14 22 0 7 4 15 9 17 8
3 161 224 161 234 0 2 18 29 40 58 22 29 40 56 40 60 0 4 18 31 40 60 22 29
40 58 40 64 0 5 3 12 8 14 11 5 72 95 72 106 0 6 3 12 8 14 7 3 56 72 77 108
13 24 206 310 285 423 33 48 58 87 55 87 -3 0 6 12 20 28 14 15 28 36 32 47 3
11 11 24 18 30 6 5 38 51 70 100 32 50 72 107 88 128 16 20 26 37 22 37 -3 0
14 26 38 58 24 31 50 68 57 82 7 14 26 42 42 63 16 20 27 37 24 37 -4 0 11 24
34 53 22 30 40 59 40 65 0 5 3 12 8 14 11 5 72 95 72 106 0 6 3 12 8 14 9 4
72 94 72 103 0 3 18 30 40 59 22 29 40 58 40 64 0 6 6 15 13 19 6 4 17 15 22
24 6 9 38 58 72 108 35 50 63 96 63 100 0 5 3 11 8 13 11 5 72 95 72 106 0 6
3 12 8 14 10 4 72 97 72 107 0 5 3 11 8 13 10 4 72 97 72 107 0 5 3 11 8 13 4
2 34 44 66 93 33 50 73 107 89 128 16 20 26 37 22 37 -3 0 15 27 40 60 25 33
44 60 40 60 -3 0 12 24 35 53 22 30 40 57 40 61 0 3 20 32 45 64 25 31 45 61
45 65 0 4 18 32 40 61 22 29 40 56 40 60 0 4 18 31 40 60 22 29 40 56 40 60 0
4 18 31 40 60 22 29 40 56 40 60 0 4 18 31 40 61 22 30 40 57 40 60 0 3 18 30
40 60 22 30 40 57 40 60 0 3 18 30 40 60 22 30 40 57 40 60 0 3 17 29 38 58
21 29 41 60 45 70 3 9 11 17 17 17 5 0 10 5 10 10 0 7 -167 10 -480 10 -348 0
-480 -3 -480 -11 0 -8 -6 -7 -17 2 -11 10 -14 10 -9 2 4 -7 2 -13 -3 -13 -6 0
-11 6 -11 13 0 8 -4 7 -10 -3 -9 -13 -10 -13 -10 0 0 12 -2 12 -9 1 -5 -8 -34
-14 -77 -17 -38 -2 -87 -6 -109 -8 -22 -3 -94 -10 -160 -16 -229 -20 -703
-106 -805 -147 -8 -3 -19 -7 -25 -9 -5 -1 -37 -9 -70 -18 -68 -17 -131 -37
-225 -73 -158 -59 -167 -63 -314 -135 -146 -71 -177 -88 -220 -121 -20 -15
-36 -25 -36 -22 0 4 -29 -16 -65 -44 -35 -28 -68 -51 -72 -51 -15 0 -153 -139
-153 -154 0 -8 -3 -16 -7 -18 -12 -5 -73 -95 -73 -106 0 -6 -3 -12 -7 -14 -12
-5 -73 -95 -73 -106 0 -6 -3 -12 -8 -14 -9 -4 -87 -120 -86 -128 1 -3 -19 -31
-43 -62 -24 -32 -42 -58 -38 -58 3 0 -12 -24 -35 -53 -22 -30 -40 -57 -40 -61
0 -4 -18 -31 -40 -60 -22 -29 -40 -58 -40 -64 0 -5 -3 -12 -7 -14 -12 -5 -73
-95 -73 -106 0 -6 -3 -12 -7 -14 -12 -5 -73 -95 -73 -107 0 -6 -4 -11 -8 -11
-5 0 -14 -12 -21 -27 -7 -15 -26 -44 -42 -65 -17 -21 -28 -38 -25 -38 4 0 -11
-24 -34 -53 -22 -30 -40 -57 -40 -61 0 -4 -18 -31 -40 -60 -22 -29 -40 -58
-40 -64 0 -5 -3 -12 -7 -14 -12 -5 -73 -95 -73 -106 0 -6 -3 -12 -7 -14 -12
-5 -73 -95 -73 -107 0 -6 -3 -11 -7 -11 -5 0 -21 -23 -38 -51 -16 -28 -36 -57
-43 -65 -7 -8 -11 -14 -7 -14 5 0 -44 -71 -75 -107 -6 -7 -8 -13 -5 -13 4 0
-7 -17 -23 -37 -16 -21 -37 -51 -46 -68 -9 -16 -32 -52 -51 -80 -65 -94 -175
-258 -190 -283 -19 -32 -90 -137 -96 -142 -3 -3 -25 -36 -48 -75 -24 -38 -58
-92 -77 -120 -18 -27 -47 -70 -64 -95 -111 -163 -358 -540 -354 -540 3 0 0 -6
-6 -12 -35 -42 -80 -108 -73 -108 4 0 4 -4 -2 -8 -15 -11 -75 -99 -75 -110 0
-6 -3 -12 -7 -14 -12 -5 -73 -95 -73 -106 0 -6 -4 -12 -8 -14 -4 -2 -48 -64
-97 -138 -48 -74 -101 -154 -117 -177 -15 -23 -28 -46 -28 -51 0 -6 -3 -12 -7
-14 -12 -5 -73 -95 -73 -106 0 -6 -3 -12 -7 -14 -12 -5 -73 -95 -73 -106 0 -6
-3 -12 -7 -14 -12 -5 -73 -95 -73 -106 0 -6 -4 -12 -8 -14 -11 -4 -162 -235
-162 -247 0 -5 -3 -11 -7 -13 -12 -5 -73 -95 -73 -106 0 -6 -3 -12 -7 -14 -12
-5 -73 -95 -73 -106 0 -6 -3 -12 -7 -14 -12 -5 -73 -95 -73 -106 0 -6 -3 -12
-7 -14 -12 -5 -73 -95 -73 -106 0 -6 -3 -12 -7 -14 -7 -3 -50 -66 -124 -180
-26 -41 -46 -48 -56 -20 -8 22 -65 106 -75 110 -5 2 -8 8 -8 14 0 5 -53 88
-117 184 -65 97 -123 184 -128 194 -21 36 -70 105 -77 108 -5 2 -8 8 -8 14 0
11 -61 101 -72 106 -5 2 -8 8 -8 14 0 11 -61 101 -72 106 -5 2 -8 8 -8 14 0
13 -151 241 -162 246 -5 2 -8 7 -8 12 0 11 -142 224 -152 228 -4 2 -8 8 -8 14
0 11 -61 101 -72 106 -5 2 -8 8 -8 14 0 6 -11 26 -25 44 -14 18 -25 35 -25 38
0 3 -56 88 -123 189 -68 102 -127 192 -130 201 -4 9 -11 16 -17 16 -5 0 -10 5
-10 11 0 12 -61 102 -72 107 -5 2 -8 8 -8 14 0 11 -61 101 -72 106 -5 2 -8 8
-8 13 0 12 -151 243 -162 247 -5 2 -8 8 -8 14 0 11 -61 101 -72 106 -5 2 -8 8
-8 14 0 6 -11 26 -25 44 -14 18 -25 35 -25 39 0 3 -18 30 -40 60 -22 30 -40
59 -40 64 0 6 -8 15 -17 20 -10 6 -14 11 -10 11 5 0 -5 17 -21 38 -16 20 -36
51 -45 67 -8 17 -28 47 -44 67 -15 20 -41 60 -58 88 -16 28 -36 58 -42 65 -7
8 -13 16 -13 19 0 8 -64 101 -72 104 -5 2 -8 8 -8 13 0 10 -62 103 -72 107 -5
2 -8 8 -8 13 0 6 -18 34 -40 64 -22 30 -40 57 -40 61 0 4 -17 30 -38 58 -21
28 -45 62 -52 76 -7 14 -26 42 -42 63 -16 20 -26 37 -21 37 4 0 3 4 -2 8 -6 4
-26 32 -45 62 -19 30 -38 57 -42 58 -5 2 -8 8 -8 13 0 6 -18 34 -40 64 -22 30
-40 57 -40 61 0 4 -18 31 -40 60 -22 29 -40 56 -40 60 0 4 -18 31 -40 60 -22
29 -40 56 -40 60 0 4 -17 30 -38 58 -21 28 -45 62 -52 76 -7 14 -26 41 -41 61
-16 20 -26 39 -22 43 3 3 1 6 -5 6 -7 0 -12 4 -12 10 0 11 -62 103 -72 108 -5
2 -8 8 -8 14 0 11 -61 101 -72 106 -5 2 -8 8 -8 14 0 11 -61 101 -72 106 -5 2
-8 9 -8 14 0 6 -18 35 -40 64 -22 29 -40 56 -40 60 0 3 -17 29 -37 57 -21 29
-38 54 -38 57 0 3 -12 23 -28 45 -15 22 -51 76 -80 120 -49 74 -145 185 -161
185 -4 0 -27 17 -52 38 -25 20 -47 36 -50 34 -3 -2 -13 5 -22 15 -33 36 -252
156 -435 237 -32 14 -60 26 -63 26 -3 0 -20 6 -37 14 -26 12 -92 35 -117 41
-3 1 -12 4 -20 7 -48 18 -141 49 -180 59 -54 15 -51 14 -70 22 -8 3 -42 11
-75 17 -33 6 -69 15 -80 20 -22 11 -100 25 -445 84 -47 8 -119 18 -160 21 -41
3 -118 10 -170 16 -52 5 -120 11 -150 12 -31 2 -61 6 -68 11 -6 4 -12 4 -12
-1 0 -4 -5 -1 -10 7 -6 10 -10 11 -10 3 0 -7 -5 -13 -11 -13 -5 0 -7 6 -3 13
6 9 4 9 -8 -1 -11 -9 -18 -10 -23 -2 -4 7 -156 10 -466 10 -383 0 -459 -2
-459 -14z"/>
<path d="M25665 13668 c-4 -2471 -5 -4529 -3 -4573 l3 -80 1128 -3 1127 -2 -2
2825 c-3 2653 -2 2825 14 2825 9 0 21 -6 25 -14 10 -17 70 -86 198 -230 55
-62 118 -134 140 -161 22 -27 85 -99 140 -160 55 -61 120 -135 145 -165 36
-42 160 -183 225 -256 5 -6 29 -33 52 -60 42 -49 194 -222 256 -292 18 -20 42
-46 55 -58 12 -12 22 -24 22 -28 0 -7 257 -297 273 -307 5 -3 7 -9 5 -11 -1
-3 36 -48 83 -99 47 -52 101 -112 120 -134 19 -22 39 -44 45 -50 6 -5 17 -20
25 -31 12 -18 65 -78 181 -205 12 -14 41 -47 63 -73 40 -49 210 -242 229 -262
6 -6 31 -35 56 -64 47 -55 193 -222 421 -481 74 -85 162 -185 194 -223 32 -38
65 -77 74 -86 9 -9 43 -47 76 -84 33 -38 69 -78 80 -90 11 -13 31 -36 45 -53
34 -42 122 -142 157 -178 15 -17 48 -54 73 -84 25 -29 50 -59 55 -65 6 -6 41
-47 80 -91 112 -129 92 -125 171 -38 38 42 75 85 83 96 8 12 22 28 30 37 9 9
45 49 81 90 36 41 81 92 101 115 20 22 49 55 65 74 16 19 83 96 149 170 66 75
143 163 170 196 28 33 53 62 56 65 8 7 176 198 229 260 25 29 50 58 56 64 23
24 192 216 229 261 22 27 49 58 60 71 11 12 54 59 95 104 41 46 81 93 89 104
8 12 17 23 20 26 3 3 24 25 45 50 22 25 74 83 117 130 42 47 88 99 100 115 13
17 78 92 146 167 68 75 123 141 123 147 0 5 6 14 13 18 13 8 230 250 312 349
22 26 47 55 55 64 42 44 188 210 205 232 11 14 52 61 90 104 143 161 181 203
220 250 22 26 84 96 138 156 54 59 95 108 90 108 -4 0 -3 4 3 8 16 11 295 322
289 322 -3 0 12 19 32 41 97 107 133 140 142 134 8 -4 11 -845 11 -2826 l0
-2819 1145 0 1145 0 0 4575 0 4575 -165 0 c-125 0 -165 -3 -165 -12 0 -9 -4
-8 -10 2 -6 10 -10 11 -10 3 0 -7 -5 -13 -11 -13 -5 0 -8 4 -5 8 3 5 -1 9 -9
9 -8 0 -12 -4 -9 -9 3 -4 -3 -8 -13 -9 -43 -2 -101 -7 -148 -12 -27 -3 -99
-11 -160 -17 -200 -21 -603 -103 -725 -148 -8 -3 -19 -6 -25 -7 -32 -8 -232
-79 -240 -85 -5 -4 -26 -13 -47 -19 -46 -15 -296 -141 -336 -169 -16 -12 -34
-22 -39 -22 -4 0 -34 -20 -65 -45 -32 -25 -62 -45 -68 -45 -5 0 -15 -9 -22
-20 -7 -11 -18 -20 -23 -20 -6 0 -69 -60 -139 -132 -70 -73 -152 -158 -182
-188 -30 -30 -54 -59 -54 -63 0 -5 -85 -100 -190 -212 -104 -112 -190 -207
-190 -210 0 -4 -83 -96 -185 -205 -102 -109 -185 -201 -185 -205 0 -4 -27 -35
-59 -69 -98 -101 -333 -356 -328 -356 3 0 -21 -25 -54 -57 -32 -31 -59 -62
-59 -69 0 -7 -4 -14 -8 -16 -8 -3 -366 -391 -411 -444 -31 -38 -88 -100 -235
-258 -67 -70 -123 -133 -125 -140 -2 -6 -18 -25 -35 -42 -17 -16 -67 -70 -111
-120 -44 -49 -118 -130 -165 -180 -47 -50 -107 -116 -135 -148 -67 -78 -54
-63 -195 -217 -69 -75 -154 -169 -190 -209 -69 -78 -292 -324 -364 -400 -23
-25 -53 -60 -66 -77 -13 -18 -31 -33 -40 -33 -9 0 -38 25 -65 56 -145 164
-382 425 -450 496 -30 31 -55 60 -55 63 0 6 -63 75 -306 338 -30 31 -54 60
-54 63 0 3 -55 65 -122 137 -67 73 -147 160 -177 195 -50 56 -242 266 -387
423 -28 31 -53 61 -55 67 -2 6 -60 70 -128 144 -68 73 -145 157 -170 186 -25
29 -71 81 -103 115 -31 34 -115 127 -187 207 -72 80 -153 170 -180 200 -28 30
-109 120 -181 200 -73 80 -156 170 -186 201 -30 32 -54 60 -54 64 0 4 -81 94
-181 201 -99 107 -178 194 -174 194 3 0 -73 86 -171 190 -184 199 -340 350
-360 350 -7 0 -14 7 -18 15 -3 8 -10 15 -17 15 -6 0 -24 11 -41 25 -16 14 -36
25 -44 25 -8 0 -14 4 -14 9 0 19 -348 190 -480 236 -98 35 -218 73 -265 84
-27 7 -59 17 -70 21 -23 10 -134 35 -250 56 -44 8 -100 19 -125 25 -24 5 -106
17 -182 25 -76 8 -152 16 -170 19 -18 3 -64 7 -102 9 -43 3 -72 9 -77 18 -7
10 -9 10 -9 1 0 -7 -5 -13 -11 -13 -5 0 -7 6 -3 13 6 9 4 9 -8 -1 -11 -9 -18
-10 -23 -2 -4 6 -62 10 -154 10 l-149 0 -7 -4492z"/>
<path d="M990 7035 l0 -85 18320 0 18320 0 0 85 0 85 -18320 0 -18320 0 0 -85z"/>
<path d="M20557 5049 c-306 -40 -502 -254 -536 -585 -28 -272 72 -529 255
-654 57 -40 143 -78 193 -86 24 -4 45 -13 48 -20 4 -11 32 -14 114 -14 60 0
109 4 109 9 0 5 24 14 53 21 88 20 193 77 262 142 112 104 178 247 194 423 27
283 -55 509 -238 649 -119 92 -292 136 -454 115z m200 -270 c70 -33 141 -129
159 -212 19 -91 24 -128 24 -185 0 -278 -137 -452 -337 -428 -173 20 -267 173
-266 431 1 138 22 221 76 301 76 114 219 152 344 93z"/>
<path d="M32340 5042 c-186 -13 -317 -90 -378 -221 -23 -49 -27 -69 -27 -161
0 -87 4 -113 22 -153 48 -104 154 -174 413 -273 44 -17 89 -43 112 -65 32 -30
38 -42 38 -78 0 -52 -20 -92 -56 -111 -44 -24 -203 -19 -289 8 -80 26 -194 71
-212 85 -9 7 -13 4 -14 -9 0 -11 -2 -26 -4 -34 -2 -8 -10 -58 -20 -110 -9 -52
-18 -97 -20 -100 -2 -4 13 -14 34 -23 80 -36 160 -57 271 -73 63 -9 118 -22
122 -28 5 -7 8 -6 8 3 0 10 3 11 14 2 8 -7 17 -8 20 -3 3 5 40 15 83 22 164
26 276 100 331 218 24 52 26 69 26 177 0 102 -3 125 -20 155 -68 119 -134 165
-377 260 -138 53 -187 96 -187 159 0 56 41 97 105 107 79 11 235 -27 332 -81
30 -17 45 -20 48 -12 2 7 14 65 26 130 22 115 22 118 3 131 -55 41 -292 87
-404 78z"/>
<path d="M36580 5038 c-167 -16 -301 -107 -349 -236 -20 -53 -23 -75 -19 -164
5 -120 21 -161 90 -224 57 -53 129 -93 267 -149 192 -78 231 -108 231 -177 0
-56 -18 -85 -67 -109 -39 -19 -56 -21 -131 -16 -90 5 -223 43 -323 90 -27 13
-49 24 -49 23 0 -1 -11 -60 -23 -133 -24 -137 -24 -135 13 -148 3 -1 12 -5 20
-8 58 -26 152 -49 252 -64 78 -11 115 -20 111 -27 -4 -6 1 -5 10 3 14 11 17
11 17 0 0 -11 2 -11 10 1 9 13 10 13 10 0 0 -11 2 -12 8 -3 4 7 41 17 82 24
41 6 94 20 117 30 23 10 46 19 50 19 5 0 34 23 65 50 40 35 67 71 89 118 31
63 33 74 33 177 1 100 -2 115 -26 160 -53 102 -149 167 -383 260 -49 19 -106
46 -127 60 -68 45 -69 135 -2 180 61 40 217 20 363 -47 35 -16 67 -25 71 -21
5 4 15 51 24 103 9 52 19 107 22 121 5 23 1 28 -43 46 -127 53 -273 74 -413
61z"/>
<path d="M28715 5033 c-16 -2 -84 -13 -150 -23 -66 -11 -123 -20 -127 -20 -4
0 6 -37 23 -82 57 -155 134 -372 160 -448 10 -30 23 -63 29 -72 5 -10 10 -23
10 -29 0 -6 11 -38 24 -72 13 -34 47 -127 75 -207 28 -80 55 -154 60 -165 5
-11 22 -57 37 -102 25 -74 31 -83 54 -84 14 -1 88 -2 165 -2 l140 -2 20 60
c11 33 23 65 26 70 4 6 12 28 19 50 15 50 208 589 225 630 7 17 34 91 60 165
26 74 58 163 71 197 13 34 24 68 24 77 0 8 5 18 10 21 6 3 10 13 10 21 0 12
-27 14 -158 14 -185 0 -161 17 -212 -150 -30 -98 -50 -160 -135 -430 -18 -58
-45 -145 -60 -195 -15 -49 -32 -94 -37 -100 -12 -13 -24 8 -43 75 -9 30 -20
64 -24 75 -5 11 -23 67 -41 125 -17 58 -35 114 -40 125 -5 11 -27 79 -49 150
-93 305 -104 335 -120 334 -9 -1 -29 -4 -46 -6z"/>
<path d="M1110 4380 l0 -650 380 0 c209 0 380 3 380 8 0 4 -9 61 -20 127 -11
66 -20 123 -20 128 0 4 -90 7 -200 7 l-200 0 0 515 0 515 -160 0 -160 0 0
-650z"/>
<path d="M2371 4998 c-5 -18 -30 -91 -56 -163 -94 -262 -123 -340 -129 -355
-3 -8 -31 -87 -62 -175 -61 -175 -138 -391 -147 -415 -15 -37 -57 -153 -57
-156 0 -2 69 -4 153 -4 l154 0 44 133 44 132 229 0 229 0 44 -130 c25 -71 48
-134 53 -138 4 -5 59 -1 121 8 63 10 128 19 144 21 55 7 57 10 39 51 -8 21
-29 79 -46 128 -16 50 -36 104 -43 120 -7 17 -27 73 -45 125 -18 52 -39 109
-46 127 -8 17 -14 36 -14 43 0 6 -9 32 -19 58 -10 26 -47 126 -81 222 -34 96
-72 204 -85 240 -13 36 -31 86 -40 113 l-17 47 -178 0 -179 0 -10 -32z m188
-330 c5 -13 37 -110 72 -216 42 -131 59 -196 52 -200 -9 -6 -241 -8 -275 -3
-5 1 -8 7 -8 14 0 22 135 427 143 427 4 0 11 -10 16 -22z"/>
<path d="M3322 4508 l3 -523 31 -65 c42 -89 75 -124 147 -159 163 -79 358 -59
554 57 l53 31 5 -22 c9 -34 13 -60 14 -79 1 -16 14 -18 136 -18 l135 0 0 650
0 650 -160 0 -160 0 0 -469 0 -470 -27 -19 c-16 -11 -53 -32 -83 -48 -50 -26
-65 -29 -152 -29 l-98 0 -35 35 c-28 29 -37 47 -45 95 -5 33 -10 250 -10 483
l0 422 -155 0 -156 0 3 -522z"/>
<path d="M4628 5019 c-2 -8 -4 -300 -4 -649 l1 -635 157 -3 158 -3 2 223 3
223 41 3 c36 3 44 -1 66 -30 14 -18 33 -46 42 -63 17 -32 22 -40 76 -125 19
-30 60 -96 90 -147 36 -60 61 -93 73 -93 9 0 61 7 115 16 112 19 131 22 152
23 41 3 43 18 8 67 -19 27 -65 99 -103 159 -38 61 -73 115 -78 120 -19 25 -87
135 -87 143 0 4 16 14 35 21 51 18 130 100 162 168 26 54 28 66 28 188 0 117
-2 134 -24 175 -56 106 -123 160 -255 203 -54 17 -97 20 -357 24 -244 4 -297
3 -301 -8z m530 -249 c56 -26 89 -65 102 -123 21 -98 -11 -174 -93 -216 -40
-20 -64 -25 -135 -25 l-87 -1 -3 193 -2 192 87 0 c65 0 99 -5 131 -20z"/>
<path d="M5770 4380 l0 -650 415 0 415 0 0 125 0 125 -254 0 -255 0 -3 141
c-2 77 -1 143 1 145 2 2 96 4 208 4 l204 0 -6 48 c-3 26 -11 83 -18 127 l-13
80 -187 5 c-103 3 -187 8 -187 13 0 4 0 56 0 117 l0 110 243 2 242 3 3 128 3
127 -406 0 -405 0 0 -650z"/>
<path d="M7135 5013 c-12 -30 -126 -347 -129 -358 -2 -5 -8 -23 -14 -38 -7
-16 -12 -32 -12 -37 0 -5 -6 -24 -14 -42 -8 -18 -38 -100 -66 -183 -29 -82
-56 -159 -61 -170 -10 -24 -61 -166 -114 -320 -21 -60 -42 -116 -48 -122 -7
-10 24 -13 150 -13 l159 0 43 135 44 135 226 0 227 0 13 -32 c7 -18 30 -82 51
-143 21 -60 43 -109 48 -108 6 2 73 12 149 24 76 11 141 23 145 25 4 2 5 12 3
22 -5 21 -132 380 -248 702 -25 69 -48 136 -52 150 -4 14 -13 39 -20 55 -7 17
-37 99 -66 183 l-54 152 -176 0 c-159 0 -178 -2 -184 -17z m188 -365 c14 -40
40 -117 102 -312 14 -43 23 -81 21 -85 -5 -8 -283 -7 -291 1 -3 3 7 43 23 89
16 46 48 144 72 217 23 72 46 132 50 132 4 0 14 -19 23 -42z"/>
<path d="M8010 4895 l0 -135 178 -2 177 -3 3 -512 2 -513 160 0 160 0 0 515 0
515 195 0 195 0 -4 23 c-3 12 -13 73 -22 135 l-17 112 -514 0 -513 0 0 -135z"/>
<path d="M9210 4380 l0 -650 415 0 415 0 0 125 0 125 -257 2 -258 3 0 140 0
140 208 3 c189 2 207 4 207 20 -1 39 -31 227 -38 234 -4 4 -91 9 -192 10
l-185 3 -3 118 -3 117 251 0 250 0 0 130 0 130 -405 0 -405 0 0 -650z"/>
<path d="M10590 4380 l0 -650 160 0 160 0 0 650 0 650 -160 0 -160 0 0 -650z"/>
<path d="M11140 4380 l0 -650 150 0 150 0 0 380 c0 299 3 378 13 375 6 -3 48
-60 93 -128 44 -67 156 -236 248 -374 l167 -253 140 0 139 0 0 650 0 650 -150
0 -150 0 0 -361 c0 -243 -3 -358 -10 -354 -10 6 -84 117 -369 552 l-106 162
-157 1 -158 0 0 -650z"/>
<path d="M12390 4895 l0 -135 180 0 180 0 0 -515 0 -515 160 0 160 0 2 513 3
512 196 3 197 2 -13 63 c-8 34 -19 95 -25 135 l-12 72 -514 0 -514 0 0 -135z"/>
<path d="M13600 4380 l0 -650 410 0 410 0 0 125 0 125 -255 0 -256 0 3 143 3
142 209 3 208 2 -6 23 c-3 12 -13 70 -22 130 l-17 107 -188 0 -189 0 0 120 0
120 250 0 250 0 0 130 0 130 -405 0 -405 0 0 -650z"/>
<path d="M14600 4381 l0 -651 155 0 155 0 2 223 3 222 45 0 45 0 143 -232 143
-231 32 8 c18 4 84 16 147 25 63 10 120 20 127 24 11 6 -71 142 -187 311 -57
83 -100 154 -100 166 0 7 10 14 23 18 40 10 142 111 170 168 34 71 48 170 36
253 -24 168 -120 271 -301 321 -51 14 -117 18 -350 22 l-288 4 0 -651z m511
394 c103 -37 148 -143 110 -258 -24 -72 -95 -107 -223 -113 l-88 -3 0 194 0
195 79 0 c45 0 97 -7 122 -15z"/>
<path d="M15740 4380 l0 -650 145 0 145 0 2 378 c2 243 7 377 13 377 10 -1
120 -164 379 -558 l129 -197 138 0 139 0 0 650 0 650 -145 0 -145 0 0 -355 c0
-277 -3 -355 -12 -355 -7 0 -58 69 -114 153 -248 374 -339 513 -349 532 -10
19 -22 20 -168 23 l-157 3 0 -651z"/>
<path d="M17417 4993 c-14 -33 -120 -330 -123 -343 0 -3 -4 -12 -7 -20 -4 -8
-21 -55 -37 -105 -17 -49 -37 -104 -45 -122 -8 -17 -15 -35 -15 -40 0 -4 -25
-78 -56 -163 -62 -170 -164 -461 -164 -467 0 -2 69 -3 153 -3 l152 0 45 133
45 132 226 3 225 2 13 -32 c7 -18 29 -82 50 -143 22 -66 42 -109 49 -108 20 5
214 35 252 40 19 2 39 8 43 12 5 5 -16 77 -47 161 -31 85 -56 158 -56 163 0 5
-7 23 -15 40 -8 18 -21 52 -29 77 -8 25 -33 97 -56 160 -23 63 -57 160 -76
215 -19 55 -39 109 -44 120 -8 18 -77 213 -103 293 l-10 32 -177 0 -177 0 -16
-37z m196 -345 c8 -24 20 -61 27 -83 6 -22 15 -49 19 -60 21 -52 80 -248 77
-254 -5 -7 -283 -7 -291 0 -7 7 136 439 145 439 4 0 14 -19 23 -42z"/>
<path d="M18300 4895 l0 -135 178 -2 177 -3 3 -512 2 -513 160 0 160 0 0 515
0 515 195 0 195 0 -6 28 c-3 15 -13 74 -22 132 l-18 105 -512 3 -512 2 0 -135z"/>
<path d="M19510 4380 l0 -650 160 0 160 0 0 650 0 650 -160 0 -160 0 0 -650z"/>
<path d="M21440 4380 l0 -650 145 0 145 0 0 380 c0 331 2 380 15 380 8 0 15
-4 15 -9 0 -5 36 -62 79 -127 43 -66 154 -233 245 -371 l167 -253 139 0 140 0
0 650 0 650 -150 0 -150 0 0 -355 c0 -202 -4 -355 -9 -355 -5 0 -24 24 -42 53
-19 28 -37 57 -42 62 -4 6 -67 100 -139 210 -72 110 -158 242 -192 293 l-61
92 -152 0 -153 0 0 -650z"/>
<path d="M23120 5018 c0 -13 -131 -387 -155 -443 -7 -16 -18 -46 -23 -65 -6
-19 -20 -60 -32 -90 -12 -30 -30 -80 -40 -110 -31 -91 -172 -484 -199 -552
l-11 -28 156 0 c115 0 156 3 159 13 2 6 23 67 46 135 l42 122 223 0 c167 0
225 -3 231 -12 4 -7 27 -69 50 -137 24 -69 46 -127 48 -130 8 -7 296 38 308
49 4 3 -3 35 -17 71 -13 35 -35 98 -49 139 -14 41 -38 107 -52 145 -15 39 -31
86 -37 105 -5 19 -16 49 -23 65 -7 17 -52 140 -100 275 -47 135 -94 265 -103
290 -9 25 -25 72 -37 105 l-20 60 -182 3 c-141 2 -183 0 -183 -10z m184 -350
c3 -7 32 -98 65 -203 34 -104 61 -197 61 -205 0 -13 -21 -15 -132 -14 -73 1
-139 2 -146 3 -15 1 -9 43 14 96 7 16 34 99 61 182 44 140 66 179 77 141z"/>
<path d="M24070 4380 l0 -650 381 0 c357 0 380 1 375 18 -2 9 -13 70 -23 134
l-18 118 -200 2 -200 3 -3 513 -2 512 -155 0 -155 0 0 -650z"/>
<path d="M25343 4513 c3 -570 1 -550 68 -654 51 -80 125 -120 255 -139 120
-18 223 3 359 71 58 29 107 51 109 48 4 -4 15 -72 16 -96 0 -10 34 -13 135
-13 l135 0 0 650 0 650 -160 0 -160 0 0 -468 c0 -534 11 -476 -99 -533 -56
-29 -76 -34 -150 -37 -77 -3 -90 -1 -121 20 -70 47 -69 40 -70 556 l0 462
-160 0 -161 0 4 -517z"/>
<path d="M26650 4380 l0 -650 145 0 145 0 0 380 c0 231 4 380 9 380 9 0 174
-245 435 -642 l77 -118 139 0 140 0 0 650 0 650 -150 0 -150 0 0 -352 c1 -214
-3 -354 -8 -356 -6 -2 -34 34 -63 79 -56 86 -271 413 -289 439 -6 8 -36 54
-67 103 l-57 87 -153 0 -153 0 0 -650z"/>
<path d="M27970 4380 l0 -650 160 0 160 0 0 650 0 650 -160 0 -160 0 0 -650z"/>
<path d="M29820 4380 l0 -650 410 0 410 0 0 125 0 125 -255 0 -255 0 0 145 0
145 211 0 c195 0 210 1 206 18 -3 9 -13 68 -23 130 l-17 112 -189 0 -188 0 0
120 0 120 246 2 245 3 2 128 2 127 -402 0 -403 0 0 -650z"/>
<path d="M30810 4381 l0 -651 159 0 159 0 0 215 c0 118 3 219 7 225 3 5 23 10
45 10 41 0 39 2 130 -145 19 -32 53 -86 75 -121 22 -35 54 -86 70 -114 55 -92
37 -85 166 -66 63 10 136 22 162 28 l48 10 -36 49 c-19 27 -35 51 -35 54 0 3
-18 31 -39 63 -83 122 -191 296 -191 308 0 6 10 14 23 17 36 10 136 106 161
156 48 94 61 186 40 288 -31 152 -120 245 -284 296 -57 17 -101 20 -362 24
l-298 5 0 -651z m522 394 c77 -27 118 -89 118 -181 0 -130 -88 -194 -260 -190
l-65 1 -3 193 -2 192 83 0 c49 0 102 -6 129 -15z"/>
<path d="M33000 4380 l0 -650 155 0 155 0 0 650 0 650 -155 0 -155 0 0 -650z"/>
<path d="M33474 5017 c-2 -7 -3 -67 -2 -133 l3 -119 178 -3 177 -2 0 -515 0
-515 165 0 165 0 0 515 0 515 193 2 194 3 -18 110 c-11 61 -21 120 -24 133
l-5 22 -511 0 c-410 0 -511 -3 -515 -13z"/>
<path d="M34690 4380 l0 -651 158 3 157 3 3 648 2 647 -160 0 -160 0 0 -650z"/>
<path d="M35240 4380 l0 -650 415 0 416 0 -3 123 -3 122 -252 3 -253 2 0 145
0 145 205 0 206 0 -6 43 c-3 23 -11 80 -18 127 l-13 85 -187 3 -187 2 0 120 0
120 243 2 242 3 3 128 3 127 -406 0 -405 0 0 -650z"/>
<path d="M37340 4940 c-83 -24 -135 -83 -147 -165 -18 -135 84 -238 221 -221
87 10 166 99 166 187 0 44 -24 116 -48 142 -40 45 -137 74 -192 57z m140 -40
c55 -39 73 -76 74 -149 1 -110 -52 -172 -154 -179 -114 -8 -182 55 -183 170 0
40 6 75 16 95 18 34 69 77 102 86 38 11 116 -2 145 -23z"/>
<path d="M37308 4759 c-2 -56 -1 -105 2 -109 3 -5 14 -8 25 -6 15 2 21 12 23
39 4 46 16 47 44 2 17 -26 30 -35 51 -35 32 0 34 9 7 43 -24 30 -26 53 -5 61
9 3 15 18 15 38 0 49 -27 68 -99 68 l-60 0 -3 -101z m96 58 c26 -19 13 -57
-20 -57 -20 0 -24 5 -24 28 0 43 13 52 44 29z"/>
</g>
</svg>
